<?xml version="1.0" encoding="utf-8"?>
<!-- Generator: Adobe Illustrator 18.1.1, SVG Export Plug-In . SVG Version: 6.00 Build 0)  -->
<svg version="1.1" id="Capa_1" xmlns="http://www.w3.org/2000/svg" xmlns:xlink="http://www.w3.org/1999/xlink" x="0px" y="0px"
	 viewBox="0 0 1400 980" enable-background="new 0 0 1400 980" xml:space="preserve">
<rect fill="#FFFFFF" width="1400" height="980"/>
<polygon fill="#5B5B5F" points="1259.6,546.3 700,546.3 140.4,546.3 170.4,484.7 140.4,423.1 700,423.1 1259.6,423.1 1229.6,484.7 
	"/>
<path fill="#5B5B5F" d="M296.1,845.3l-17.2-17.5l15.1-0.1c3.4,0,6.2-2.8,6.2-6.2c0-3.4-2.7-6.1-6.1-6.1l-27.2,0.2l-9.3-9.5l27.9,0.1
	c3.4,0,6.2-2.7,6.2-6.2c0.1-3.4-2.7-6.2-6.1-6.2l-40.2-0.1l-43.9-44.6l36,6.5c3.3,0.6,6.6-1.6,7.2-5c0.6-3.4-1.6-6.5-4.9-7.2
	l-39.8-7.1l58.8-18.1l31.3,19.2c0.5,0.3,1,0.5,1.6,0.7c2.6,0.7,5.4-0.4,6.9-2.8c1.8-2.9,0.9-6.7-2-8.5l-22.1-13.5l12.8-3.9l22,13.2
	c0.5,0.3,1,0.5,1.6,0.7c2.6,0.7,5.4-0.4,6.9-2.8c1.8-2.9,0.9-6.7-2-8.5l-12.5-7.5l24.1-7.4c3.3-1,5.1-4.5,4.2-7.7
	c-1-3.3-4.4-5.1-7.7-4.1l-23.6,7.3l7.1-13.4c1.6-3,0.5-6.8-2.5-8.3c-3-1.6-6.7-0.4-8.3,2.7l-12.8,24.2l-12.8,3.9l13.3-24.7
	c1.6-3,0.5-6.7-2.5-8.3c-3-1.6-6.7-0.4-8.4,2.6l-19.2,35.6l-52.5,16.2l25.3-25.5c2.4-2.4,2.4-6.3,0-8.7c-2.4-2.4-6.3-2.3-8.7,0.1
	l-26.6,26.8l17.1-61.2l33.5-16.7c3.1-1.5,4.3-5.2,2.8-8.3c-1.5-3-5.2-4.3-8.2-2.8l-23.7,11.8l3.6-12.9l23.4-11.9
	c3-1.6,4.3-5.3,2.8-8.3c-1.5-3-5.2-4.2-8.3-2.7l-13.4,6.8l7-25.2c0.9-3.3-1-6.7-4.3-7.6c-3.3-0.9-6.7,1.1-7.6,4.4l-6.8,24.2
	l-7.3-12.7c-1.7-2.9-5.5-3.9-8.4-2.2c-3,1.7-4,5.5-2.3,8.4l13.4,23.2l-3.6,12.9l-13.5-23.9c-1.7-3-5.4-4-8.4-2.3
	c-3,1.7-4,5.5-2.4,8.4l19.5,34.6l-16.8,60.1l-9.9-36.2c-0.9-3.3-4.3-5.2-7.6-4.2c-3.3,0.9-5.2,4.4-4.3,7.6l10,36.3l-39.6-40.3
	l2.7-37.3c0.3-3.4-2.3-6.3-5.7-6.5c-3.4-0.2-6.3,2.4-6.6,5.8l-1.9,26.3l-9.3-9.5l1.7-26.1c0.2-3.4-2.3-6.3-5.8-6.5
	c-3.4-0.2-6.3,2.4-6.5,5.8l-1,15l-18.1-18.5c-2.4-2.4-6.3-2.4-8.7,0c-2.4,2.4-2.5,6.3-0.1,8.7L86.7,650l-14.7,0.1
	c-3.4,0-6.2,2.8-6.2,6.2c0,2.8,1.9,5.2,4.5,5.9c0.5,0.1,1.1,0.2,1.6,0.2l26.9-0.2l9.3,9.5l-27.5-0.1c-3.4,0-6.2,2.7-6.3,6.2
	c0,2.9,1.9,5.3,4.5,6c0.5,0.1,1,0.2,1.6,0.2l39.9,0.1l42.2,42.9l-39.5-10.5c-3.3-0.9-6.7,1.1-7.6,4.4c-0.9,3.3,1,6.6,4.3,7.5
	c0,0,0,0,0,0l34.3,9.1l-60.2,18.5l-31.6-19.4c-2.9-1.8-6.7-0.8-8.5,2.1c-1.8,2.9-0.9,6.7,2,8.5L78,761l-12.8,3.9l-22.3-13.4
	c-2.9-1.7-6.7-0.8-8.5,2.2c-1.8,2.9-0.9,6.7,2,8.5l12.8,7.7l-24.9,7.7c-3.3,1-5.1,4.5-4.2,7.7c0.6,2.1,2.3,3.6,4.2,4.1
	c1.1,0.3,2.3,0.3,3.4-0.1l24-7.4L44.8,795c-1.6,3-0.5,6.7,2.5,8.3c0.4,0.2,0.8,0.4,1.2,0.5c2.7,0.7,5.7-0.5,7.1-3.1l12.6-23.9
	l12.8-3.9L68,797.3c-1.6,3-0.5,6.7,2.5,8.3c0.4,0.2,0.8,0.4,1.3,0.5c2.7,0.7,5.7-0.5,7.1-3.1l19.1-35.3l60.7-18.7l-26.3,26.5
	c-2.4,2.4-2.4,6.3,0,8.7c0.8,0.8,1.7,1.3,2.7,1.6c2.1,0.6,4.4,0,6-1.6l26.2-26.4l-15.7,56.4l-33.2,16.5c-3.1,1.5-4.3,5.2-2.9,8.3
	c1.5,3.1,5.2,4.3,8.2,2.8l23.4-11.6l-3.6,12.9l-23.1,11.8c-3,1.6-4.3,5.3-2.8,8.3c1.5,3,5.2,4.2,8.3,2.7L139,859l-6.8,24.4
	c-0.9,3.3,1,6.7,4.3,7.6c3.3,0.9,6.7-1.1,7.6-4.4l6.7-23.9l7.5,13c0.8,1.5,2.2,2.4,3.7,2.8c1.5,0.4,3.2,0.2,4.7-0.6
	c2.9-1.7,4-5.5,2.3-8.4L155.3,846L159,833l13.6,24.2c0.8,1.5,2.2,2.5,3.7,2.9c1.5,0.4,3.2,0.2,4.7-0.6c3-1.7,4-5.5,2.4-8.4l-19.7-35
	l16-57.2l11.5,38.3c0.6,2.1,2.3,3.6,4.2,4.1c1.1,0.3,2.3,0.3,3.4-0.1c3.3-1,5.1-4.5,4.1-7.7L192,757.1l45.3,46.1l-2.7,36.9
	c-0.2,3,1.7,5.6,4.5,6.3c0.4,0.1,0.8,0.2,1.2,0.2c3.4,0.2,6.3-2.4,6.6-5.8l1.9-26l9.3,9.5l-1.6,25.8c-0.2,3,1.7,5.5,4.5,6.3
	c0.4,0.1,0.8,0.2,1.3,0.2c3.4,0.2,6.3-2.4,6.5-5.8l0.9-14.7l17.6,17.9c0.8,0.8,1.7,1.3,2.7,1.6c2,0.5,4.3,0,6-1.6
	C298.4,851.6,298.5,847.7,296.1,845.3z"/>
<g>
	<path fill="#5B5B5F" d="M77.3,112.4L88,126.8l13.4-0.5l11.3,15.4l-8,1l-6.2-8.5L85,134.6l-1.4,0L76,146.3l8.2,11.2l14.9-0.4l6-9.2
		l11.2-1.3l12.8,17.4l-17.4,1.5l-6.4-6.3l-11.5,1.8l-1.3,0.2L87,171.9l8.5,8.4l12.8-2l4-7.6l20.5-1.8l11.7,15.8l-5.3,1l-4.8-7
		l-11.1,0.3l-1.5,0l-6.2,10.4l6.8,9.9l12.5-0.3l4.8-8.1l8-1.6l12.1,16.3l-13.9,1.5c-1.5,0.1-2.5,1.4-2.3,2.8c0,0,0,0,0,0
		c-0.2,0.7,0,1.5,0.5,2.1l8.2,10.8l-20.4,2.2l-5.3-7.2l2.7-8.5l-7.9-10.3l-12.2,0.9l-3.7,11.7l7.2,9l0.9,1.1l9.1-0.5l3.3,4.4
		l-19.2,2.1l-12-17.6l2.1-9l-7.6-8.9l-0.9-1l-12,0.9L73.9,204l8.5,9.9l8.3-0.6l10.4,15.3l-21.9,2.4l-6.9-9.5l2.9-10.6l-8.7-10.6
		l-0.9-1l-14,1L48,213.7l9.6,11.7l10.5-0.8l5.1,7l-19,2l-8.7-10L29,225.4l-1.3,0.2l-7.8,14.5l10.8,12.5l17.8-2l6.4-11.8l19-2.1
		l-3.2,7.4l-10.4,1.1l-6.6,11.9l-0.6,1.2l6.2,12.4l13.8-1.5l7.1-13.1l-4.9-9.7l4.5-10.4l21.5-2.4L94,249.6l-8.6,2.3l-4.3,10.9
		l-0.4,1.3l6.4,10.1l11.6-3.1l4.7-12.1l-4.6-7.3l8.7-18.6L127,231l-1.7,5l-8.5,0.7l-5.4,9.9l-0.6,1.2l5.8,10.6l12.1-0.9l6.1-11.2
		l-4.5-8.4l2.7-7.7l20.2-2.2l-5.7,12.7c-0.6,1.3,0,2.9,1.4,3.4c0.5,0.5,1.3,0.8,2.1,0.7l13.4-1.8l-8.4,18.7l-8.8,1l-5.7-6.6
		l-12.5,1.5l-5,11l7.9,9.1l11-1.6l1.4-0.2l3.8-8.1l5.5-0.6l-7.8,17.6l-21.2,1.5l-6.7-6.3l-11.5,2.1l-1.3,0.2l-5.3,10.8l8.7,8.2
		l12.8-2.3l3.7-7.5l18.4-1.3l-9,20.2l-11.7,1.2l-7.7-7.8l-13.6,2.2l-1.4,0.2L93.7,319l9.7,9.9l14.9-2.4l4.6-9.5l8.7-0.9l-7.8,17.4
		l-13.1,2.5l-6.7,15.1l-0.5,1.3l8.6,14.1l16.2-3.1l7.3-16.4l-7-11.4l7.8-17.5l4.8,6.5l-4.3,9.6l7,11.6l0.7,1.2l13.8,0.8l5.7-12.7
		l-7.8-12.8l-10.9-0.6l-6.7-9.1l8.8-19.8l9.9,14.4l-2.3,8.6l7.3,9.1l0.8,1l12-0.5l3.2-11.5l-8.1-10.2l-8.6,0.3l-11.7-16.9l8-18
		l3.5,4.1l-3.7,7.6l5.7,9.4l0.8,1.2l12,0.3l5.3-10.8l-6.5-10.7l-9.4-0.2l-5.3-6.1l8.3-18.6l8.1,11.3c0.9,1.2,2.5,1.4,3.7,0.6
		c0.7-0.2,1.3-0.7,1.6-1.4l5.2-12.5l12,16.6l-3.6,8.2l-8.7,1.9l-5.2,12l6.9,10.3l12-2.6l4.4-10.8l0.5-1.2l-4.9-7.7l2.2-5.1
		l11.2,15.6l-9.3,19.1l-8.9,2.6l-3.9,11l-0.5,1.2l6.7,10l11.4-3.4l4.4-12.2l-4.6-6.9l8.1-16.6l12.9,18l-4.9,10.7l-10.6,2.7
		l-4.9,12.8l-0.5,1.3l7.8,11.6L231,339l5.4-14.1l-5.9-8.8l3.6-7.9l11.2,15.5l-4.5,12.5l10.5,14.5l16.6-0.4l5.5-15.6l-10.5-14.5
		l-13.4,0.3l-11.2-15.5l8-0.9l6.1,8.5l13.6-0.3l1.4,0L275,301l-8.1-11.3L252,290l-6,9.1l-11.2,1.2l-12.7-17.6l17.4-1.3l6.3,6.3
		l11.6-1.7l1.3-0.2l5.7-10.6l-8.4-8.5l-12.9,1.8l-4.1,7.6l-20.5,1.6L207,261.7l5.3-1l4.8,7.1l11.4-0.2l1.4,0l6.5-10.3l-6.9-10
		l-12.8,0.2l-5.1,8l-8,1.5l-11.9-16.5l13.9-1.4c1.4-0.1,2.4-1.4,2.3-2.8c0.5-0.9,0.5-2.1-0.2-2.9l-8.4-10.6l20.4-2.4l5.3,7.1
		l-2.8,8.1l7.4,9.6l11.8-1.6l4-11.2l-6.8-8.3l-0.9-1.1l-8.8,1l-3.3-4.4l19.1-2.3l12.2,17.5l-2,9l7.7,8.8l0.9,1l12-1l2.5-11.7
		l-8.6-9.8l-8.3,0.7l-10.6-15.2l22-2.6l7,9.4l-2.8,10.6l8.8,10.5l0.8,1l14-1.2l3.5-13.5l-9.7-11.6l-10.5,0.9l-5.2-7l19-2.2l8.8,9.9
		l16.4-2l1.4-0.1l7.7-14.7l-11-12.4l-17.8,2.2l-6.2,11.9l-19,2.3l3.1-7.4l10.4-1.2l6.4-12l0.6-1.2l-6.4-12.3l-13.8,1.7l-7,13.2
		l5,9.7l-4.3,10.4l-21.5,2.6l7.3-15.9l8.6-2.4l4.2-10.9l0.5-1.2l-6.5-10.1l-11.6,3.2l-4.6,12.2l4.6,7.2l-8.5,18.7l-19.5,2.3l1.7-5
		l8.3-0.5l5.1-9.5l0.7-1.3l-6.1-10.3l-11.9,0.8l-5.7,10.8l4.7,8l-2.6,7.7l-20.2,2.4l5.5-12.8c0.5-1.3,0-2.8-1.4-3.4
		c-0.5-0.4-1.3-0.7-2.1-0.6l-13.4,1.9l8.1-18.8l8.8-1.1l5.6,6.6l12.1-1.6l4.6-11l-7.7-9.1l-10.6,1.7l-1.4,0.2l-3.5,8.1l-5.5,0.6
		l7.7-17.7l21.2-1.8l6.8,6.3l11.5-2.3l1.3-0.2l5.2-10.8l-8.8-8.1l-12.8,2.5l-3.6,7.5l-18.4,1.6l8.7-20.3l11.7-1.3l7.8,7.7l13.6-2.3
		l1.3-0.2l6-12.6l-9.9-9.9l-14.9,2.6l-4.6,9.6l-8.6,1l7.6-17.5l13-2.6l6.5-15.2l0.5-1.3l-8.8-13.9L222,82.1l-7,16.4L222,110
		l-7.6,17.5l-4.9-6.4l4.2-9.7l-7.1-11.5l-0.7-1.2l-13.8-0.7l-5.5,12.7l7.9,12.7l10.9,0.5l6.8,9l-8.6,19.9l-10.2-14.3l2.3-8.7
		l-7.4-9.1l-0.8-1l-12,0.6l-3,11.6l8.2,10.1l8.6-0.4l11.9,16.8l-7.8,18.1l-3.5-4l3.7-7.5l-5.7-9.2l-0.8-1.2l-11.9,0.1l-5.3,10.7
		l6.5,10.4l9.4,0l5.4,6.1l-8.1,18.7l-8.3-11.2c-0.9-1.1-2.5-1.4-3.6-0.5l0,0c-0.2,0.1-0.5,0.2-0.7,0.4c-0.3,0.3-0.7,0.6-0.9,1.1
		l-5.1,12.5l-12.2-16.5l3.5-8.1l8.5-1.6l4.7-11.3l-7.2-9.5l-11.7,2.1l-3.9,10l-0.6,1.3l5.3,7.2l-2.2,5l-11.4-15.5l9.2-19.3l8.8-2.7
		l3.8-11l0.5-1.3l-6.8-9.9l-11.5,3.5l-4.3,12.3l4.7,6.8l-8,16.7l-13.1-17.8l4.7-10.8l10.6-2.8l4.8-12.9l0.5-1.3l-7.9-11.5l-13.6,3.6
		l-5.2,14.2l6,8.7l-3.5,7.9l-11.3-15.4l4.3-12.6L100,97.3l-0.8-1.1l-16.5,0.6L77.3,112.4z M96.3,151.9l-9.4,0.3l-4.4-6.1l4.1-6.3
		l9.5-0.3l4.5,6.1L96.3,151.9z M107.2,168.6c0,0.1,0.1,0.3,0.1,0.4l-2.3,4.6l-7.7,1.2l-3.9-3.9l2.6-4.9l7.6-1.2l3.7,3.6
		C107.2,168.5,107.2,168.5,107.2,168.6z M135,188.8c0,0,0,0.1,0,0.2l-3,4.9l-6.8,0.2l-3.3-4.8l3-5l6.8-0.2L135,188.8z M49.7,236.8
		c0.1,0.1,0.1,0.2,0.1,0.4l-4.7,8.6l-12.3,1.4l-6.7-7.7l4.8-9l12.4-1.4l6.4,7.4C49.8,236.6,49.8,236.7,49.7,236.8z M74.3,256.1
		l-4.5,8.3l-7.5,0.8l-3.4-6.7l4.5-8.3l7.5-0.8L74.3,256.1z M67.4,219.4l-7.6,0.5l-6.2-7.5l2-7.3l7.6-0.6l6.1,7.5L67.4,219.4z
		 M97.5,259.5l-2.8,7.2l-5.3,1.4l-3-4.6l2.8-7.3l5-1.3c0,0,0.1,0.1,0.1,0.1c0.2,0.1,0.3,0.1,0.5,0.2L97.5,259.5z M84.7,208.5
		l-5.1-5.9l1.3-5.3l5.5-0.4l5,5.9l-1.2,5.4L84.7,208.5z M128.7,246.4l-3.4,6.1l-5.9,0.5l-2.8-5.2l3.3-6.2l5.8-0.5l0.1,0L128.7,246.4
		z M121.9,216.2l-5.7,0.4l-4.6-5.8l1.8-5.7l5.9-0.5l4.5,5.9L121.9,216.2z M142.9,266.4l-2.4,5.1l-6.7,1l-3.8-4.4l2.4-5.3l6.8-0.8
		L142.9,266.4L142.9,266.4z M117.4,294.6l-7.6,1.4l-4-3.8l2.4-4.9l7.6-1.4l4,3.8L117.4,294.6z M114.9,321.9l-9.6,1.5L100,318
		l3.3-6.8l9.5-1.6l5.3,5.4L114.9,321.9z M129.8,347.5l-5,11.4l-10,1.9l-5.4-8.7l5-11.3l9.7-1.8c0.1,0,0.1,0.1,0.2,0.1
		c0.1,0,0.2,0.1,0.4,0.1L129.8,347.5z M153.4,327.5l4.9,8.1l-3.1,6.9l-7.5-0.5l-4.9-8.1l3.1-6.9L153.4,327.5z M168,309.3l4.8,6.1
		l-1.5,5.3l-5.5,0.2l-4.8-6.1l1.3-4.9c0,0,0.1,0,0.1-0.1c0.1-0.1,0.3-0.2,0.4-0.3L168,309.3z M172.3,275.6l3.5,5.8l-2.6,5.3
		l-5.9-0.2l-3.5-5.8l2.5-5.2l0.1-0.1L172.3,275.6z M199.8,278.4l-2.9,7l-5.8,1.3l-3.3-5l3-7l5.8-1.2L199.8,278.4z M208.3,309.7
		l-2.6,7.3l-5.3,1.6l-3.1-4.5l2.7-7.3l5.3-1.6L208.3,309.7z M230.5,325.6l-3.4,9.1l-7.3,1.8l-4.2-6.3l3.5-9l7.3-1.8L230.5,325.6z
		 M250.7,301.5l4.2-6.3l9.5-0.2l4.4,6.1l-4.2,6.3l-9.4,0.2L250.7,301.5z M244.1,278.3c0-0.1,0-0.3-0.1-0.4l2.4-4.5l7.7-1.2l3.8,3.9
		l-2.6,4.9l-7.7,1.1l-3.6-3.6C244.1,278.4,244.1,278.4,244.1,278.3z M216.5,257.7L216.5,257.7l3.2-5l7.2-0.1l3.4,4.9l-3.1,5
		l-7.3,0.1L216.5,257.7z M302,208c0-0.1,0-0.2-0.1-0.3l4.5-8.7l12.3-1.5l6.8,7.6l-4.7,9l-12.3,1.6l-6.5-7.4
		C302,208.1,302,208.1,302,208z M277.2,188.9l4.4-8.3l7.5-0.9l3.4,6.7l-4.4,8.4l-7.5,0.8L277.2,188.9z M284.6,225.6l7.5-0.7l6.2,7.4
		l-1.9,7.3l-7.6,0.6l-6.2-7.4L284.6,225.6z M254,185.7l2.8-7.2l5.3-1.5l3,4.6l-2.7,7.3l-5,1.4c0,0,0,0-0.1,0
		c-0.2-0.1-0.3-0.2-0.5-0.2L254,185.7z M267.4,236.7l5.1,5.8l-1.2,5.4l-5.5,0.5l-5.1-5.8l1.2-5.4L267.4,236.7z M222.9,199.4l3-5.6
		l5.8-0.4l2.9,5l-3,5.6l-5.6,0.4c-0.1-0.1-0.1-0.1-0.2-0.1L222.9,199.4z M230,229.4c0.1-0.1,0.1-0.1,0.2-0.2l5.5-0.6l4,4.9l-2,5.4
		l-5.7,0.7l-3.8-5L230,229.4z M208.6,179.4l2.2-5l6.2-1l3.7,4.4l-2.2,5.3l-6.3,0.8l-3.7-4.3C208.6,179.5,208.6,179.4,208.6,179.4z
		 M233.7,150.9l7.6-1.5l4.1,3.7l-2.4,5l-7.6,1.5l-4.1-3.8L233.7,150.9z M236,123.6l9.5-1.7l5.4,5.4l-3.2,6.8l-9.5,1.7l-5.4-5.4
		L236,123.6z M220.8,98.1l4.9-11.4l10-2l5.4,8.6l-4.9,11.4l-9.6,1.9c-0.1-0.1-0.1-0.1-0.2-0.2l-0.4,0L220.8,98.1z M197.4,118.4l-5-8
		l3-6.9l7.5,0.4l5,8l-3,6.9L197.4,118.4z M183,136.8l-4.9-6l1.4-5.3l5.5-0.2l4.9,6l-1.3,5c0,0-0.1,0-0.1,0c0,0,0,0,0,0
		c-0.1,0.1-0.2,0.2-0.3,0.3L183,136.8z M179.1,170.6l-3.4-5.5l2.5-5.2l5.8,0l3.4,5.5l-2.5,5l-0.2,0.1c0,0,0,0,0,0L179.1,170.6z
		 M188.3,235.6l-7.6-10.5l12.6-1.5l8.4,10.7L188.3,235.6z M185.2,208.4l12.8-1.8l-5.1,11.9l-12.7,1.5L185.2,208.4z M172.8,195.7
		l7.7,10.4l-5.1,11.8l-7.5-10.2L172.8,195.7z M153.7,162.5l5.7-1.1l3.4,4.6l-2.4,5.9l-5.6,1c0,0-0.1,0-0.1,0l-3.3-4.5L153.7,162.5z
		 M142.6,136.9l2.6-7.3l5.3-1.7l3.1,4.5l-2.5,7.4l-5.3,1.6L142.6,136.9z M120.2,121.1l3.4-9l7.3-1.9l4.3,6.2l-3.4,9.1l-7.3,1.9
		L120.2,121.1z M163.5,210.6l7.6,10.3l-12.6,1.4l-7.9-10.3L163.5,210.6z M166.6,237.7l-12.9,1.7l5.3-11.8l12.8-1.4L166.6,237.7z
		 M178.9,250.5l-7.6-10.5l5.2-11.7l7.4,10.3L178.9,250.5z M260.3,325.6l7.3,10l-3.4,9.6l-10.2,0.3l-7.3-10l3.3-9.3
		c0.1,0,0.1-0.1,0.2-0.1c0.1-0.1,0.2-0.2,0.3-0.2L260.3,325.6z M96.6,101.5l7.4,10l-3.2,9.3l-0.2,0.1c-0.1,0.1-0.2,0.1-0.3,0.2
		l-9.8,0.4l-7.4-9.9l3.3-9.7L96.6,101.5z"/>
</g>
<path fill="#5B5B5F" d="M1263.4,329.9l13.1,33.1c0.6,1.5,2.4,2.3,4,1.7c1.6-0.6,2.4-2.4,1.7-4l-13.1-33.1l26.1,22.9l24.8-3l-14.9-20
	l-37.4-3.5l-16-40.3l36.5,32.1l33.1-4l-19.8-26.7l-51.1-4.9l-16.7-42c3.7-2.3,6.4-5.8,7.7-9.8l44.8,6.5l16.4,48.6l30.6,13.1
	l-3.7-33.1l-39.6-28.1l42.9,6.3l12,35.6l22.9,9.9l-2.8-24.8l-28.3-20.1l35.3,5.2c1.7,0.2,3.2-0.9,3.5-2.6c0.2-1.7-1-3.2-2.6-3.5
	l-35.2-5.2l32.9-11.1l9.8-23l-24.8,2.8l-21.7,30.7l-42.9-6.3l46-15.6l13.1-30.6l-33.1,3.8l-29.7,41.9l-44.8-6.6
	c0-2.1-0.4-4.2-1.2-6.2c-0.8-2.1-2-3.8-3.4-5.4l28.1-35.5l50.3,10.1l26.7-19.9l-30.5-13.3l-44.1,20.2l26.9-34l36.9,7.4l20-15
	l-22.9-10l-31.5,14.5l22.1-28c1-1.3,0.9-3.2-0.5-4.3c-1.4-1-3.3-0.8-4.3,0.5l-22.1,28l6.8-34l-15-20l-9.9,22.9l15.7,34.2l-26.9,34
	l9.6-47.6l-20-26.7l-13.3,30.6l21.4,46.6l-28.1,35.5c-3.7-2-8.1-2.8-12.3-1.9l-16.7-42l33.8-38.6l-3.9-33.1l-0.1,0l-0.1-0.6
	l-26.7,19.8l-4.6,48.5l-15.9-39.9l24.8-28.3l-2.9-24.8l-20.1,14.8l-3.2,34.6l-13.1-33.1c-0.6-1.5-2.4-2.3-4-1.7
	c-1.5,0.6-2.3,2.4-1.7,4l13.1,33.1L1153.1,95l-24.8,3l14.8,20l37.5,3.5l15.7,39.6l-36.3-31.9l-33.1,3.9l0.4,0.5l-0.3,0.1l19.8,26.7
	l51.1,4.8l16.7,42c-3.8,2.3-6.5,5.8-7.8,9.8l-44.8-6.6l-16.4-48.6l-30.7-13.1l3.8,33.1l39.6,28.1l-42.8-6.3l-12.1-35.7l-22.9-9.9
	l2.8,24.9l28.3,20.1l-35.3-5.2c-1.7-0.3-3.2,0.9-3.4,2.6c-0.3,1.7,0.9,3.2,2.5,3.5l35.3,5.2l-32.9,11.1l-9.9,23l24.8-2.8l21.8-30.7
	l42.8,6.3l-46,15.5l-13.1,30.6l33.1-3.8l29.7-41.9l44.8,6.6c0,2.1,0.4,4.2,1.2,6.3c0.8,2.1,2,3.8,3.4,5.4l-28.1,35.5l-50.3-10.1
	l-26.7,20l30.5,13.3l44.1-20.3l-26.8,34l-36.9-7.4l-20,15l22.9,10l31.5-14.5l-22.2,27.9c-1,1.3-0.8,3.3,0.6,4.3
	c1.3,1.1,3.2,0.8,4.2-0.5l22.1-28l-6.8,34.1l15,20l9.9-22.9l-15.7-34.2l26.9-34l-9.5,47.6l19.9,26.7l13.3-30.6l-21.4-46.7l28.1-35.5
	c3.7,2,8.1,2.8,12.4,1.8l16.7,42l-33.9,38.6l3.9,33.1l26.8-19.8l4.5-48.4l16,40.3l-24.9,28.3l3,24.8l20.1-14.8L1263.4,329.9z"/>
<g>
	<g>
		<path fill="#5B5B5F" d="M882.9,214.3c-1.7-0.4-3.1-1.9-3.3-3.7l-12.9-98.2c-0.3-2.4,1.4-4.7,3.8-5c2.4-0.3,4.6,1.4,5,3.8
			l12.9,98.2c0.3,2.4-1.4,4.6-3.8,5C883.9,214.4,883.4,214.4,882.9,214.3z"/>
	</g>
	<g>
		<g>
			<path fill="#5B5B5F" d="M869.8,117.3c-0.6-0.1-1.1-0.4-1.6-0.8l-41.7-32.2c-1.9-1.5-2.3-4.3-0.8-6.2c1.5-1.9,4.3-2.3,6.2-0.8
				l38.3,29.4l29.4-38.2c1.5-2,4.3-2.3,6.2-0.8c1.9,1.5,2.3,4.3,0.8,6.2l-31.4,41c-0.2,0.3-0.3,0.6-0.5,0.9c-0.8,1-1.9,1.6-3,1.7
				c0,0-0.1,0-0.1,0C870.9,117.5,870.4,117.4,869.8,117.3z"/>
		</g>
	</g>
	<g>
		<g>
			<path fill="#5B5B5F" d="M874.9,154.8c-0.6-0.1-1.1-0.4-1.6-0.8l-32.7-25.2c-1.9-1.5-2.3-4.3-0.8-6.2c1.5-1.9,4.3-2.3,6.2-0.8
				l29.2,22.5l22.5-29.2c1.5-2,4.3-2.3,6.2-0.8c2,1.5,2.3,4.3,0.8,6.2l-24.6,32.1c-0.1,0.2-0.3,0.5-0.5,0.8c-0.7,1-1.8,1.6-3,1.7
				c0,0-0.1,0-0.1,0C876,155,875.4,154.9,874.9,154.8z"/>
		</g>
	</g>
	<g>
		<g>
			<path fill="#5B5B5F" d="M880.1,193.7c-0.6-0.1-1.1-0.4-1.6-0.8L852,172.5c-2-1.5-2.3-4.3-0.8-6.2c1.5-1.9,4.3-2.3,6.2-0.8
				l23.1,17.7l17.7-23.1c1.5-1.9,4.3-2.3,6.2-0.8c2,1.5,2.3,4.3,0.8,6.2l-19.9,26c-0.1,0.2-0.3,0.4-0.4,0.7c-0.7,1-1.8,1.5-3,1.7
				c0,0-0.1,0-0.1,0C881.2,193.9,880.6,193.9,880.1,193.7z"/>
		</g>
	</g>
	<g>
		<path fill="#5B5B5F" d="M898.3,338c-1.7-0.4-3-1.9-3.3-3.7l-12.9-98.2c-0.3-2.4,1.4-4.7,3.8-5c2.4-0.3,4.7,1.4,5,3.8l12.9,98.2
			c0.3,2.4-1.4,4.7-3.8,5C899.4,338.2,898.9,338.1,898.3,338z"/>
	</g>
	<g>
		<g>
			<path fill="#5B5B5F" d="M866.3,378.6c-0.6-0.1-1.1-0.4-1.6-0.8c-1.9-1.5-2.3-4.3-0.8-6.2l31.5-41c0.1-0.3,0.3-0.6,0.5-0.9
				c0.8-1,1.8-1.6,3-1.7c0.1,0,0.1,0,0.1,0c1.2-0.1,2.3,0.2,3.3,0.9l41.7,32.2c1.9,1.5,2.3,4.3,0.8,6.2c-1.5,1.9-4.2,2.3-6.2,0.8
				l-38.3-29.4L870.9,377C869.8,378.5,868,379,866.3,378.6z"/>
		</g>
	</g>
	<g>
		<g>
			<path fill="#5B5B5F" d="M868.2,332.1c-0.6-0.1-1.1-0.4-1.6-0.8c-2-1.5-2.3-4.3-0.8-6.2l24.6-32c0.1-0.3,0.3-0.5,0.5-0.8
				c0.7-1,1.8-1.5,2.9-1.7c0.1,0,0.1,0,0.1,0c1.1-0.2,2.3,0.2,3.2,0.9l32.7,25.2c1.9,1.5,2.3,4.3,0.8,6.2c-1.5,1.9-4.3,2.3-6.2,0.8
				l-29.2-22.5l-22.5,29.2C871.7,331.9,869.9,332.5,868.2,332.1z"/>
		</g>
	</g>
	<g>
		<g>
			<path fill="#5B5B5F" d="M867.7,287c-0.6-0.1-1.1-0.4-1.6-0.8c-1.9-1.5-2.3-4.3-0.8-6.2l19.9-25.9c0.1-0.2,0.3-0.5,0.4-0.7
				c0.7-1,1.8-1.6,2.9-1.7c0,0,0.1,0,0.1,0c1.2-0.1,2.4,0.2,3.3,0.9l26.5,20.5c1.9,1.5,2.3,4.3,0.8,6.2c-1.5,1.9-4.3,2.3-6.2,0.8
				l-23-17.7l-17.7,23.1C871.2,286.8,869.4,287.4,867.7,287z"/>
		</g>
	</g>
	<g>
		<path fill="#5B5B5F" d="M814.1,315.5c-0.6-0.1-1.1-0.4-1.6-0.8c-1.9-1.5-2.3-4.3-0.8-6.2l60.3-78.6c1.5-2,4.3-2.3,6.2-0.8
			c2,1.5,2.3,4.3,0.8,6.2l-60.3,78.6C817.6,315.3,815.8,315.9,814.1,315.5z"/>
	</g>
	<g>
		<g>
			<path fill="#5B5B5F" d="M821.8,366.9c-1.7-0.4-3-1.8-3.3-3.7l-6.3-47.8l-47.8,6.3c-2.4,0.3-4.6-1.4-5-3.8c-0.3-2.4,1.4-4.6,3.8-5
				l51.2-6.8c0.3-0.1,0.6-0.2,1-0.2c1.3-0.2,2.4,0.2,3.3,0.9c0,0,0.1,0,0.1,0.1c0.9,0.7,1.5,1.8,1.7,2.9l6.7,52.2
				c0.3,2.4-1.4,4.6-3.8,5C822.9,367.1,822.4,367,821.8,366.9z"/>
		</g>
	</g>
	<g>
		<g>
			<path fill="#5B5B5F" d="M843.3,325.5c-1.7-0.4-3-1.9-3.3-3.7l-4.8-36.5l-36.6,4.8c-2.4,0.3-4.6-1.4-5-3.8c-0.3-2.4,1.4-4.6,3.8-5
				l40.1-5.2c0.3-0.1,0.6-0.2,0.9-0.2c1.2-0.2,2.4,0.2,3.3,0.9l0,0c0.9,0.7,1.5,1.8,1.7,3l5.3,41c0.3,2.4-1.4,4.6-3.8,4.9
				C844.4,325.7,843.9,325.7,843.3,325.5z"/>
		</g>
	</g>
	<g>
		<g>
			<path fill="#5B5B5F" d="M866.1,286.6c-1.7-0.4-3-1.9-3.3-3.7l-3.8-28.9l-28.9,3.8c-2.4,0.3-4.6-1.4-5-3.8c-0.3-2.4,1.4-4.6,3.8-5
				l32.5-4.3c0.2-0.1,0.5-0.1,0.8-0.2c1.2-0.2,2.3,0.2,3.3,0.9c0,0,0.1,0,0.1,0.1c0.9,0.7,1.5,1.8,1.7,2.9l4.3,33.2
				c0.3,2.4-1.4,4.6-3.8,4.9C867.2,286.8,866.7,286.7,866.1,286.6z"/>
		</g>
	</g>
	<g>
		<path fill="#5B5B5F" d="M891.5,217.4c-0.6-0.1-1.1-0.4-1.6-0.8c-1.9-1.5-2.3-4.3-0.8-6.2l60.3-78.6c1.5-1.9,4.3-2.3,6.2-0.8
			c2,1.5,2.3,4.3,0.8,6.2l-60.3,78.6C895,217.2,893.1,217.8,891.5,217.4z"/>
	</g>
	<g>
		<g>
			<path fill="#5B5B5F" d="M950.2,139.4c-0.6-0.2-1.2-0.4-1.6-0.8c0,0-0.1-0.1-0.1-0.1c-0.9-0.7-1.5-1.8-1.7-3L940,83.3
				c-0.3-2.4,1.4-4.6,3.8-5c2.4-0.3,4.6,1.4,5,3.8l6.3,47.9l47.8-6.3c2.4-0.3,4.6,1.4,5,3.8c0.3,2.4-1.4,4.6-3.8,5l-51.2,6.7
				c-0.3,0.1-0.6,0.2-1,0.2C951.3,139.6,950.7,139.5,950.2,139.4z"/>
		</g>
	</g>
	<g>
		<g>
			<path fill="#5B5B5F" d="M928,169.8c-0.6-0.2-1.1-0.4-1.6-0.8c0,0-0.1,0-0.1-0.1c-0.9-0.7-1.5-1.7-1.7-2.9l-5.3-41
				c-0.3-2.4,1.4-4.6,3.8-5c2.4-0.3,4.6,1.4,5,3.8l4.8,36.6l36.5-4.8c2.4-0.3,4.6,1.4,5,3.8c0.3,2.4-1.4,4.6-3.8,5l-40,5.3
				c-0.3,0.1-0.6,0.2-0.9,0.2C929.1,170,928.5,169.9,928,169.8z"/>
		</g>
	</g>
	<g>
		<g>
			<path fill="#5B5B5F" d="M904.2,201c-0.6-0.2-1.1-0.4-1.6-0.8c0,0-0.1-0.1-0.1-0.1c-0.9-0.7-1.5-1.8-1.7-2.9l-4.3-33.2
				c-0.3-2.4,1.4-4.6,3.8-5c2.4-0.3,4.7,1.4,5,3.8l3.8,28.8l28.8-3.8c2.5-0.3,4.7,1.4,5,3.8c0.3,2.4-1.4,4.6-3.8,5l-32.4,4.3
				c-0.3,0.1-0.5,0.1-0.8,0.2C905.2,201.1,904.7,201.1,904.2,201z"/>
		</g>
	</g>
	<g>
		<path fill="#5B5B5F" d="M874.9,219.9c-0.6-0.1-1.1-0.4-1.6-0.8l-78.6-60.3c-1.9-1.5-2.3-4.3-0.8-6.2c1.5-2,4.3-2.3,6.2-0.8
			l78.5,60.3c1.9,1.5,2.3,4.2,0.8,6.2C878.4,219.8,876.6,220.4,874.9,219.9z"/>
	</g>
	<g>
		<g>
			<path fill="#5B5B5F" d="M745,167.3c-1.7-0.4-3-1.9-3.3-3.7c-0.3-2.4,1.4-4.6,3.8-5l47.8-6.3l-6.3-47.8c-0.3-2.4,1.4-4.6,3.8-5
				c2.4-0.3,4.6,1.4,5,3.8l6.7,51.2c0.1,0.3,0.2,0.6,0.2,1c0.2,1.2-0.2,2.4-0.9,3.3c0,0,0,0,0,0.1c-0.7,0.9-1.8,1.5-3,1.7l-52.2,6.8
				C746.1,167.5,745.5,167.4,745,167.3z"/>
		</g>
	</g>
	<g>
		<g>
			<path fill="#5B5B5F" d="M786.3,188.8c-1.7-0.4-3-1.9-3.3-3.7c-0.3-2.4,1.4-4.6,3.8-5l36.5-4.8l-4.8-36.5c-0.3-2.4,1.4-4.7,3.8-5
				c2.4-0.3,4.6,1.4,5,3.8l5.3,40.1c0.1,0.3,0.1,0.6,0.2,0.9c0.2,1.3-0.2,2.4-0.9,3.4c0,0,0,0,0,0c-0.7,0.9-1.8,1.5-2.9,1.7l-41,5.3
				C787.4,189,786.9,188.9,786.3,188.8z"/>
		</g>
	</g>
	<g>
		<g>
			<path fill="#5B5B5F" d="M825.3,211.6c-1.7-0.4-3-1.9-3.3-3.7c-0.3-2.4,1.4-4.6,3.8-5l28.8-3.8l-3.8-28.8
				c-0.3-2.4,1.4-4.6,3.8-4.9c2.4-0.3,4.7,1.4,5,3.8l4.2,32.4c0.1,0.3,0.2,0.5,0.2,0.8c0.2,1.2-0.2,2.4-0.9,3.3c0,0,0,0.1-0.1,0.1
				c-0.7,0.9-1.7,1.5-2.9,1.7l-33.2,4.3C826.4,211.8,825.8,211.8,825.3,211.6z"/>
		</g>
	</g>
	<g>
		<path fill="#5B5B5F" d="M973.4,296.5c-0.6-0.2-1.1-0.4-1.6-0.8l-78.5-60.3c-1.9-1.5-2.3-4.3-0.8-6.2c1.5-1.9,4.3-2.3,6.2-0.8
			l78.6,60.3c1.9,1.5,2.3,4.3,0.8,6.2C976.9,296.3,975.1,296.9,973.4,296.5z"/>
	</g>
	<g>
		<g>
			<path fill="#5B5B5F" d="M979.5,347.8c-1.7-0.4-3-1.8-3.3-3.7l-6.7-51.2c-0.1-0.3-0.2-0.6-0.2-1c-0.2-1.2,0.2-2.4,0.9-3.3
				c0,0,0-0.1,0.1-0.1c0.7-0.9,1.8-1.5,3-1.7l52.2-6.7c2.4-0.3,4.6,1.4,5,3.8c0.3,2.4-1.4,4.6-3.8,5l-47.8,6.3L985,343
				c0.3,2.4-1.4,4.6-3.8,5C980.6,348,980,348,979.5,347.8z"/>
		</g>
	</g>
	<g>
		<g>
			<path fill="#5B5B5F" d="M947.9,313.6c-1.7-0.4-3-1.8-3.3-3.7l-5.3-40c-0.1-0.3-0.1-0.6-0.2-0.9c-0.2-1.2,0.2-2.4,0.9-3.3
				c0,0,0-0.1,0.1-0.1c0.7-0.9,1.8-1.5,2.9-1.7l41-5.3c2.4-0.3,4.6,1.4,5,3.8c0.3,2.4-1.4,4.6-3.8,5l-36.6,4.8l4.8,36.6
				c0.3,2.4-1.4,4.6-3.8,5C949,313.8,948.4,313.7,947.9,313.6z"/>
		</g>
	</g>
	<g>
		<g>
			<path fill="#5B5B5F" d="M915.7,282c-1.7-0.4-3.1-1.8-3.3-3.7l-4.2-32.4c-0.1-0.3-0.2-0.5-0.2-0.8c-0.2-1.2,0.2-2.4,0.9-3.3
				c0,0,0-0.1,0.1-0.1c0.7-0.9,1.7-1.5,2.9-1.7l33.2-4.3c2.4-0.3,4.6,1.4,5,3.8c0.3,2.4-1.4,4.6-3.8,5l-28.8,3.8l3.8,28.8
				c0.3,2.4-1.4,4.6-3.8,5C916.8,282.2,916.2,282.2,915.7,282z"/>
		</g>
	</g>
	<g>
		<path fill="#5B5B5F" d="M773.5,241c-1.7-0.4-3-1.9-3.3-3.7c-0.3-2.4,1.4-4.6,3.8-5l98.2-12.9c2.4-0.3,4.6,1.4,5,3.8
			c0.3,2.4-1.4,4.7-3.8,5l-98.2,12.9C774.6,241.2,774,241.1,773.5,241z"/>
	</g>
	<g>
		<g>
			<path fill="#5B5B5F" d="M742.5,282.8c-0.5-0.1-1.1-0.4-1.6-0.8c-1.9-1.5-2.3-4.3-0.8-6.2l0,0l29.4-38.2l-38.3-29.4
				c-2-1.5-2.3-4.2-0.8-6.2c1.5-2,4.3-2.3,6.2-0.8l41,31.5c0.3,0.1,0.6,0.3,0.9,0.5c1,0.7,1.6,1.9,1.7,3c0,0,0,0,0,0.1
				c0.2,1.2-0.2,2.4-0.9,3.3l-32.2,41.7C746.1,282.7,744.2,283.3,742.5,282.8z"/>
		</g>
	</g>
	<g>
		<g>
			<path fill="#5B5B5F" d="M787,268.8c-0.6-0.1-1.1-0.4-1.6-0.8c-1.9-1.5-2.3-4.3-0.8-6.2l22.4-29.2l-29.2-22.5
				c-2-1.5-2.3-4.3-0.8-6.2c1.5-1.9,4.3-2.3,6.2-0.8l32,24.6c0.3,0.1,0.5,0.3,0.8,0.5c1,0.8,1.6,1.9,1.7,3c0,0,0,0,0,0
				c0.1,1.2-0.2,2.3-0.9,3.3l-25.2,32.7C790.5,268.6,788.7,269.2,787,268.8z"/>
		</g>
	</g>
	<g>
		<g>
			<path fill="#5B5B5F" d="M830.7,257.4c-0.6-0.1-1.1-0.4-1.6-0.8c-2-1.5-2.3-4.3-0.8-6.2l17.7-23.1l-23.1-17.7
				c-1.9-1.5-2.3-4.2-0.8-6.2c1.5-1.9,4.2-2.3,6.2-0.8l26,19.9c0.2,0.1,0.4,0.3,0.7,0.4c1,0.7,1.5,1.8,1.7,2.9c0,0,0,0.1,0,0.1
				c0.1,1.1-0.2,2.3-0.9,3.3l-20.5,26.5C834.1,257.2,832.3,257.8,830.7,257.4z"/>
		</g>
	</g>
	<g>
		<path fill="#5B5B5F" d="M897.2,225.5c-1.7-0.4-3-1.8-3.3-3.7c-0.3-2.4,1.4-4.6,3.8-5l98.2-12.9c2.4-0.3,4.6,1.4,5,3.8
			c0.3,2.4-1.4,4.6-3.8,5l-98.2,12.9C898.3,225.7,897.7,225.6,897.2,225.5z"/>
	</g>
	<g>
		<g>
			<path fill="#5B5B5F" d="M1036,244.7c-0.6-0.1-1.1-0.4-1.6-0.8l-41-31.5c-0.3-0.1-0.6-0.3-0.8-0.5c-1-0.7-1.6-1.8-1.7-3
				c0,0,0,0,0-0.1c-0.2-1.2,0.2-2.3,0.9-3.3l32.2-41.7c1.5-1.9,4.3-2.3,6.2-0.8c1.9,1.5,2.3,4.3,0.8,6.2l-29.4,38.3l38.3,29.4
				c1.9,1.5,2.3,4.3,0.8,6.2C1039.5,244.5,1037.7,245.1,1036,244.7z"/>
		</g>
	</g>
	<g>
		<g>
			<path fill="#5B5B5F" d="M989.5,242.8c-0.6-0.1-1.1-0.4-1.6-0.8l-32.1-24.6c-0.3-0.1-0.5-0.3-0.8-0.5c-1-0.7-1.5-1.8-1.7-2.9
				c0,0,0-0.1,0-0.1c-0.2-1.2,0.2-2.4,0.9-3.3l25.2-32.7c1.5-1.9,4.3-2.3,6.2-0.8c1.9,1.5,2.3,4.3,0.8,6.2L964,212.5l29.3,22.5
				c1.9,1.5,2.3,4.2,0.8,6.2C993,242.6,991.1,243.2,989.5,242.8z"/>
		</g>
	</g>
	<g>
		<g>
			<path fill="#5B5B5F" d="M944.4,243.2c-0.6-0.1-1.1-0.4-1.6-0.8l-25.9-19.9c-0.2-0.1-0.5-0.3-0.7-0.4c-1-0.7-1.5-1.8-1.7-2.9
				c0,0,0-0.1,0-0.1c-0.1-1.2,0.2-2.3,0.9-3.3l20.5-26.5c1.5-1.9,4.3-2.3,6.2-0.8c1.9,1.5,2.3,4.3,0.8,6.2l-17.7,23.1l23.1,17.7
				c2,1.5,2.3,4.3,0.8,6.2C947.9,243.1,946,243.7,944.4,243.2z"/>
		</g>
	</g>
</g>
<path fill="#5B5B5F" d="M394.8,309.9l2.7,8.8l22.1-6.9l-18.7,18.8l6.5,6.5l18.3-18.4l-6.7,21.6l8.7,2.7l11.8-38.3l12.5-12.6
	l-9.5,30.8l8.7,2.7l12.2-39.6l29.5-14.1l-1.5,3.5l-12.1,11.1l1.5,1.7l8.4-7.7l-3.8,9l-9.7,8.9l1.5,1.7l6-5.5l-3.8,9l2.1,0.9l4.3-10
	l0.6,7.9l2.3-0.2l-0.9-12.3l3.9-9.1l0.8,10.4l2.3-0.2l-1.1-14.8l1.4-3.3l10.7,30.2l-19.1,36.4l8.1,4.3l15.1-28.8v17.8l-18.7,35.8
	l8.1,4.3l10.6-20.3v27.4h9.1v-27.4l10.6,20.3l8.1-4.3L519,332.7v-17.8l15.1,28.8l8.1-4.3l-19-36.4l10.7-30.3l2.1,4.7l-0.5,16.6
	l2.3,0.1l0.3-11.8l3.8,8.6l-0.4,13.9l2.3,0.1l0.3-9.1l5.8,13.3l2.1-0.9l-5.6-12.8l5.4,4.5l1.5-1.8l-8.9-7.4l-4.1-9.4l7.8,6.5
	l1.5-1.8l-11.3-9.4l-2-4.5l27.9,13.4l12.4,40.3l8.7-2.7l-9.9-32.2l0.5,0.3l11.8,11.9l12.4,40.2l8.7-2.7l-7.2-23.5l20.1,20.3l6.5-6.5
	l-18.1-18.2l20.3,6.3l2.7-8.8L596,298.4l-12.5-12.6l29.3,9.1l2.7-8.8l-38.2-11.9l-14.2-30l4.3,1.6l10.9,11.4l1.6-1.6l-7.5-7.9
	l8.8,3.4l8.9,9.3l1.6-1.6l-5.6-5.8l13.6,5.2l0.8-2.2l-14.8-5.7l7.9-0.8l-0.2-2.3l-12.4,1.3l-9.5-3.6l10.8-1.1l-0.2-2.3l-15.3,1.6
	l-2.7-1l31.9-11.4l37.5,19.9l4.3-8.1l-28.6-15.2H627l35.5,18.9l4.3-8.1l-20.2-10.7h23.9v-9.2h-23.9l20.2-10.7l-4.3-8.1L627,218.1
	h-17.7l28.6-15.2l-4.3-8.1l-37.5,19.9L564,203.2l7.5-3.3l16.1,0.8l0.1-2.3l-11.6-0.6l8.2-3.6l14.2,0.7l0.1-2.3l-9.7-0.5l16.4-7.3
	l-0.9-2.1l-14.7,6.5l4.1-4.7l-1.7-1.5l-7.3,8.4l-9.8,4.4l6.6-7.7l-1.7-1.5l-9.8,11.4l-6.8,3l12.7-27l39.5-12.3l-2.7-8.8l-31.5,9.8
	l0.8-1.7l10.5-10.5l40.2-12.6l-2.7-8.8l-23.7,7.4l21.5-21.7l-6.5-6.5l-19.1,19.2l6.2-20.1l-8.7-2.7l-11.3,36.8l-12.5,12.6l9-29.2
	l-8.7-2.7l-11.5,37.5l-29.2,14l1.8-5.5l11.7-12.2l-1.6-1.6l-8.5,8.9l2.8-8.8l10.1-10.6l-1.6-1.6l-6.9,7.2l3.1-9.9l-2.2-0.7l-2.5,7.7
	l-0.9-6l-2.3,0.3l1.5,10.7l-3.2,10l-1.4-9.5l-2.3,0.3l2,14.2l-1.8,5.5l-10.6-30l19.1-36.6l-8.1-4.3L519,130.3v-17.8l18.7-35.8
	l-8.1-4.3L519,92.7v-27h-9.1v27l-10.6-20.3l-8.1,4.3l18.7,35.8v17.8l-15.1-28.8l-8.1,4.3l19.1,36.6L495,173l-1.9-3.8l-0.4-16.9
	l-2.3,0l0.3,12.2l-4.2-8.3l-0.3-14.4l-2.3,0l0.2,9.7l-5.7-11.2l-2,1l5,9.8l-5.1-3.8l-1.4,1.8l8.9,6.6l4.7,9.3l-7.8-5.8l-1.4,1.8
	l11.5,8.6l1.9,3.7l-26.7-12.8l-11.8-38.4l-8.7,2.7l9.3,30.3l-1.5-0.7l-10.6-10.7l-12-39l-8.7,2.7l6.9,22.4l-21.3-21.5l-6.5,6.5
	l20.8,21l-21.4-6.7l-2.7,8.8l38,11.9l11.2,11.2l0.5,1.1l-29.6-9.2l-2.7,8.8l37.7,11.8l13.1,27.8l-3.5-1.3l-11.8-11.7l-1.6,1.6
	l8.3,8.2l-9.1-3.3l-9.5-9.5l-1.6,1.6l6,6l-10.6-3.9l-0.8,2.2l11.2,4.1l-7.5,1l0.3,2.3l11.9-1.5l9.3,3.4l-10.1,1.3l0.3,2.3l14.4-1.9
	l3.3,1.2l-31.1,11.1l-37.1-19.7l-4.3,8.1l28.6,15.2H403l-35.5-18.9l-4.3,8.1l20.2,10.7h-25v9.2h25l-20.2,10.7l4.3,8.1l35.5-18.9
	h17.7l-28.6,15.2l4.3,8.1l37.1-19.7l32.1,11.5l-2.1,0.9l-18.3,0.3l0,2.3l12.6-0.2l-9.9,4.2l-13.1,0.2l0,2.3l7.5-0.1l-8.6,3.7
	l0.9,2.1l10.5-4.5l-4.9,6.6l1.8,1.4l7.3-9.8l8.4-3.6l-5.6,7.5l1.8,1.4l8-10.7l3.4-1.5l-13.5,28.6l-39.7,12.4l2.7,8.8l31.2-9.7
	l-12.5,12.6L394.8,309.9z M509.9,271.8l-7.2-20.4l-19.5,9.3l26.7-26.9V271.8z M519,233.8l26.7,26.9l-19.5-9.3l-7.2,20.5V233.8z
	 M525.5,227.3h37.7l-20.3,7.3l9.2,19.6L525.5,227.3z M525.5,218.1l26.7-26.9l-9.2,19.6l20.3,7.3H525.5z M519,211.6v-38l7.2,20.5
	l19.5-9.3L519,211.6z M509.9,211.6l-26.7-26.9l19.5,9.3l7.2-20.4V211.6z M503.4,218.1h-37.7l20.3-7.3l-9.3-19.6L503.4,218.1z
	 M503.4,227.3l-26.7,26.9l9.3-19.6l-20.3-7.3H503.4z M495.9,268L464.4,283l1.1-3.7l32-15.3l11.6,32.7l-1.8,3.4L495.9,268z
	 M533.1,268l-11.4,32.2l-1.8-3.4l11.6-32.7l30.4,14.6l1.1,3.7L533.1,268z M559.4,241.5l15,31.8l-3.6-1.1l-15.2-32.3l34.5-12.3
	l3.4,1.8L559.4,241.5z M559.4,204l34,12.2L590,218l-34.5-12.4l13.9-29.5l3.6-1.1L559.4,204z M533.1,177.5l30.8-14.7l-1.1,3.7
	l-31.3,15l-11.6-33l1.8-3.4L533.1,177.5z M495.9,177.5l11.5-32.5l1.8,3.4l-11.6,33L468,167.3l-1.1-3.7L495.9,177.5z M469.6,204
	l-14-29.6l3.6,1.1l14.2,30.1l-33.8,12.1l-3.4-1.8L469.6,204z M469.6,241.5l-33.3-11.9l3.4-1.8l33.8,12.1l-15,31.8l-3.6,1.1
	L469.6,241.5z"/>
<g>
	<g id="Layer_3_6_">
		<path fill="#5B5B5F" d="M604.6,835.3l-31.6-9.2l-11.9-21.7l34.9,10.2c3.7,1.1,7.5-1,8.6-4.7c1.1-3.7-1-7.6-4.7-8.6l-48.2-14.1
			l-10.2-18.6c-0.3-0.6-0.8-1.2-1.3-1.7l21.1,2.8c2.7,0.4,5.4-0.9,6.9-3.3c1.4-2.4,1.3-5.3-0.2-7.6l-12.2-17.5
			c0.7,0.2,1.4,0.4,2.1,0.4l21.2,0.5l34.7,36.3c0.4,0.5,0.9,0.8,1.4,1.1c2.6,1.6,6.1,1.3,8.4-0.9c2.8-2.7,2.9-7.1,0.2-9.8
			l-25.1-26.2l24.7,0.5l22.7,23.7c0.4,0.5,0.9,0.8,1.4,1.1c2.6,1.6,6.1,1.3,8.4-0.9c2.8-2.7,2.9-7.1,0.2-9.8l-13.1-13.7l20.3,0.4
			c3.8,0.1,7-3,7.1-6.8c0.1-3.8-3-7-6.8-7.1l-20.3-0.4l13.7-13.1c2.8-2.7,2.9-7.1,0.2-9.8c-2.7-2.8-7.1-2.9-9.8-0.2l-23.7,22.7
			l-24.7-0.5l26.2-25.1c2.8-2.7,2.9-7.1,0.2-9.8c-2.7-2.8-7.1-2.9-9.8-0.2l-36.3,34.7l-21.2-0.5c-0.7,0-1.4,0.1-2,0.3l13-16.9
			c1.7-2.2,1.9-5.2,0.6-7.6c-1.3-2.4-4-3.8-6.7-3.6l-21.3,1.8c0.5-0.5,1-1,1.4-1.6l11-18.1l48.8-11.9c3.7-0.9,6-4.7,5.1-8.4
			c-0.9-3.7-4.7-6-8.4-5.1l-35.3,8.6l12.8-21.1l31.9-7.8c3.7-0.9,6-4.7,5.1-8.4c-0.9-3.7-4.7-6-8.4-5.1l-18.4,4.5l10.5-17.3
			c2-3.3,0.9-7.6-2.3-9.6c-3.3-2-7.6-0.9-9.6,2.3L575.3,620l-4.5-18.4c-0.9-3.7-4.7-6-8.4-5.1c-3.7,0.9-6,4.7-5.1,8.4l7.8,31.9
			L552.3,658l-8.6-35.3c-0.9-3.7-4.7-6-8.4-5.1c-3.7,0.9-6,4.7-5.1,8.4l11.9,48.8l-11,18.1c-0.4,0.6-0.6,1.2-0.8,1.9l-8.2-19.7
			c-1.1-2.5-3.5-4.2-6.3-4.3c-2.8-0.1-5.3,1.5-6.5,4l-9.1,19.4c-0.1-0.7-0.4-1.4-0.7-2l-10.2-18.6l14.1-48.2c1.1-3.7-1-7.5-4.7-8.6
			c-3.7-1.1-7.5,1-8.6,4.7L480,656.4l-11.9-21.7l9.2-31.6c1.1-3.7-1-7.6-4.7-8.6c-3.7-1.1-7.5,1-8.6,4.7l-5.3,18.2l-9.8-17.8
			c-1.8-3.4-6.1-4.6-9.4-2.8c-3.4,1.8-4.6,6.1-2.8,9.4l9.8,17.8l-18.2-5.3c-3.7-1.1-7.5,1-8.6,4.7c-0.9,3.1,0.4,6.3,3.1,7.9
			c0.5,0.3,1.1,0.6,1.7,0.7l31.6,9.2l11.9,21.7l-34.9-10.2c-3.7-1.1-7.5,1-8.6,4.7c-0.9,3.1,0.4,6.3,3.1,7.9
			c0.5,0.3,1.1,0.6,1.7,0.7l48.2,14.1l10.2,18.6c0.3,0.6,0.8,1.2,1.2,1.6l-21.1-2.8c-2.7-0.4-5.4,0.9-6.9,3.3
			c-1.4,2.4-1.3,5.3,0.2,7.6l12.3,17.6c-0.7-0.2-1.4-0.4-2.1-0.4l-21.2-0.5l-34.7-36.3c-2.7-2.8-7.1-2.9-9.8-0.2
			c-2.8,2.7-2.9,7.1-0.2,9.8l25.1,26.2l-24.7-0.5l-22.7-23.7c-2.7-2.8-7.1-2.9-9.8-0.2c-2.8,2.7-2.9,7.1-0.2,9.8l13.1,13.7
			l-20.3-0.4c-3.8-0.1-7,3-7.1,6.8c-0.1,2.6,1.3,4.9,3.4,6.1c1,0.6,2.2,1,3.5,1l20.3,0.4L371.8,751c-2.8,2.7-2.9,7.1-0.2,9.8
			c0.4,0.4,0.9,0.8,1.4,1.1c2.6,1.6,6.1,1.3,8.4-0.9l23.7-22.7l24.7,0.5L403.7,764c-2.8,2.7-2.9,7.1-0.2,9.8
			c0.4,0.4,0.9,0.8,1.4,1.1c2.6,1.6,6.1,1.3,8.4-0.9l36.3-34.7l21.2,0.5c0.7,0,1.4-0.1,2-0.3l-13,16.9c-1.7,2.2-1.9,5.2-0.6,7.6
			c1.3,2.4,4,3.8,6.7,3.6l21.3-1.8c-0.5,0.5-1,1-1.4,1.6l-11,18.1l-48.8,11.9c-3.7,0.9-6,4.7-5.1,8.4c0.5,1.9,1.6,3.4,3.1,4.3
			c1.5,0.9,3.4,1.3,5.3,0.8l35.3-8.6l-12.8,21.1l-31.9,7.8c-3.7,0.9-6,4.7-5.1,8.4c0.5,1.9,1.6,3.4,3.1,4.3c1.5,0.9,3.4,1.3,5.3,0.8
			l18.4-4.5l-10.5,17.3c-2,3.3-0.9,7.6,2.3,9.6c3.3,2,7.6,0.9,9.6-2.3l10.5-17.3l4.5,18.4c0.9,3.7,4.7,6,8.4,5.1
			c3.7-0.9,6-4.7,5.1-8.4l-7.8-31.9l12.8-21.1l8.6,35.3c0.9,3.7,4.7,6,8.4,5.1c3.7-0.9,6-4.7,5.1-8.4l-11.9-48.8l11-18.1
			c0.4-0.6,0.6-1.3,0.8-1.9l8.2,19.7c0.6,1.4,1.6,2.5,2.8,3.3c1,0.6,2.2,1,3.5,1c2.8,0.1,5.3-1.5,6.5-4l9.1-19.4
			c0.1,0.7,0.4,1.4,0.7,2l10.2,18.6l-14.1,48.2c-0.9,3.1,0.4,6.3,3.1,7.9c0.5,0.3,1.1,0.6,1.7,0.7c3.7,1.1,7.5-1,8.6-4.7l10.2-34.9
			l11.9,21.7l-9.2,31.6c-0.9,3.1,0.4,6.3,3.1,7.9c0.5,0.3,1.1,0.6,1.7,0.7c3.7,1.1,7.5-1,8.6-4.7l5.3-18.2l9.8,17.8
			c0.6,1.1,1.5,2,2.5,2.6c2.1,1.2,4.7,1.4,7,0.2c3.4-1.8,4.6-6.1,2.8-9.4l-9.8-17.8l18.2,5.3c3.7,1.1,7.5-1,8.6-4.7
			C610.4,840.2,608.3,836.3,604.6,835.3z M528.8,751.4c-3-0.4-5.9,1.2-7.2,3.9l-8,17.1l-7.2-17.5c-0.6-1.4-1.6-2.5-2.8-3.3
			c-1.2-0.7-2.7-1.1-4.2-1l-18.8,1.6l11.5-15c1.8-2.4,1.9-5.7,0.2-8.2l-10.8-15.5l18.7,2.5c3,0.4,5.9-1.2,7.2-3.9l8-17.1l7.2,17.5
			c1.2,2.8,4,4.5,7,4.3l18.8-1.6l-11.5,15c-1.8,2.4-1.9,5.7-0.2,8.2l10.8,15.5L528.8,751.4z"/>
	</g>
</g>
<path fill="#5B5B5F" d="M734.1,665.7l-4.6,11.2l18.9,7.7l-15.2,11.8l9,8.2l18.9-14.7l9.9,4l-21.9,17l9,8l25.6-19.8l35.3,14.3
	l-18.5,9.9l15.6,14.2l-17.6,2.4l-24.2-22l-9.4,7.3l18.5,16.8l-14,2l1.6,11.8l13.9-1.9L772,774.9l11.1,4.5l17.3-27.7l17.6-2.4
	L806.7,767l20.5,4.5l-30.1,23.4l-30.1-12.1l-6.5,10.1l25.7,10.4l-8.4,6.5l-22.2-9l-6.5,10.3l17.8,7.2l-16.1,12.5l7.4,9.5l16.1-12.5
	l2.6,19l11.6-3.7l-3.3-23.7l8.4-6.5l3.7,27.5l11.4-3.8l-4.3-32.1l30.1-23.4l-0.7,21l20.1-6.4l-6.7,16.4l-31.2,9.9l1.6,11.8l23.8-7.6
	l-5.3,13.1l11,4.5l5.3-13l11.8,22l9.4-7.3l-15.4-28.8l6.7-16.4l9.9,18.6l14.1-15.5l5.2,37.7l-25.5,20l5.5,10.7l21.8-17.1l1.5,10.5
	l-18.9,14.7l5.7,10.7l15.1-11.8l2.8,20.2l12-1.6l-2.8-20.2l17.8,7.2l2.5-11.9l-22.2-9l-1.5-10.5l25.7,10.5l2.4-11.8l-30-12.3
	l-5.3-37.7l17.8,11.1l4.5-20.6l10.9,14l-7,32l11.1,4.5l5.3-24.4l8.7,11.1l9.4-7.3l-8.7-11.1l24.9,0.8l-1.6-11.8l-32.7-1.1l-10.9-14
	l21,0.7l-6.4-20l35.3,14.3l4.6,32l12,0.6l-3.9-27.5l9.9,4l3.3,23.7l12.2,0.5l-2.7-19l18.9,7.7l4.6-11.2l-18.9-7.7l15.2-11.8l-9-8.2
	l-18.9,14.7l-9.9-4l21.9-17l-9-8l-25.6,19.8l-35.3-14.3l18.5-9.9l-15.6-14.2l17.6-2.4l24.2,22l9.4-7.3l-18.4-16.8l14-1.9l-1.6-11.8
	l-13.9,1.9l13.2-21.2l-11.1-4.5l-17.2,27.7l-17.6,2.4l11.1-17.9l-20.5-4.5l30.1-23.4l30.1,12.1l6.5-10.1l-25.7-10.4l8.4-6.5l22.2,9
	l6.5-10.3l-17.8-7.2l16.1-12.5l-7.4-9.6l-16.1,12.5l-2.6-19l-11.6,3.7l3.3,23.7l-8.4,6.6l-3.7-27.5l-11.4,3.8l4.3,32.1l-30,23.4
	l0.7-21l-20.1,6.4l6.7-16.4l31.2-9.9l-1.6-11.8l-23.8,7.6l5.3-13.1l-11.1-4.5l-5.3,13l-11.8-22l-9.4,7.3l15.4,28.8l-6.7,16.4
	l-9.9-18.5L882,664.4l-5.2-37.7l25.4-20l-5.5-10.7l-21.8,17.1l-1.5-10.6l18.9-14.7l-5.7-10.8l-15.1,11.8l-2.8-20.2l-12,1.6l2.8,20.2
	l-17.8-7.2l-2.5,11.9l22.2,9l1.5,10.6l-25.7-10.5l-2.4,11.8l30,12.3l5.3,37.7l-17.8-11.1l-4.5,20.6l-10.9-14l7-32l-11-4.5l-5.3,24.4
	l-8.7-11.1l-9.4,7.3l8.6,11.1l-24.9-0.8l1.7,11.8l32.7,1.1l10.9,14l-21-0.7l6.4,20l-35.3-14.3l-4.6-32l-12-0.6l3.9,27.4l-9.9-4
	l-3.3-23.7l-12.1-0.4l2.7,19L734.1,665.7z M867.2,719.8l-29.3-11.9l-4.3-13.5l14.2,0.5L867.2,719.8z M876.6,712.6l-19.4-25l3-13.9
	l12,7.5L876.6,712.6z M924.9,681.8l-0.5,14.1l-25,19.5l11.9-29.3L924.9,681.8z M945.6,708.4l-7.5,12l-31.3,4.3l25-19.4L945.6,708.4z
	 M937.7,748.5l-29.4-11.9l31.3-4.3l10.5,9.6L937.7,748.5z M903.9,747.7l29.3,11.9l4.3,13.5l-14.2-0.5L903.9,747.7z M894.5,754.9
	l19.4,25l-3,13.9l-12-7.5L894.5,754.9z M888.4,710.9l-4.3-31.3l9.5-10.5l6.7,12.5L888.4,710.9z M870.8,785.9l11.9-29.3l4.3,31.3
	l-9.5,10.5L870.8,785.9z M846.2,785.7l0.5-14.1l25-19.5l-11.9,29.3L846.2,785.7z M825.5,759.1l7.5-12l31.3-4.3l-25,19.4L825.5,759.1
	z M820.8,725.7l12.5-6.7l29.4,11.9l-31.3,4.4L820.8,725.7z"/>
<path fill="#5B5B5F" d="M1125.6,658.1c0.1,1.3,1.2,2.4,2.5,2.3l2.4-0.1l22.2-0.9l11.9-0.5l11.9-0.5l5,8.5l6.1,10.3l1.9,3.2l-7.8,0.2
	l-9.9,0.2c-1,0-1.8,0.6-2.2,1.4c-0.2,0.1-0.3,0.3-0.4,0.5c-0.6,0.6-0.9,1.4-0.7,2.3l0.2,0.6l5.2,17.5l0.1,0.3l-16.4-9.1l-12.2-6.8
	l-0.9-0.5l0.9-0.4l1.6-0.7c0.5-0.2,0.9-0.6,1.1-1c0.2-0.4,0.3-0.8,0.3-1.2c0-1-0.6-1.8-1.5-2.2l-5.3-2.3l0.5-5.1l0.1-0.6
	c0.1-1-0.4-1.9-1.2-2.3c-0.8-0.5-1.9-0.4-2.6,0.2l-2.5,1.9l-2.1,1.6l-3.4-2.4l-1.3-1c-0.8-0.6-1.8-0.6-2.7-0.1
	c-0.2,0.1-0.3,0.3-0.4,0.4c-0.5,0.5-0.9,1.2-0.8,2l0.7,5.8l-5.3,2.4c-0.5,0.2-0.8,0.6-1.1,1c-0.2,0.4-0.4,0.8-0.4,1.2
	c0,1,0.6,1.8,1.5,2.2l5.3,2.3l-0.6,5.8c-0.1,1,0.4,1.9,1.2,2.4c0.8,0.5,1.9,0.4,2.7-0.2l1.1-0.8l3.6-2.7l0.9,0.6l3.8,2.8
	c0.8,0.6,1.8,0.6,2.6,0.1c0.8-0.5,1.3-1.4,1.2-2.4l-0.3-2.8l10.6,5.9l19.6,10.9l-19.5,5.1c-0.8,0.2-1.4,0.9-1.7,1.7
	c-0.1,0.4-0.2,0.9-0.1,1.3c0,0.1,0.1,0.3,0.2,0.4c0.1,0.2,0.1,0.4,0.2,0.6l3.5,6l5.4,9.2l-4.1,0l-21.4,0.3l-5.1-9.1l-7.3-13.1
	l-4.2-7.5l-7-12.6c-0.7-1.2-2.1-1.6-3.3-0.9c-1.2,0.6-1.6,2.1-0.9,3.3l7,12.6l2.3,4.2l7.3,13.1l5.6,10.1l-4.3,0.1l-7.5,0.1l-15-27
	c-0.7-1.2-2.1-1.6-3.3-0.9c-1.2,0.7-1.6,2.1-0.9,3.3l13.7,24.6l-1.8,0l-3.7,0l-4.7,0.1c-0.6-4.2-2.7-8-5.8-10.6
	c-3-2.6-7-4.2-11.3-4.1c-1.9,0-3.7,0.4-5.3,1c-5.4,1.9-9.5,6.3-10.9,11.8c-0.4,1.4-0.6,2.9-0.6,4.5c0,0.1,0,0.2,0,0.3
	c0,0.1,0,0.2,0,0.3c0,2.8,0.8,5.4,2.1,7.8c2.9,5.5,8.6,9.2,15.2,9.1c2.3,0,4.5-0.6,6.5-1.4c5.5-2.4,9.5-7.6,10.2-13.8l3.9-0.1
	l6.3-0.1l-5.4,10.4l-3.3,6.3l-4.4,8.3c-0.4,0.8-0.3,1.7,0.1,2.4c0.2,0.4,0.5,0.7,0.9,0.9c1.2,0.6,2.7,0.2,3.3-1l7.6-14.4l5.2-9.9
	l1.6-3l11-0.1l0.8,0l-0.3,0.6l-6.2,11.8l-3.1,6l-7.6,14.5l-4.1,7.7c-0.6,1.2-0.2,2.7,1,3.3c1.2,0.6,2.7,0.2,3.3-1l5.4-10.3l6.1-11.7
	l2.3-4.3l6.1-11.6l2.6-5l25.5-0.3l-8.5,15.5c-0.5,0.8-0.4,1.8,0.1,2.6c0,1.1,0.8,2,1.9,2.3l18.6,4.4l-28.9,17.3l0.3-2.7
	c0.1-0.5-0.1-1-0.3-1.5c-0.2-0.4-0.5-0.7-0.9-0.9c-0.8-0.5-1.9-0.4-2.6,0.2l-4.6,3.5l-4.7-3.4c-0.5-0.4-1.1-0.4-1.7-0.4
	c-0.3,0-0.7,0.1-1,0.2c-0.8,0.5-1.3,1.4-1.2,2.4l0.7,5.8l-5.3,2.4c-0.9,0.4-1.4,1.3-1.4,2.2c0,1,0.6,1.8,1.5,2.2l5.3,2.3l-0.6,5.8
	c-0.1,1,0.4,1.9,1.2,2.4c0.8,0.5,1.9,0.4,2.6-0.2l4.6-3.5l1.9,1.3l2.8,2c0.8,0.6,1.8,0.6,2.6,0.1c0.8-0.5,1.3-1.4,1.2-2.4l-0.7-5.8
	l5.3-2.4c0.9-0.4,1.4-1.3,1.4-2.2c0-1-0.6-1.8-1.5-2.2l-2.6-1.1l29.6-17.8l-5.3,19.4c-0.3,1.3,0.4,2.6,1.7,3c0.1,0,0.3,0.1,0.4,0.1
	c0.2,0,0.4,0.1,0.6,0.1l17.7-0.1l-12.5,22.2l-48.5-0.7c-0.3,0-0.6,0.1-0.8,0.1c-0.4,0.1-0.7,0.4-1,0.7c-0.4,0.4-0.6,1-0.6,1.6
	c0,1.3,1,2.4,2.4,2.5l12.8,0.2l7.4,0.1l25.7,0.4l-5.7,10.2l-21.5-0.3l-9.3-0.1c-1.3,0-2.5,1-2.5,2.4c0,1.4,1,2.4,2.4,2.5l1.1,0
	l27.1,0.4l-5,8.9c-7.9-3.2-17.1-0.2-21.4,7.4c-2.6,4.6-2.7,9.9-0.9,14.5c1.4,3.6,3.9,6.7,7.5,8.7c0.1,0.1,0.2,0.1,0.3,0.2
	c0.1,0.1,0.2,0.1,0.3,0.2c0,0,0,0,0,0c8.2,4.6,18.6,1.6,23.2-6.6c1.4-2.5,2.1-5.3,2.1-8c0.1-4.2-1.3-8.2-4.1-11.4
	c-0.8-1-1.7-1.9-2.8-2.7l5-8.9l4.8,7.6l6.4,10.1l3.9,6.2c0.7,1.1,2.2,1.5,3.4,0.8c1.1-0.7,1.5-2.2,0.7-3.3l-4.1-6.6l-5.8-9.2
	l-6.5-10.3l5.7-10.3l24.5,38.8c0.7,1.1,2.2,1.5,3.3,0.8c1.1-0.7,1.5-2.2,0.8-3.3l-25.9-41l12.5-22.2l9.1,15.1
	c0.5,0.8,1.4,1.2,2.3,1.2c0.9,0.5,2.1,0.3,2.9-0.5l13.1-13.9l0.6,33.7l-2.2-1.6c-0.4-0.3-0.9-0.5-1.5-0.5c-0.4,0-0.8,0.1-1.2,0.3
	c-0.8,0.5-1.3,1.4-1.2,2.4l0.7,5.7l-5.3,2.4c-0.9,0.4-1.4,1.3-1.4,2.2c0,1,0.6,1.8,1.5,2.2l5.3,2.3l-0.6,5.8c-0.1,1,0.4,1.9,1.2,2.4
	c0.8,0.5,1.9,0.4,2.6-0.2l4.6-3.5l4.7,3.4c0.8,0.6,1.8,0.6,2.6,0.1c0.8-0.5,1.3-1.4,1.2-2.4l-0.7-5.8l5.3-2.4
	c0.9-0.4,1.4-1.3,1.4-2.2c0-1-0.6-1.8-1.5-2.2l-5.3-2.3l0.6-5.8c0.1-1-0.4-1.9-1.2-2.3c-0.8-0.5-1.9-0.4-2.7,0.2l-2.3,1.7l-0.6-34.5
	l14.2,14.3c0.9,0.9,2.5,0.9,3.4,0c0.1-0.1,0.2-0.2,0.3-0.3c0.1-0.1,0.3-0.3,0.4-0.5l8.8-15.4l13,21.9l-24.9,41.6
	c-0.7,1.1-0.3,2.6,0.8,3.3c1.1,0.7,2.6,0.3,3.3-0.8l23.6-39.4l6,10.1l-15.8,26.5c-0.7,1.2-0.3,2.6,0.8,3.3c1.2,0.7,2.6,0.3,3.3-0.8
	l14.5-24.2l5.2,8.8c-6.7,5.2-8.7,14.7-4.2,22.2c4.8,8.1,15.3,10.8,23.4,6c0.1-0.1,0.2-0.1,0.3-0.2c0.1-0.1,0.2-0.1,0.3-0.2
	c8.1-4.8,10.8-15.3,6-23.4c-4.4-7.5-13.7-10.3-21.5-6.9l-5.2-8.8l28.2-1.1c1.3-0.1,2.4-1.2,2.3-2.5c0-1.3-1.2-2.4-2.5-2.3l-30.8,1.2
	l-6-10.1l45.8-1.8c1.3,0,2.4-1.2,2.3-2.5c-0.1-1.3-1.2-2.4-2.5-2.3l-48.5,1.9l-13-21.9l17.7-0.3c1,0,1.8-0.6,2.1-1.4
	c0.9-0.6,1.4-1.7,1.1-2.8l-5.5-18.3l29.5,16.4l-2.5,1.1c-0.5,0.2-0.9,0.6-1.1,1c-0.2,0.4-0.3,0.8-0.3,1.2c0,1,0.6,1.8,1.5,2.2
	l5.3,2.3l-0.6,5.8c-0.1,1,0.4,1.9,1.2,2.4c0.8,0.5,1.9,0.4,2.6-0.2l4.6-3.5l4.7,3.4c0.8,0.6,1.8,0.6,2.6,0.1
	c0.8-0.5,1.3-1.4,1.2-2.4l-0.7-5.8l5.3-2.4c0.9-0.4,1.4-1.3,1.4-2.2c0-1-0.6-1.8-1.5-2.2l-5.3-2.3l0.6-5.8c0.1-1-0.4-1.9-1.2-2.3
	c-0.8-0.5-1.9-0.4-2.6,0.2l-4.7,3.5l-4.7-3.4c-0.8-0.6-1.8-0.6-2.7-0.1c-0.8,0.5-1.3,1.4-1.2,2.4l0.3,2.8l-30.2-16.8l19.5-5.1
	c1.3-0.3,2.1-1.7,1.7-3c0-0.2-0.1-0.3-0.2-0.4c0-0.2-0.1-0.4-0.2-0.6l-8.9-15.3l25.5-0.3l23.6,42.4c0.7,1.2,2.1,1.6,3.3,1
	c1.2-0.7,1.6-2.1,0.9-3.3l-22.3-40.1l11.7-0.1l15,26.9c0.6,1.2,2.1,1.6,3.3,0.9c1.2-0.7,1.6-2.1,0.9-3.3l-13.7-24.7l10.2-0.1
	c1.1,8.4,8.4,14.9,17.1,14.8c5.5-0.1,10.2-2.7,13.3-6.8c2.2-2.9,3.6-6.5,3.5-10.5c0-0.1,0-0.2,0-0.3c0-0.1,0-0.2,0-0.3
	c0-1.8-0.4-3.5-0.9-5.1c-1.2-3.7-3.6-6.9-6.9-9c-2.7-1.8-6-2.8-9.5-2.8c-2.3,0-4.5,0.6-6.5,1.4c-5.5,2.4-9.5,7.6-10.2,13.8
	l-10.2,0.1l12.7-24.1l0.5-0.9c0.6-1.2,0.2-2.7-1-3.3c-0.4-0.2-0.8-0.3-1.3-0.2c-0.8,0.1-1.6,0.5-2,1.3l-14.3,27.3l-11.7,0.1
	l21.3-40.6c0.6-1.2,0.2-2.7-1-3.3c-1.2-0.6-2.6-0.2-3.3,1l-22.5,42.9l-25.5,0.3l8.5-15.5c0.5-0.8,0.4-1.8-0.2-2.6
	c0-1.1-0.8-2-1.9-2.3l-18.6-4.4l28.9-17.3l-0.3,2.7c0,0.5,0.1,1,0.3,1.5c0.2,0.4,0.5,0.7,0.9,0.9c0.8,0.5,1.9,0.4,2.6-0.2l4.6-3.5
	l4.7,3.4c0.8,0.6,1.8,0.6,2.6,0.1c0.8-0.5,1.3-1.4,1.2-2.4l-0.7-5.7l5.3-2.4c0.9-0.4,1.4-1.3,1.4-2.2c0-1-0.6-1.8-1.5-2.2l-5.3-2.3
	l0.6-5.8c0.1-1-0.4-1.9-1.2-2.4c-0.8-0.5-1.9-0.4-2.6,0.2l-4.6,3.5l-4.7-3.4c-0.8-0.6-1.8-0.6-2.6-0.1c-0.8,0.5-1.3,1.4-1.2,2.4
	l0.7,5.8l-5.3,2.4c-0.9,0.4-1.4,1.3-1.4,2.2c0,1,0.6,1.8,1.5,2.2l2.6,1.1l-29.6,17.8l5.3-19.4c0.4-1.3-0.4-2.6-1.7-3
	c-0.1,0-0.3-0.1-0.4-0.1c-0.2,0-0.4-0.1-0.6-0.1l-17.7,0.1l12.5-22.2l48.5,0.8c1.3,0,2.4-1.1,2.5-2.4c0-1.3-1-2.4-2.4-2.5l-45.9-0.7
	l5.7-10.3l30.8,0.5c1.3,0,2.4-1.1,2.5-2.4c0-1.3-1-2.4-2.4-2.5l-28.2-0.4l5-8.9c7.9,3.2,17.1,0.2,21.4-7.4
	c4.6-8.2,1.7-18.6-6.5-23.3c-0.1-0.1-0.2-0.1-0.3-0.1c-0.1-0.1-0.2-0.1-0.3-0.2c-8.2-4.6-18.6-1.7-23.2,6.5
	c-4.3,7.6-2.1,17.1,4.8,22.1l-5,8.9l-15.1-23.9c-0.7-1.1-2.2-1.5-3.3-0.7c-1.1,0.7-1.5,2.2-0.7,3.3l16.5,26.1l-5.7,10.2l-24.5-38.8
	c-0.7-1.1-2.2-1.5-3.3-0.7c-1.1,0.7-1.5,2.2-0.8,3.3l25.9,41l-12.5,22.2L1244,662c-0.5-0.8-1.4-1.3-2.3-1.2
	c-0.9-0.5-2.1-0.4-2.9,0.5l-13.1,13.9l-0.6-33.7l2.2,1.6c0.4,0.3,0.9,0.5,1.4,0.4c0.4,0,0.8-0.1,1.2-0.3c0.8-0.5,1.3-1.4,1.2-2.4
	l-0.7-5.8l5.3-2.4c0.9-0.4,1.4-1.3,1.4-2.2c0-1-0.6-1.8-1.5-2.2l-5.3-2.3l0.6-5.8c0.1-1-0.4-1.9-1.2-2.4c-0.8-0.5-1.9-0.4-2.6,0.2
	l-4.6,3.5l-4.7-3.4c-0.8-0.6-1.8-0.6-2.6-0.1c-0.8,0.5-1.3,1.4-1.2,2.4l0.7,5.8l-5.3,2.4c-0.9,0.4-1.4,1.3-1.4,2.2
	c0,1,0.6,1.8,1.5,2.2l5.3,2.3l-0.6,5.8c-0.1,1,0.4,1.9,1.2,2.4c0.8,0.5,1.9,0.4,2.6-0.2l2.3-1.7l0.6,34.5l-14.2-14.3
	c-0.9-1-2.5-1-3.4,0c-0.1,0.1-0.2,0.2-0.3,0.3c-0.1,0.1-0.3,0.3-0.4,0.5l-8.8,15.3l-1.8-3.1l-6.1-10.3l-5.1-8.6l24.9-41.6
	c0.7-1.1,0.3-2.6-0.8-3.3c-1.1-0.7-2.6-0.3-3.3,0.8l-23.5,39.4l-6-10.1l15.8-26.5c0.7-1.2,0.3-2.6-0.8-3.3c-1.1-0.7-2.6-0.3-3.3,0.8
	l-14.5,24.2l-5.2-8.8c6.7-5.2,8.7-14.7,4.2-22.2c-4.8-8.1-15.3-10.8-23.4-6c-0.1,0.1-0.2,0.1-0.3,0.2c-0.1,0.1-0.2,0.1-0.3,0.1
	c-8.1,4.8-10.8,15.3-6,23.4c4.5,7.5,13.7,10.3,21.5,6.9l5.2,8.8l-28.2,1.1c-1.3,0.1-2.4,1.2-2.3,2.5c0,1.3,1.2,2.4,2.5,2.3l16.1-0.6
	l11.3-0.5l3.4-0.1l6,10.1l-9.1,0.4l-11.9,0.5l-22.2,0.9l-2.6,0.1C1126.6,655.6,1125.6,656.7,1125.6,658.1z M1093,744.5
	c-2.1,1.7-4.7,2.8-7.6,2.9c-4.6,0.1-8.5-2.4-10.7-6.1c-1-1.7-1.6-3.6-1.7-5.6c0.1-6.6,5.4-12,12.1-12c4.3,0,8,2.1,10.2,5.4
	c1.2,1.8,2,4,2.1,6.4C1097.3,739,1095.6,742.3,1093,744.5z M1167.3,859c-0.2,0.6-0.4,1.2-0.8,1.7c-2.6,4.6-7.8,6.8-12.7,6
	c-1.2-0.2-2.5-0.6-3.6-1.2c-2.8-1.7-4.7-4.4-5.5-7.3c-0.8-3-0.5-6.2,1.1-9.1c3.2-5.8,10.5-7.9,16.3-4.8c1.1,0.6,2,1.4,2.7,2.3
	C1167.9,849.9,1168.8,854.7,1167.3,859z M1288.8,842.7c5.7-3.2,13.1-1.3,16.5,4.4c3.4,5.7,1.6,13-4,16.5c-5.7,3.2-13.1,1.3-16.4-4.4
	C1281.5,853.6,1283.3,846.3,1288.8,842.7z M1359.8,720.6c1-0.3,2-0.5,3.1-0.5c6.6-0.1,12.1,5.2,12.3,11.7c0,2.4-0.8,4.6-2,6.4
	c-2.1,3.3-5.8,5.6-10.1,5.6c-6.6,0.1-12.1-5.1-12.3-11.7C1350.9,726.7,1354.7,722.1,1359.8,720.6z M1281.7,606.8
	c3.2-5.8,10.5-7.9,16.3-4.8c5.7,3.4,7.6,10.7,4.4,16.5c-3.2,5.8-10.5,7.9-16.3,4.8C1280.5,619.8,1278.5,612.5,1281.7,606.8z
	 M1159,719.8l-1.7-3l21.3-5.6l25.1,14l-14.5,6.6l-9.9,0.1l-13.1,0.2L1159,719.8z M1157.3,753.1l8.5-15.4l0.5-0.8l20.5-0.3l2.7,0
	l14.7,6.3l-25.4,15.2L1157.3,753.1z M1193.6,783.1l-17.7,0.1l5.8-21.3l24.7-14.8l-1.5,15.9L1193.6,783.1z M1207.4,801.3l-9.6-15.8
	l11.3-20.2l12.8-9.6l0.5,29.6L1207.4,801.3z M1242.9,800.1l-15.5-15.7l-0.5-28.8l13,9.3l11.8,19.8L1242.9,800.1z M1274.3,782
	l-18.5,0.4l-11.8-19.9l-1.9-15.9l25.9,14.4L1274.3,782z M1291,750.7l-21.3,5.6l-25.1-14l14.6-6.6l23-0.3L1291,750.7z M1290.9,714.4
	l-8.9,16.2l-23.1,0.3l-14.7-6.3l25.4-15.2L1290.9,714.4z M1254.6,684.4l17.6-0.1l-5.8,21.3l-24.7,14.8l1.5-15.9L1254.6,684.4z
	 M1240.8,666.2l9.6,15.8l-11.3,20.2l-12.8,9.6l-0.5-29.6L1240.8,666.2z M1223.9,719C1223.9,719,1223.9,719,1223.9,719
	c0,0,0.1,0,0.1,0c0.1,0,0.2,0,0.4,0c0,0,0.1,0,0.1,0c0.3-0.1,0.6-0.2,0.9-0.4l12.6-9.5l-1.5,15.3c-0.1,0.6-0.1,1.3,0.3,1.9
	c0,0,0,0,0,0c0,0,0.1,0.1,0.1,0.2c0.1,0.1,0.1,0.1,0.1,0.2c0,0,0.1,0.1,0.1,0.1c0.1,0.1,0.2,0.2,0.3,0.2l0,0
	c0.1,0.1,0.3,0.2,0.5,0.3l14.5,6.2l-14,6.4c-0.6,0.2-1.1,0.6-1.5,1.2l0,0c0,0.1-0.1,0.1-0.1,0.2c0,0.1-0.1,0.1-0.1,0.2
	c0,0,0,0.1,0,0.1c0,0.1-0.1,0.2-0.1,0.4c0,0,0,0,0,0c0,0.2,0,0.4,0,0.6l1.9,15.7l-12.5-9c-0.4-0.4-1.1-0.7-1.7-0.7c0,0,0,0,0,0
	c-0.2,0-0.4,0-0.6,0.1c-0.1,0-0.1,0-0.1,0c-0.1,0-0.3,0.1-0.4,0.2c0,0-0.1,0-0.1,0.1c-0.1,0.1-0.1,0.1-0.2,0.1l-12.6,9.5l1.5-15.3
	c0.1-0.6,0.1-1.3-0.3-1.8l0,0c0-0.1-0.1-0.1-0.1-0.1c0-0.1-0.1-0.1-0.2-0.2c0,0-0.1,0-0.1-0.1c-0.1-0.1-0.2-0.2-0.3-0.3c0,0,0,0,0,0
	c-0.1-0.1-0.3-0.2-0.5-0.3l-14.5-6.2l14-6.4c0.6-0.2,1.1-0.6,1.5-1.2c0,0,0,0,0,0c0,0,0-0.1,0-0.1c0-0.1,0.1-0.2,0.1-0.3
	c0,0,0,0,0-0.1c0.1-0.3,0.1-0.7,0.1-1l-1.9-15.7l12.5,8.9C1222.6,718.7,1223.2,719,1223.9,719z M1205.4,667.4l15.5,15.7l0.5,28.7
	l-13-9.3l-11.8-19.8L1205.4,667.4z M1204.3,705l1.9,15.9l-12.8-7.1l-13.1-7.3l-5.1-16.9l-1.2-4.1l18.5-0.4L1204.3,705z
	 M1159.4,624.8c-5.8,3.2-13.1,1.3-16.4-4.4c-3.4-5.7-1.6-13,4-16.6c5.7-3.2,13.1-1.3,16.4,4.4C1166.8,613.9,1165,621.3,1159.4,624.8
	z"/>
<g>
	<path fill="#FFFFFF" d="M358.3,509.4l-12.7-38.8h5.4l6.1,19.1c1.7,5.2,3.1,10,4.1,14.5h0.1c1.1-4.5,2.7-9.4,4.4-14.5l6.6-19.2h5.4
		l-13.9,38.8H358.3z"/>
	<path fill="#FFFFFF" d="M402.1,491.2H387v14h16.8v4.2H382v-38.8h21v4.2h-16v12.3h15.1V491.2z"/>
	<path fill="#FFFFFF" d="M437.5,508.2c-1.8,0.9-5.5,1.8-10.3,1.8c-11,0-19.2-6.9-19.2-19.7c0-12.2,8.2-20.4,20.3-20.4
		c4.8,0,7.9,1,9.2,1.7l-1.2,4.1c-1.9-0.9-4.6-1.6-7.8-1.6c-9.1,0-15.2,5.8-15.2,16c0,9.5,5.5,15.6,14.9,15.6c3.1,0,6.2-0.6,8.2-1.6
		L437.5,508.2z"/>
	<path fill="#FFFFFF" d="M452.7,474.8h-11.8v-4.3h28.8v4.3h-11.9v34.6h-5.1V474.8z"/>
	<path fill="#FFFFFF" d="M505.6,489.6c0,13.4-8.1,20.5-18,20.5c-10.3,0-17.5-8-17.5-19.7c0-12.3,7.7-20.4,18-20.4
		C498.8,469.9,505.6,478.1,505.6,489.6z M475.5,490.2c0,8.3,4.5,15.7,12.4,15.7c8,0,12.4-7.3,12.4-16.1c0-7.7-4-15.8-12.4-15.8
		C479.6,474,475.5,481.7,475.5,490.2z"/>
	<path fill="#FFFFFF" d="M512.1,471.1c2.5-0.5,6.2-0.8,9.6-0.8c5.4,0,8.8,1,11.2,3.2c2,1.7,3.1,4.4,3.1,7.4c0,5.1-3.2,8.5-7.3,9.9
		v0.2c3,1,4.8,3.8,5.7,7.8c1.3,5.4,2.2,9.2,3,10.7h-5.2c-0.6-1.1-1.5-4.4-2.6-9.3c-1.2-5.4-3.2-7.4-7.8-7.5h-4.7v16.8h-5V471.1z
		 M517.2,488.8h5.1c5.4,0,8.8-2.9,8.8-7.4c0-5-3.6-7.2-8.9-7.3c-2.4,0-4.1,0.2-5,0.5V488.8z"/>
	<path fill="#FFFFFF" d="M554.7,503.3c2.2,1.4,5.5,2.5,9,2.5c5.1,0,8.1-2.7,8.1-6.6c0-3.6-2.1-5.7-7.3-7.7
		c-6.3-2.2-10.3-5.5-10.3-11c0-6.1,5-10.5,12.6-10.5c4,0,6.9,0.9,8.6,1.9l-1.4,4.1c-1.3-0.7-3.9-1.8-7.4-1.8c-5.3,0-7.3,3.2-7.3,5.8
		c0,3.6,2.4,5.4,7.7,7.5c6.6,2.5,9.9,5.7,9.9,11.4c0,6-4.4,11.2-13.6,11.2c-3.7,0-7.8-1.1-9.9-2.5L554.7,503.3z"/>
	<path fill="#FFFFFF" d="M583.8,509.4v-38.8h5.5l12.4,19.7c2.9,4.6,5.1,8.6,7,12.6l0.1-0.1c-0.5-5.2-0.6-9.9-0.6-16v-16.3h4.7v38.8
		h-5.1l-12.3-19.7c-2.7-4.3-5.3-8.8-7.3-13l-0.2,0.1c0.3,4.9,0.4,9.6,0.4,16v16.6H583.8z"/>
	<path fill="#FFFFFF" d="M654.9,489.6c0,13.4-8.1,20.5-18,20.5c-10.3,0-17.5-8-17.5-19.7c0-12.3,7.7-20.4,18-20.4
		C648,469.9,654.9,478.1,654.9,489.6z M624.8,490.2c0,8.3,4.5,15.7,12.4,15.7c8,0,12.4-7.3,12.4-16.1c0-7.7-4-15.8-12.4-15.8
		C628.9,474,624.8,481.7,624.8,490.2z"/>
	<path fill="#FFFFFF" d="M667.8,509.4l-9.9-38.8h5.3l4.6,19.7c1.2,4.8,2.2,9.7,2.9,13.4h0.1c0.6-3.9,1.8-8.5,3.2-13.5l5.2-19.6h5.2
		l4.7,19.7c1.1,4.6,2.1,9.2,2.7,13.3h0.1c0.8-4.3,1.9-8.6,3.1-13.4l5.1-19.6h5.1l-11,38.8h-5.2l-4.9-20.2c-1.2-5-2-8.8-2.5-12.7
		h-0.1c-0.7,3.9-1.6,7.7-3,12.7l-5.5,20.2H667.8z"/>
	<path fill="#FFFFFF" d="M710.2,470.6h20.9v4.2h-15.9v12.9h14.7v4.1h-14.7v17.6h-5V470.6z"/>
	<path fill="#FFFFFF" d="M738.2,470.6h5v34.6h16.6v4.2h-21.6V470.6z"/>
	<path fill="#FFFFFF" d="M771.7,497.2l-4,12.2h-5.2l13.2-38.8h6.1l13.3,38.8h-5.4l-4.1-12.2H771.7z M784.5,493.3l-3.8-11.2
		c-0.9-2.5-1.4-4.8-2-7.1h-0.1c-0.6,2.3-1.2,4.7-2,7l-3.8,11.2H784.5z"/>
	<path fill="#FFFFFF" d="M800.7,470.6h5v18.7h0.2c1-1.5,2.1-2.9,3.1-4.1l11.9-14.6h6.2L813,487.1l15.2,22.4h-5.9l-12.8-19.1
		l-3.7,4.3v14.8h-5V470.6z"/>
	<path fill="#FFFFFF" d="M852.1,491.2H837v14h16.8v4.2h-21.8v-38.8h21v4.2h-16v12.3h15.1V491.2z"/>
	<path fill="#FFFFFF" d="M871.8,503.3c2.2,1.4,5.5,2.5,9,2.5c5.1,0,8.1-2.7,8.1-6.6c0-3.6-2.1-5.7-7.3-7.7
		c-6.3-2.2-10.3-5.5-10.3-11c0-6.1,5-10.5,12.6-10.5c4,0,6.9,0.9,8.6,1.9l-1.4,4.1c-1.3-0.7-3.9-1.8-7.4-1.8c-5.3,0-7.3,3.2-7.3,5.8
		c0,3.6,2.4,5.4,7.7,7.5c6.6,2.5,9.9,5.7,9.9,11.4c0,6-4.4,11.2-13.6,11.2c-3.7,0-7.8-1.1-9.9-2.5L871.8,503.3z"/>
	<path fill="#FFFFFF" d="M905.9,470.6v16.3h18.8v-16.3h5.1v38.8h-5.1v-18.2h-18.8v18.2h-5v-38.8H905.9z"/>
	<path fill="#FFFFFF" d="M944.8,497.2l-4,12.2h-5.2l13.2-38.8h6.1l13.3,38.8h-5.4l-4.1-12.2H944.8z M957.5,493.3l-3.8-11.2
		c-0.9-2.5-1.4-4.8-2-7.1h-0.1c-0.6,2.3-1.2,4.7-2,7l-3.8,11.2H957.5z"/>
	<path fill="#FFFFFF" d="M973.8,471c2.4-0.4,5.6-0.7,9.6-0.7c5,0,8.6,1.2,10.9,3.2c2.1,1.8,3.4,4.7,3.4,8.1c0,3.5-1,6.3-3,8.3
		c-2.7,2.8-7,4.3-11.9,4.3c-1.5,0-2.9-0.1-4-0.3v15.6h-5V471z M978.8,489.8c1.1,0.3,2.5,0.4,4.1,0.4c6.1,0,9.7-2.9,9.7-8.3
		c0-5.1-3.6-7.6-9.2-7.6c-2.2,0-3.9,0.2-4.7,0.4V489.8z"/>
	<path fill="#FFFFFF" d="M1024.6,491.2h-15.1v14h16.8v4.2h-21.8v-38.8h21v4.2h-16v12.3h15.1V491.2z"/>
	<path fill="#FFFFFF" d="M1032.1,503.3c2.2,1.4,5.5,2.5,9,2.5c5.1,0,8.1-2.7,8.1-6.6c0-3.6-2.1-5.7-7.3-7.7
		c-6.3-2.2-10.3-5.5-10.3-11c0-6.1,5-10.5,12.6-10.5c4,0,6.9,0.9,8.6,1.9l-1.4,4.1c-1.3-0.7-3.9-1.8-7.4-1.8c-5.3,0-7.3,3.2-7.3,5.8
		c0,3.6,2.4,5.4,7.7,7.5c6.6,2.5,9.9,5.7,9.9,11.4c0,6-4.4,11.2-13.6,11.2c-3.7,0-7.8-1.1-9.9-2.5L1032.1,503.3z"/>
</g>
<g>
	<path fill="#FFFFFF" d="M1146.6,459.8c0,0-0.1,0-0.1,0c0,0,0,0,0,0c0,0-0.1,0-0.1,0c0,0,0,0,0,0c-0.1,0-0.2,0-0.3,0c0,0,0,0-0.1,0
		c0,0,0,0-0.1,0c0,0,0,0-0.1,0c0,0,0,0-0.1,0c0,0,0,0-0.1,0.1c0,0,0,0,0,0c-0.1,0.1-0.1,0.2-0.1,0.3c0,0,0,0.1,0,0.1c0,0,0,0,0,0.1
		c0,0.1,0,0.1,0,0.2l0.1,0.8l0.7,4.8l0.2,1.3c0,0,0,0,0,0.1c0,0,0,0.1,0,0.1c0,0,0,0,0,0.1c0,0,0,0,0,0.1c0,0,0,0,0,0.1c0,0,0,0,0,0
		c0,0,0.1,0.1,0.1,0.1v0l9.2,7l4.2,5.6l-15.2-12c0,0,0,0,0,0c0,0-0.1,0-0.1-0.1c0,0,0,0-0.1,0c0,0-0.1,0-0.1,0c0,0,0,0-0.1,0
		c0,0-0.1,0-0.1,0c0,0-0.1,0-0.1,0c0,0,0,0-0.1,0c0,0,0,0,0,0l-6.2,0.7l-6.1,0.7c0,0,0,0,0,0c0,0,0,0-0.1,0c0,0,0,0-0.1,0
		c0,0,0,0-0.1,0s0,0-0.1,0c0,0,0,0,0,0c0,0,0,0,0,0c0,0,0,0-0.1,0.1c0,0,0,0,0,0c0,0,0,0,0,0.1c0,0,0,0,0,0.1c0,0,0,0,0,0.1
		c0,0,0,0,0,0.1c0,0,0,0,0,0.1c0,0,0,0,0,0.1c0,0,0,0,0,0.1c0,0,0,0.1,0,0.1c0,0,0,0,0,0c0,0,0,0,0,0c0,0,0,0.1,0,0.1c0,0,0,0,0,0.1
		c0,0,0,0,0,0.1c0,0,0,0,0,0.1c0,0,0,0,0,0l0.3,0.4l6.9,9.6c0,0.1,0.1,0.1,0.1,0.1c0,0,0,0,0,0c0,0,0.1,0.1,0.1,0.1c0,0,0,0,0,0
		c0.1,0,0.1,0,0.2,0l0,0l19.4,3.2l-7.1,0.8l-11.5-2c0,0,0,0-0.1,0c0,0-0.1,0-0.1,0c0,0,0,0-0.1,0c0,0-0.1,0-0.1,0c0,0,0,0-0.1,0
		c0,0,0,0-0.1,0c0,0,0,0-0.1,0c0,0,0,0-0.1,0l-5.8,3.9c0,0,0,0,0,0c0,0-0.1,0-0.1,0.1c0,0,0,0-0.1,0.1c0,0,0,0,0,0
		c-0.1,0.1-0.1,0.2-0.1,0.3c0,0,0,0,0,0.1c0,0,0,0.1,0,0.1c0,0,0,0,0,0.1c0,0,0,0,0,0.1c0,0,0,0,0,0.1c0,0,0,0,0,0.1
		c0,0,0,0.1,0.1,0.1c0,0.1,0.1,0.1,0.1,0.1c0,0,0,0,0,0c0,0,0.1,0.1,0.1,0.1c0,0,0,0,0,0c0,0,0,0,0,0l6.5,2.6h0c0.1,0,0.1,0,0.2,0
		c0,0,0,0,0,0c0.1,0,0.1,0,0.2,0c0,0,0,0,0,0c0.1,0,0.1,0,0.2,0c0,0,0,0,0,0l10.7-4.4l6.9-0.8l-18,7.1c0,0,0,0,0,0
		c0,0-0.1,0-0.1,0.1c0,0,0,0,0,0c0,0,0,0-0.1,0.1c0,0,0,0,0,0.1c0,0,0,0,0,0.1c0,0,0,0.1-0.1,0.1c0,0,0,0,0,0l-3.5,8.2l-1.4,3.2
		c0,0,0,0,0,0c0,0,0,0,0,0.1c0,0,0,0,0,0.1c0,0,0,0,0,0.1c0,0,0,0.1,0,0.1c0,0,0,0,0,0c0,0,0,0,0,0c0,0,0,0.1,0,0.1c0,0,0,0,0,0.1
		c0,0,0,0,0,0.1c0,0,0,0,0,0.1c0,0,0,0,0,0c0,0,0,0,0,0c0,0,0,0,0,0.1c0,0,0,0,0.1,0.1c0,0,0,0,0.1,0c0,0,0,0,0.1,0c0,0,0,0,0.1,0
		c0,0,0,0,0,0c0,0,0,0,0,0c0,0,0.1,0,0.1,0c0,0,0,0,0,0c0.1,0,0.1,0,0.2,0l12.3-1.2c0,0,0,0,0,0h0c0,0,0.1,0,0.1,0c0,0,0,0,0.1,0
		c0,0,0.1,0,0.1,0c0,0,0,0,0.1,0c0,0,0,0,0.1,0c0,0,0.1-0.1,0.1-0.1c0,0,0,0,0,0l0.4-0.4l3.3-4.1l8.7-10.7l-2.8,6.6l-3.2,3.8
		l-3.4,4.1l-0.8,1c-0.1,0.1-0.1,0.2-0.2,0.3c0,0,0,0,0,0c0,0,0,0.1,0,0.1c0,0,0,0.1,0,0.1c0,0,0,0,0,0.1l0.5,7c0,0,0,0.1,0,0.1
		c0,0,0,0,0,0.1c0,0,0,0,0,0.1c0,0.1,0.1,0.2,0.2,0.2c0,0,0,0,0,0c0,0,0.1,0,0.1,0.1c0,0,0,0,0,0c0,0,0.1,0,0.1,0c0,0,0,0,0,0
		c0.1,0,0.1,0,0.2,0c0,0,0,0,0,0c0,0,0,0,0,0c0.1,0,0.1,0,0.2,0c0,0,0,0,0,0c0.1,0,0.1-0.1,0.1-0.1c0,0,0,0,0,0l5.5-4.3c0,0,0,0,0,0
		c0,0,0,0,0.1-0.1c0,0,0,0,0,0c0,0,0,0,0.1-0.1c0,0,0,0,0,0c0,0,0-0.1,0-0.1c0,0,0,0,0,0c0,0,0-0.1,0-0.1l0.7-5.1l0.5-3.8l0.3-2.6
		l2.8-6.4l-1.3,8.8l-0.6,3.8l-1,6.5c0,0,0,0.1,0,0.1c0,0,0,0,0,0.1c0,0,0,0.1,0,0.1c0,0,0,0,0,0.1c0,0,0,0,0,0.1c0,0,0,0.1,0.1,0.1
		l7.4,9.9c0,0,0,0,0,0c0,0,0.1,0.1,0.1,0.1c0,0,0,0,0,0c0,0,0.1,0.1,0.1,0.1c0,0,0,0,0,0c0,0,0.1,0,0.1,0c0,0,0,0,0.1,0
		c0,0,0.1,0,0.1,0c0,0,0,0,0.1,0c0,0,0,0,0,0c0,0,0,0,0.1,0c0,0,0.1,0,0.1,0c0,0,0,0,0,0c0,0,0.1,0,0.1-0.1c0,0,0,0,0,0
		c0,0,0.1-0.1,0.1-0.1c0,0,0,0,0,0c0,0,0.1-0.1,0.1-0.1c0,0,0,0,0,0l5.1-11.3c0,0,0-0.1,0-0.1c0,0,0,0,0-0.1c0,0,0-0.1,0-0.1
		c0,0,0-0.1,0-0.1c0,0,0,0,0-0.1c0,0,0-0.1,0-0.1c0,0,0,0,0,0l-2.4-6.3l-1.3-3.5l-3.2-8.6l4.3,5.7l0.9,2.6l1.3,3.5l1.8,4.8
		c0,0,0,0.1,0.1,0.1c0,0,0,0,0,0c0,0,0,0.1,0.1,0.1c0,0,0,0,0,0c0,0,0,0,0.1,0.1c0,0,0,0,0,0c0,0,0.1,0,0.1,0c0,0,0,0,0,0l6.3,3
		c0,0,0,0,0,0c0.1,0,0.1,0,0.2,0.1c0,0,0,0,0,0c0.1,0,0.1,0,0.2,0c0,0,0,0,0,0c0.1,0,0.1,0,0.2,0c0,0,0,0,0,0c0,0,0.1,0,0.1-0.1
		c0,0,0,0,0,0c0,0,0.1-0.1,0.1-0.1c0,0,0,0,0,0c0,0,0.1-0.1,0.1-0.1c0,0,0,0,0,0c0,0,0-0.1,0-0.1c0,0,0-0.1,0-0.1c0,0,0,0,0-0.1
		c0,0,0-0.1,0-0.2l-0.4-2.6l-0.6-4.3l0,0c0,0,0,0,0,0c0,0,0-0.1,0-0.1c0,0,0-0.1,0-0.1c0,0,0,0,0-0.1c0,0-0.1-0.1-0.1-0.1
		c0,0,0,0,0,0c0-0.1-0.1-0.1-0.1-0.1l-5.7-4.4l-3.4-2.6l-4.2-5.6l8.7,6.9l5.8,4.6l0.7,0.5c0,0,0,0,0,0c0,0,0,0,0,0
		c0,0,0.1,0,0.1,0.1c0,0,0,0,0.1,0c0,0,0,0,0.1,0c0,0,0.1,0,0.1,0c0,0,0,0,0.1,0c0,0,0.1,0,0.1,0c0,0,0,0,0,0l11.5-1.3l0.8-0.1
		c0.1,0,0.1,0,0.2,0c0,0,0,0,0,0c0,0,0.1,0,0.1-0.1c0,0,0,0,0,0c0,0,0,0,0,0c0,0,0,0,0.1-0.1c0,0,0,0,0-0.1c0,0,0,0,0-0.1
		c0,0,0,0,0-0.1c0,0,0,0,0-0.1c0,0,0,0,0-0.1c0,0,0,0,0-0.1c0,0,0,0,0-0.1c0,0,0,0,0-0.1c0,0,0-0.1,0-0.1c0,0,0,0,0,0c0,0,0,0,0,0
		c0,0,0-0.1,0-0.1c0,0,0,0,0-0.1c0,0,0,0,0-0.1c0,0,0,0,0-0.1c0,0,0,0,0,0l-2.4-3.4l-4.8-6.7c0,0,0,0,0,0c0,0-0.1-0.1-0.1-0.1
		c0,0,0,0-0.1-0.1c0,0,0,0-0.1,0c0,0-0.1,0-0.1,0c0,0,0,0,0,0c0,0-0.1,0-0.1,0l-1.3-0.2l-4.1-0.7l-14-2.3l7.1-0.8l8.3,1.5l2.7,0.5
		l0.5,0.1c0,0,0,0,0,0c0.1,0,0.1,0,0.2,0h0c0,0,0,0,0,0c0.1,0,0.1,0,0.2,0c0,0,0,0,0,0c0.1,0,0.1,0,0.1-0.1c0,0,0,0,0,0l5.8-3.9
		c0,0,0,0,0,0c0,0,0,0,0,0c0,0,0.1-0.1,0.1-0.1c0,0,0,0,0,0c0.1-0.1,0.1-0.2,0.1-0.3c0,0,0,0,0-0.1c0,0,0,0,0-0.1c0,0,0,0,0-0.1
		c0,0,0,0,0-0.1c0,0,0,0,0-0.1c0,0,0,0,0-0.1c0,0,0-0.1-0.1-0.1l0,0c0,0,0,0,0,0c0,0-0.1-0.1-0.1-0.1c0,0,0,0-0.1,0c0,0,0,0-0.1,0
		c0,0-0.1,0-0.1-0.1c0,0,0,0,0,0l-6.5-2.6c0,0,0,0,0,0l0,0c0,0,0,0,0,0c0,0-0.1,0-0.1,0c0,0,0,0-0.1,0c0,0-0.1,0-0.1,0
		c0,0,0,0-0.1,0c0,0,0,0-0.1,0c0,0-0.1,0-0.1,0c0,0,0,0,0,0l-10.7,4.4l-6.9,0.8l18-7.1c0,0,0,0,0,0l0,0c0.1,0,0.1-0.1,0.1-0.1
		c0,0,0,0,0,0c0,0,0.1-0.1,0.1-0.1c0,0,0,0,0,0c0,0,0.1-0.1,0.1-0.2l4.9-11.4c0,0,0,0,0,0c0,0,0-0.1,0-0.1c0,0,0,0,0-0.1
		c0,0,0,0,0-0.1c0,0,0,0,0-0.1c0,0,0,0,0,0c0,0,0,0,0,0c0,0,0,0,0-0.1c0,0,0,0,0-0.1c0,0,0,0,0-0.1c0,0,0,0,0-0.1c0,0,0,0,0-0.1
		c0,0,0,0,0-0.1c0,0,0,0-0.1-0.1c0,0,0,0-0.1,0c0,0,0,0-0.1,0c0,0,0,0-0.1,0c0,0,0,0,0,0c0,0,0,0,0,0c0,0-0.1,0-0.1,0c0,0,0,0-0.1,0
		c0,0,0,0-0.1,0c0,0-0.1,0-0.1,0c0,0,0,0,0,0l-12.3,1.2c0,0,0,0,0,0c0,0,0,0,0,0c0,0-0.1,0-0.1,0c0,0,0,0-0.1,0c0,0,0,0-0.1,0
		c0,0,0,0-0.1,0c0,0,0,0-0.1,0c0,0-0.1,0.1-0.1,0.1c0,0,0,0,0,0v0l-12.4,15.2l2.8-6.6l7.5-8.9v0c0,0,0.1-0.1,0.1-0.1c0,0,0,0,0,0
		c0,0,0-0.1,0-0.1c0,0,0,0,0-0.1c0,0,0,0,0-0.1c0,0,0-0.1,0-0.1c0,0,0,0,0,0v0l-0.5-7c0-0.1,0-0.1,0-0.1c0,0,0,0,0-0.1
		c0,0,0-0.1,0-0.1c0,0,0-0.1-0.1-0.1c0,0,0,0,0,0c0,0-0.1-0.1-0.1-0.1c0,0,0,0-0.1,0c0,0,0,0-0.1,0c0,0,0,0-0.1,0c0,0,0,0-0.1,0
		c0,0,0,0-0.1,0c0,0,0,0-0.1,0c-0.1,0-0.2,0-0.3,0c0,0,0,0,0,0c0,0-0.1,0-0.1,0c0,0-0.1,0-0.1,0.1c0,0,0,0,0,0l-5.5,4.3c0,0,0,0,0,0
		c0,0,0,0-0.1,0.1c0,0,0,0,0,0.1c0,0,0,0,0,0.1c0,0,0,0.1,0,0.1c0,0,0,0,0,0.1c0,0,0,0.1,0,0.1c0,0,0,0,0,0l-1.5,11.4l-2.8,6.4
		l2.8-19.1c0,0,0,0,0,0c0,0,0-0.1,0-0.1c0,0,0,0,0-0.1c0,0,0,0,0-0.1c0,0,0-0.1,0-0.1c0,0,0,0,0-0.1c0,0,0-0.1-0.1-0.1c0,0,0,0,0,0
		l-7.4-9.9c0,0,0,0,0,0c0,0,0,0-0.1-0.1c0,0,0,0-0.1,0c0,0,0,0-0.1,0c0,0,0,0-0.1,0c0,0,0,0,0,0c0,0,0,0,0,0c0,0,0,0-0.1,0
		c0,0,0,0-0.1,0c0,0,0,0-0.1,0c0,0,0,0-0.1,0c0,0,0,0-0.1,0c0,0,0,0-0.1,0c0,0,0,0-0.1,0c0,0,0,0-0.1,0c0,0,0,0-0.1,0c0,0,0,0-0.1,0
		c0,0,0,0,0,0c0,0,0,0,0,0c0,0,0,0-0.1,0.1c0,0,0,0,0,0.1c0,0,0,0,0,0.1c0,0,0,0,0,0.1c0,0,0,0,0,0l-5.1,11.3c0,0,0,0,0,0
		c0,0,0,0.1,0,0.1c0,0,0,0,0,0.1c0,0,0,0,0,0.1c0,0,0,0.1,0,0.1c0,0,0,0,0,0.1c0,0.1,0,0.1,0,0.1l7,18.3l-4.3-5.7l-4-11c0,0,0,0,0,0
		c0,0,0-0.1,0-0.1c0,0,0,0,0-0.1c0,0,0,0,0-0.1c0,0,0,0-0.1,0c0,0,0,0-0.1-0.1c0,0,0,0-0.1,0c0,0,0,0-0.1,0l-3.2-1.5L1146.6,459.8
		C1146.6,459.8,1146.6,459.8,1146.6,459.8z M1140.7,489.8l-4.9-2l4.4-3l8.7,1.6L1140.7,489.8z M1157.4,503.1l-0.6,4.4l-4.2,3.3
		l-0.4-5.3l1.7-2l3.4-4.1l0.6-0.7l-0.1,0.6L1157.4,503.1z M1173.9,497.6l6.4,4.9l0.3,2.4l0.4,2.8l-4.8-2.3l-1.5-4.2l-1.3-3.5
		l-0.2-0.6L1173.9,497.6z M1187.5,479.6l4.9,2l-4.4,3l-8.7-1.6L1187.5,479.6z M1171.4,461.8l4.2-3.3l0.4,5.3l-5.7,6.8L1171.4,461.8z
		 M1182.5,488.4l4.2,0.7l1.7,0.3l4.3,6l2,2.8l-10.7,1.3l-3.3-2.6l0,0l-2.9-2.3l-10.8-8.6L1182.5,488.4z M1180.3,466.1l10.8-1.1
		l-4.3,9.9l-20.3,8L1180.3,466.1z M1168.4,498.2l1.3,3.5l2.4,6.3l-4.4,9.9l-6.5-8.7l1-6.6l0.6-3.8l1.6-11.2L1168.4,498.2z
		 M1156,461.4l4.4-9.9l6.5,8.7l-3.2,21.6L1156,461.4z M1161.7,486.5l-11.3,13.8l-2.5,3.1l-10.8,1.1l1.2-2.8l3.1-7.2L1161.7,486.5z
		 M1139.9,480l-6.3-8.8l10.8-1.3l17.1,13.5L1139.9,480z M1149.1,462.6l2.9,1.4l3,8.3l-7-5.4l-0.2-1.6l-0.5-3.7L1149.1,462.6z"/>
	<path fill="#FFFFFF" d="M218.4,459.8c0,0-0.1,0-0.1,0c0,0,0,0,0,0c0,0-0.1,0-0.1,0c0,0,0,0,0,0c-0.1,0-0.2,0-0.3,0c0,0,0,0-0.1,0
		c0,0,0,0-0.1,0c0,0,0,0-0.1,0c0,0,0,0-0.1,0c0,0,0,0-0.1,0.1c0,0,0,0,0,0c-0.1,0.1-0.1,0.2-0.1,0.3c0,0,0,0.1,0,0.1c0,0,0,0,0,0.1
		c0,0.1,0,0.1,0,0.2l0.1,0.8l0.7,4.8l0.2,1.3c0,0,0,0,0,0.1c0,0,0,0.1,0,0.1c0,0,0,0,0,0.1c0,0,0,0,0,0.1c0,0,0,0,0,0.1c0,0,0,0,0,0
		c0,0,0.1,0.1,0.1,0.1v0l9.2,7l4.2,5.6l-15.2-12c0,0,0,0,0,0c0,0-0.1,0-0.1-0.1c0,0,0,0-0.1,0c0,0-0.1,0-0.1,0c0,0,0,0-0.1,0
		c0,0-0.1,0-0.1,0c0,0-0.1,0-0.1,0c0,0,0,0-0.1,0c0,0,0,0,0,0l-6.2,0.7l-6.1,0.7c0,0,0,0,0,0c0,0,0,0-0.1,0c0,0,0,0-0.1,0
		c0,0,0,0-0.1,0c0,0,0,0-0.1,0c0,0,0,0,0,0c0,0,0,0,0,0c0,0,0,0-0.1,0.1c0,0,0,0,0,0c0,0,0,0,0,0.1c0,0,0,0,0,0.1c0,0,0,0,0,0.1
		c0,0,0,0,0,0.1c0,0,0,0,0,0.1c0,0,0,0,0,0.1c0,0,0,0,0,0.1c0,0,0,0.1,0,0.1c0,0,0,0,0,0c0,0,0,0,0,0c0,0,0,0.1,0,0.1c0,0,0,0,0,0.1
		c0,0,0,0,0,0.1c0,0,0,0,0,0.1c0,0,0,0,0,0l0.3,0.4l6.9,9.6c0,0.1,0.1,0.1,0.1,0.1c0,0,0,0,0,0c0,0,0.1,0.1,0.1,0.1c0,0,0,0,0,0
		c0.1,0,0.1,0,0.2,0l0,0l19.4,3.2l-7.1,0.8l-11.5-2c0,0,0,0-0.1,0c0,0-0.1,0-0.1,0c0,0,0,0-0.1,0c0,0-0.1,0-0.1,0c0,0,0,0-0.1,0
		c0,0,0,0-0.1,0c0,0,0,0-0.1,0c0,0,0,0-0.1,0l-5.8,3.9c0,0,0,0,0,0c0,0-0.1,0-0.1,0.1c0,0,0,0-0.1,0.1c0,0,0,0,0,0
		c-0.1,0.1-0.1,0.2-0.1,0.3c0,0,0,0,0,0.1c0,0,0,0.1,0,0.1c0,0,0,0,0,0.1c0,0,0,0,0,0.1c0,0,0,0,0,0.1c0,0,0,0,0,0.1
		c0,0,0,0.1,0.1,0.1c0,0.1,0.1,0.1,0.1,0.1c0,0,0,0,0,0c0,0,0.1,0.1,0.1,0.1c0,0,0,0,0,0c0,0,0,0,0,0l6.5,2.6h0c0.1,0,0.1,0,0.2,0
		c0,0,0,0,0,0c0.1,0,0.1,0,0.2,0c0,0,0,0,0,0c0.1,0,0.1,0,0.2,0c0,0,0,0,0,0l10.7-4.4l6.9-0.8l-18,7.1c0,0,0,0,0,0
		c0,0-0.1,0-0.1,0.1c0,0,0,0,0,0c0,0,0,0-0.1,0.1c0,0,0,0,0,0.1c0,0,0,0,0,0.1c0,0,0,0.1-0.1,0.1c0,0,0,0,0,0l-3.5,8.2l-1.4,3.2
		c0,0,0,0,0,0c0,0,0,0,0,0.1c0,0,0,0,0,0.1c0,0,0,0,0,0.1c0,0,0,0.1,0,0.1c0,0,0,0,0,0c0,0,0,0,0,0c0,0,0,0.1,0,0.1c0,0,0,0,0,0.1
		c0,0,0,0,0,0.1c0,0,0,0,0,0.1c0,0,0,0,0,0c0,0,0,0,0,0c0,0,0,0,0,0.1c0,0,0,0,0.1,0.1c0,0,0,0,0.1,0c0,0,0,0,0.1,0c0,0,0,0,0.1,0
		c0,0,0,0,0,0c0,0,0,0,0,0c0,0,0.1,0,0.1,0c0,0,0,0,0,0c0.1,0,0.1,0,0.2,0l12.3-1.2c0,0,0,0,0,0h0c0,0,0.1,0,0.1,0c0,0,0,0,0.1,0
		c0,0,0.1,0,0.1,0c0,0,0,0,0.1,0c0,0,0,0,0.1,0c0,0,0.1-0.1,0.1-0.1c0,0,0,0,0,0l0.4-0.4l3.3-4.1l8.7-10.7l-2.8,6.6l-3.2,3.8
		l-3.4,4.1l-0.8,1c-0.1,0.1-0.1,0.2-0.2,0.3c0,0,0,0,0,0c0,0,0,0.1,0,0.1c0,0,0,0.1,0,0.1c0,0,0,0,0,0.1l0.5,7c0,0,0,0.1,0,0.1
		c0,0,0,0,0,0.1c0,0,0,0,0,0.1c0,0.1,0.1,0.2,0.2,0.2c0,0,0,0,0,0c0,0,0.1,0,0.1,0.1c0,0,0,0,0,0c0,0,0.1,0,0.1,0c0,0,0,0,0,0
		c0.1,0,0.1,0,0.2,0c0,0,0,0,0,0c0,0,0,0,0,0c0.1,0,0.1,0,0.2,0c0,0,0,0,0,0c0.1,0,0.1-0.1,0.1-0.1c0,0,0,0,0,0l5.5-4.3c0,0,0,0,0,0
		c0,0,0,0,0.1-0.1c0,0,0,0,0,0c0,0,0,0,0.1-0.1c0,0,0,0,0,0c0,0,0-0.1,0-0.1c0,0,0,0,0,0c0,0,0-0.1,0-0.1l0.7-5.1l0.5-3.8l0.3-2.6
		l2.8-6.4L233,499l-0.6,3.8l-1,6.5c0,0,0,0.1,0,0.1c0,0,0,0,0,0.1c0,0,0,0.1,0,0.1c0,0,0,0,0,0.1c0,0,0,0,0,0.1c0,0,0,0.1,0.1,0.1
		l7.4,9.9c0,0,0,0,0,0c0,0,0.1,0.1,0.1,0.1c0,0,0,0,0,0c0,0,0.1,0.1,0.1,0.1c0,0,0,0,0,0c0,0,0.1,0,0.1,0c0,0,0,0,0.1,0
		c0,0,0.1,0,0.1,0c0,0,0,0,0.1,0c0,0,0,0,0,0c0,0,0,0,0.1,0c0,0,0.1,0,0.1,0c0,0,0,0,0,0c0,0,0.1,0,0.1-0.1c0,0,0,0,0,0
		c0,0,0.1-0.1,0.1-0.1c0,0,0,0,0,0c0,0,0.1-0.1,0.1-0.1c0,0,0,0,0,0l5.1-11.3c0,0,0-0.1,0-0.1c0,0,0,0,0-0.1c0,0,0-0.1,0-0.1
		c0,0,0-0.1,0-0.1c0,0,0,0,0-0.1c0,0,0-0.1,0-0.1c0,0,0,0,0,0l-2.4-6.3l-1.3-3.5l-3.2-8.6l4.3,5.7l0.9,2.6l1.3,3.5l1.8,4.8
		c0,0,0,0.1,0.1,0.1c0,0,0,0,0,0c0,0,0,0.1,0.1,0.1c0,0,0,0,0,0c0,0,0,0,0.1,0.1c0,0,0,0,0,0c0,0,0.1,0,0.1,0c0,0,0,0,0,0l6.3,3
		c0,0,0,0,0,0c0.1,0,0.1,0,0.2,0.1c0,0,0,0,0,0c0.1,0,0.1,0,0.2,0c0,0,0,0,0,0c0.1,0,0.1,0,0.2,0c0,0,0,0,0,0c0,0,0.1,0,0.1-0.1
		c0,0,0,0,0,0c0,0,0.1-0.1,0.1-0.1c0,0,0,0,0,0c0,0,0.1-0.1,0.1-0.1c0,0,0,0,0,0c0,0,0-0.1,0-0.1c0,0,0-0.1,0-0.1c0,0,0,0,0-0.1
		c0,0,0-0.1,0-0.2l-0.4-2.6l-0.6-4.3l0,0c0,0,0,0,0,0c0,0,0-0.1,0-0.1c0,0,0-0.1,0-0.1c0,0,0,0,0-0.1c0,0-0.1-0.1-0.1-0.1
		c0,0,0,0,0,0c0-0.1-0.1-0.1-0.1-0.1l-5.7-4.4l-3.4-2.6l-4.2-5.6l8.7,6.9l5.8,4.6l0.7,0.5c0,0,0,0,0,0c0,0,0,0,0,0
		c0,0,0.1,0,0.1,0.1c0,0,0,0,0.1,0c0,0,0,0,0.1,0c0,0,0.1,0,0.1,0c0,0,0,0,0.1,0c0,0,0.1,0,0.1,0c0,0,0,0,0,0l11.5-1.3l0.8-0.1
		c0.1,0,0.1,0,0.2,0c0,0,0,0,0,0c0,0,0.1,0,0.1-0.1c0,0,0,0,0,0c0,0,0,0,0,0c0,0,0,0,0.1-0.1c0,0,0,0,0-0.1c0,0,0,0,0-0.1
		c0,0,0,0,0-0.1c0,0,0,0,0-0.1c0,0,0,0,0-0.1c0,0,0,0,0-0.1c0,0,0,0,0-0.1c0,0,0,0,0-0.1c0,0,0-0.1,0-0.1c0,0,0,0,0,0c0,0,0,0,0,0
		c0,0,0-0.1,0-0.1c0,0,0,0,0-0.1c0,0,0,0,0-0.1c0,0,0,0,0-0.1c0,0,0,0,0,0L266,495l-4.8-6.7c0,0,0,0,0,0c0,0-0.1-0.1-0.1-0.1
		c0,0,0,0-0.1-0.1c0,0,0,0-0.1,0c0,0-0.1,0-0.1,0c0,0,0,0,0,0c0,0-0.1,0-0.1,0l-1.3-0.2l-4.1-0.7l-14-2.3l7.1-0.8l8.3,1.5l2.7,0.5
		l0.5,0.1c0,0,0,0,0,0c0.1,0,0.1,0,0.2,0h0c0,0,0,0,0,0c0.1,0,0.1,0,0.2,0c0,0,0,0,0,0c0.1,0,0.1,0,0.1-0.1c0,0,0,0,0,0l5.8-3.9
		c0,0,0,0,0,0c0,0,0,0,0,0c0,0,0.1-0.1,0.1-0.1c0,0,0,0,0,0c0.1-0.1,0.1-0.2,0.1-0.3c0,0,0,0,0-0.1c0,0,0,0,0-0.1c0,0,0,0,0-0.1
		c0,0,0,0,0-0.1c0,0,0,0,0-0.1c0,0,0,0,0-0.1c0,0,0-0.1-0.1-0.1l0,0c0,0,0,0,0,0c0,0-0.1-0.1-0.1-0.1c0,0,0,0-0.1,0c0,0,0,0-0.1,0
		c0,0-0.1,0-0.1-0.1c0,0,0,0,0,0l-6.5-2.6c0,0,0,0,0,0l0,0c0,0,0,0,0,0c0,0-0.1,0-0.1,0c0,0,0,0-0.1,0c0,0-0.1,0-0.1,0
		c0,0,0,0-0.1,0c0,0,0,0-0.1,0c0,0-0.1,0-0.1,0c0,0,0,0,0,0l-10.7,4.4l-6.9,0.8l18-7.1c0,0,0,0,0,0l0,0c0.1,0,0.1-0.1,0.1-0.1
		c0,0,0,0,0,0c0,0,0.1-0.1,0.1-0.1c0,0,0,0,0,0c0,0,0.1-0.1,0.1-0.2l4.9-11.4c0,0,0,0,0,0c0,0,0-0.1,0-0.1c0,0,0,0,0-0.1
		c0,0,0,0,0-0.1c0,0,0,0,0-0.1c0,0,0,0,0,0c0,0,0,0,0,0c0,0,0,0,0-0.1c0,0,0,0,0-0.1c0,0,0,0,0-0.1c0,0,0,0,0-0.1c0,0,0,0,0-0.1
		c0,0,0,0,0-0.1c0,0,0,0-0.1-0.1c0,0,0,0-0.1,0c0,0,0,0-0.1,0c0,0,0,0-0.1,0c0,0,0,0,0,0c0,0,0,0,0,0c0,0-0.1,0-0.1,0c0,0,0,0-0.1,0
		c0,0,0,0-0.1,0c0,0-0.1,0-0.1,0c0,0,0,0,0,0l-12.3,1.2c0,0,0,0,0,0c0,0,0,0,0,0c0,0-0.1,0-0.1,0c0,0,0,0-0.1,0c0,0,0,0-0.1,0
		c0,0,0,0-0.1,0c0,0,0,0-0.1,0c0,0-0.1,0.1-0.1,0.1c0,0,0,0,0,0v0l-12.4,15.2l2.8-6.6l7.5-8.9v0c0,0,0.1-0.1,0.1-0.1c0,0,0,0,0,0
		c0,0,0-0.1,0-0.1c0,0,0,0,0-0.1c0,0,0,0,0-0.1c0,0,0-0.1,0-0.1c0,0,0,0,0,0v0l-0.5-7c0-0.1,0-0.1,0-0.1c0,0,0,0,0-0.1
		c0,0,0-0.1,0-0.1c0,0,0-0.1-0.1-0.1c0,0,0,0,0,0c0,0-0.1-0.1-0.1-0.1c0,0,0,0-0.1,0c0,0,0,0-0.1,0c0,0,0,0-0.1,0c0,0,0,0-0.1,0
		c0,0,0,0-0.1,0c0,0,0,0-0.1,0c-0.1,0-0.2,0-0.3,0c0,0,0,0,0,0c0,0-0.1,0-0.1,0c0,0-0.1,0-0.1,0.1c0,0,0,0,0,0l-5.5,4.3c0,0,0,0,0,0
		c0,0,0,0-0.1,0.1c0,0,0,0,0,0.1c0,0,0,0,0,0.1c0,0,0,0.1,0,0.1c0,0,0,0,0,0.1c0,0,0,0.1,0,0.1c0,0,0,0,0,0l-1.5,11.4l-2.8,6.4
		l2.8-19.1c0,0,0,0,0,0c0,0,0-0.1,0-0.1c0,0,0,0,0-0.1c0,0,0,0,0-0.1c0,0,0-0.1,0-0.1c0,0,0,0,0-0.1c0,0,0-0.1-0.1-0.1c0,0,0,0,0,0
		l-7.4-9.9c0,0,0,0,0,0c0,0,0,0-0.1-0.1c0,0,0,0-0.1,0c0,0,0,0-0.1,0c0,0,0,0-0.1,0c0,0,0,0,0,0c0,0,0,0,0,0c0,0,0,0-0.1,0
		c0,0,0,0-0.1,0c0,0,0,0-0.1,0c0,0,0,0-0.1,0c0,0,0,0-0.1,0c0,0,0,0-0.1,0c0,0,0,0-0.1,0c0,0,0,0-0.1,0c0,0,0,0-0.1,0c0,0,0,0-0.1,0
		c0,0,0,0,0,0c0,0,0,0,0,0c0,0,0,0-0.1,0.1c0,0,0,0,0,0.1c0,0,0,0,0,0.1c0,0,0,0,0,0.1c0,0,0,0,0,0l-5.1,11.3c0,0,0,0,0,0
		c0,0,0,0.1,0,0.1c0,0,0,0,0,0.1c0,0,0,0,0,0.1c0,0,0,0.1,0,0.1c0,0,0,0,0,0.1c0,0.1,0,0.1,0,0.1l7,18.3l-4.3-5.7l-4-11c0,0,0,0,0,0
		c0,0,0-0.1,0-0.1c0,0,0,0,0-0.1c0,0,0,0,0-0.1c0,0,0,0-0.1,0c0,0,0,0-0.1-0.1c0,0,0,0-0.1,0c0,0,0,0-0.1,0l-3.2-1.5L218.4,459.8
		C218.4,459.8,218.4,459.8,218.4,459.8z M212.5,489.8l-4.9-2l4.4-3l8.7,1.6L212.5,489.8z M229.2,503.1l-0.6,4.4l-4.2,3.3l-0.4-5.3
		l1.7-2l3.4-4.1l0.6-0.7l-0.1,0.6L229.2,503.1z M245.7,497.6l6.4,4.9l0.3,2.4l0.4,2.8l-4.8-2.3l-1.5-4.2l-1.3-3.5L245,497
		L245.7,497.6z M259.3,479.6l4.9,2l-4.4,3l-8.7-1.6L259.3,479.6z M243.2,461.8l4.2-3.3l0.4,5.3l-5.7,6.8L243.2,461.8z M254.3,488.4
		l4.2,0.7l1.7,0.3l4.3,6l2,2.8l-10.7,1.3l-3.3-2.6l0,0l-2.9-2.3l-10.8-8.6L254.3,488.4z M252.1,466.1l10.8-1.1l-4.3,9.9l-20.3,8
		L252.1,466.1z M240.2,498.2l1.3,3.5l2.4,6.3l-4.4,9.9l-6.5-8.7l1-6.6l0.6-3.8l1.6-11.2L240.2,498.2z M227.9,461.4l4.4-9.9l6.5,8.7
		l-3.2,21.6L227.9,461.4z M233.5,486.5l-11.3,13.8l-2.5,3.1l-10.8,1.1l1.2-2.8l3.1-7.2L233.5,486.5z M211.7,480l-6.3-8.8l10.8-1.3
		l17.1,13.5L211.7,480z M220.9,462.6l2.9,1.4l3,8.3l-7-5.4l-0.2-1.6l-0.5-3.7L220.9,462.6z"/>
</g>
<g>
	<g>
		<g>
			<path fill="#5B5B5F" d="M717.4,919.1c0.5,0,0.9,0.4,0.9,0.4l-7.5,16c-0.8,0-2.8,0.1-3.3,0.1c-0.5,0-0.9-0.4-0.9-0.4l-2.6-16
				c1.6,0,3.5-0.1,4.1-0.1c0.5,0,0.9,0.4,0.9,0.4l0.8,7.8c0.1,0.7,0.1,1.6,0,2.6c0.3-1.1,0.5-2.1,0.8-2.8l3.1-7.9
				C715.1,919.2,716.8,919.1,717.4,919.1L717.4,919.1z"/>
		</g>
		<g>
			<path fill="#5B5B5F" d="M725.1,927c0,1.7-1,2.9-3.4,3.4l-2.5,0.5c0.2,1.1,0.9,1.6,2,1.6c1.4,0,2.3-1.1,2.3-1.1s0.7,0.4,0.7,1.2
				c0,1.5-2.2,3-4.8,3c-2.6,0-4.4-1.7-4.4-4.5c0-3.2,2.3-7.6,6.4-7.6C723.7,923.7,725.1,925,725.1,927L725.1,927z M720.8,928.7
				c0.5-0.2,0.7-0.6,0.7-1.1c0-0.5-0.2-1.2-0.7-1.2c-1,0-1.5,1.6-1.6,2.9L720.8,928.7z"/>
		</g>
		<g>
			<path fill="#5B5B5F" d="M732,923.7c2.1,0,3.6,1.1,3.6,2.5c0,1.8-2.2,2.4-2.2,2.4s-0.6-1.9-2.1-1.9c-1,0-1.5,1-1.5,3.1
				c0,1.9,0.5,2.8,1.8,2.8c1.3,0,2.1-0.9,2.1-0.9s0.7,0.4,0.7,1.2c0,1.4-2.1,2.9-4.6,2.9c-2.7,0-4.3-1.7-4.3-4.4
				C725.5,928.1,727.8,923.7,732,923.7L732,923.7z"/>
		</g>
		<g>
			<path fill="#5B5B5F" d="M741.9,921.1c0.5,0,0.8,0.4,0.8,0.4l-0.4,2.4h2.6l-0.6,1.9c-0.2,0.6-0.5,0.9-1.1,0.9h-1.4l-0.8,4.8
				c-0.1,0.8,0,1.1,0.6,1.1c0.5,0,0.9-0.3,0.9-0.3s0.7,0.4,0.7,1.2c0,1.2-1.7,2.3-3.8,2.3c-2.2,0-3.1-1.4-2.8-3.8l0.8-5.3h-1.4
				l0.6-1.9c0.2-0.5,0.6-0.9,1.1-0.9h0.7l0.8-2.3C740.5,921.4,741.4,921.1,741.9,921.1L741.9,921.1z"/>
		</g>
		<g>
			<path fill="#5B5B5F" d="M754.5,927c0,1.7-1,2.9-3.4,3.4l-2.5,0.5c0.2,1.1,0.9,1.6,2,1.6c1.4,0,2.3-1.1,2.3-1.1s0.7,0.4,0.7,1.2
				c0,1.5-2.2,3-4.8,3c-2.6,0-4.4-1.7-4.4-4.5c0-3.2,2.3-7.6,6.4-7.6C753.1,923.7,754.5,925,754.5,927L754.5,927z M750.2,928.7
				c0.5-0.2,0.7-0.6,0.7-1.1c0-0.5-0.2-1.2-0.7-1.2c-1,0-1.5,1.6-1.6,2.9L750.2,928.7z"/>
		</g>
		<g>
			<path fill="#5B5B5F" d="M764.9,927c0,1.7-1,2.9-3.4,3.4l-2.5,0.5c0.2,1.1,0.9,1.6,2,1.6c1.4,0,2.3-1.1,2.3-1.1s0.7,0.4,0.7,1.2
				c0,1.5-2.2,3-4.8,3c-2.6,0-4.4-1.7-4.4-4.5c0-3.2,2.3-7.6,6.4-7.6C763.5,923.7,764.9,925,764.9,927L764.9,927z M760.6,928.7
				c0.5-0.2,0.7-0.6,0.7-1.1c0-0.5-0.2-1.2-0.7-1.2c-1,0-1.5,1.6-1.6,2.9L760.6,928.7z"/>
		</g>
		<g>
			<path fill="#5B5B5F" d="M773.4,931.4c0,0,0.9,0.8,0.9,2.1c0,1.8-1.5,2.3-2.8,2.3c-1.7,0-2.9-0.8-4.1-1.2c-0.3,0.4-0.7,0.8-1,1.2
				c0,0-1.9,0-1.9-1.3c0-1.5,2.6-4.2,5.4-7.2c-0.3-0.1-0.6-0.1-0.9-0.1c-1.6,0-2.2,0.8-2.2,0.8s-0.8-0.9-0.7-2.1
				c0.1-1.7,1.7-2.1,3-2.1c1.3,0,2.3,0.5,3.3,0.9l0.8-0.9c0,0,1.9,0.1,1.9,1.3c0,1.5-2.5,4.1-5.2,7c0.6,0.2,1.1,0.3,1.6,0.3
				C772.7,932.3,773.4,931.4,773.4,931.4L773.4,931.4z"/>
		</g>
		<g>
			<path fill="#5B5B5F" d="M785.5,934.8c-0.7,4.1-3.5,6.2-7,6.2c-2.3,0-3.9-1.2-3.9-2.6c0-0.9,0.8-1.3,0.8-1.3s0.8,0.7,2.3,0.7
				c1.4,0,3.3-0.6,3.7-2.8l0.3-1.7c-1,1.4-2.2,2.5-3.8,2.5c-1.8,0-2.6-1.5-2.1-4.5l0.5-3.2c0.3-2,0.4-3.6,0.4-3.6
				c1.3-0.2,3-0.8,3.6-0.8c0.5,0,0.9,0.4,0.9,0.4l-0.6,4l-0.6,3.7c-0.1,0.3,0,0.5,0.3,0.5c1.5,0,2.3-4.3,2.3-4.3
				c0.3-2,0.4-3.6,0.4-3.6c1.3-0.2,3-0.8,3.6-0.8c0.5,0,0.9,0.4,0.9,0.4l-0.6,4L785.5,934.8z"/>
		</g>
	</g>
	<g>
		<path fill="#5B5B5F" d="M612.8,924.3h4c0.9,0,1.6,0.1,2.1,0.2c0.6,0.2,1.2,0.5,1.6,1c0.5,0.5,0.8,1.1,1,1.8
			c0.2,0.7,0.4,1.6,0.4,2.6c0,0.9-0.1,1.7-0.3,2.3c-0.3,0.8-0.7,1.4-1.2,1.9c-0.4,0.4-0.9,0.7-1.5,0.9c-0.5,0.2-1.1,0.2-1.9,0.2
			h-4.1V924.3z M615,926.2v7.2h1.6c0.6,0,1.1,0,1.3-0.1c0.4-0.1,0.7-0.2,0.9-0.5c0.2-0.2,0.4-0.6,0.6-1c0.1-0.5,0.2-1.1,0.2-2
			c0-0.8-0.1-1.5-0.2-1.9s-0.4-0.8-0.6-1.1c-0.3-0.3-0.6-0.4-1-0.5c-0.3-0.1-0.9-0.1-1.8-0.1H615z"/>
		<path fill="#5B5B5F" d="M628,932.7l2.1,0.3c-0.3,0.8-0.7,1.3-1.3,1.7c-0.6,0.4-1.3,0.6-2.2,0.6c-1.4,0-2.4-0.4-3-1.3
			c-0.5-0.7-0.8-1.6-0.8-2.7c0-1.3,0.3-2.3,1-3.1c0.7-0.7,1.5-1.1,2.6-1.1c1.2,0,2.1,0.4,2.8,1.2c0.7,0.8,1,2,1,3.6H625
			c0,0.6,0.2,1.1,0.5,1.4c0.3,0.3,0.7,0.5,1.2,0.5c0.3,0,0.6-0.1,0.8-0.3C627.8,933.4,627.9,933.1,628,932.7z M628.2,930.6
			c0-0.6-0.2-1.1-0.5-1.4c-0.3-0.3-0.7-0.5-1.1-0.5c-0.5,0-0.8,0.2-1.1,0.5c-0.3,0.3-0.4,0.8-0.4,1.3H628.2z"/>
		<path fill="#5B5B5F" d="M630.9,932.9l2.1-0.3c0.1,0.4,0.3,0.7,0.5,0.9c0.3,0.2,0.7,0.3,1.1,0.3c0.5,0,0.9-0.1,1.2-0.3
			c0.2-0.1,0.3-0.3,0.3-0.6c0-0.2,0-0.3-0.1-0.4c-0.1-0.1-0.3-0.2-0.7-0.3c-1.7-0.4-2.7-0.7-3.2-1c-0.6-0.4-0.9-1-0.9-1.8
			c0-0.7,0.3-1.3,0.8-1.7c0.5-0.5,1.4-0.7,2.5-0.7c1.1,0,1.9,0.2,2.4,0.5c0.5,0.4,0.9,0.9,1.1,1.6l-2,0.4c-0.1-0.3-0.2-0.5-0.5-0.7
			c-0.2-0.2-0.6-0.2-1-0.2c-0.5,0-0.9,0.1-1.2,0.2c-0.2,0.1-0.2,0.2-0.2,0.4c0,0.1,0.1,0.3,0.2,0.4c0.2,0.1,0.8,0.3,1.9,0.6
			c1.1,0.3,1.9,0.6,2.3,0.9c0.4,0.4,0.7,0.9,0.7,1.5c0,0.7-0.3,1.3-0.9,1.9c-0.6,0.5-1.5,0.8-2.7,0.8c-1.1,0-1.9-0.2-2.5-0.7
			C631.5,934.3,631.1,933.7,630.9,932.9z"/>
		<path fill="#5B5B5F" d="M639.8,926.2v-1.9h2.1v1.9H639.8z M639.8,935.2v-7.9h2.1v7.9H639.8z"/>
		<path fill="#5B5B5F" d="M643.5,935.7l2.4,0.3c0,0.3,0.1,0.5,0.3,0.6c0.2,0.1,0.5,0.2,0.9,0.2c0.5,0,1-0.1,1.2-0.2
			c0.2-0.1,0.3-0.3,0.4-0.5c0.1-0.2,0.1-0.5,0.1-1v-1.1c-0.6,0.8-1.4,1.3-2.4,1.3c-1.1,0-1.9-0.4-2.5-1.3c-0.5-0.7-0.7-1.6-0.7-2.6
			c0-1.3,0.3-2.3,1-3c0.6-0.7,1.4-1,2.4-1c1,0,1.8,0.4,2.4,1.3v-1.1h1.9v7.1c0,0.9-0.1,1.6-0.2,2.1c-0.2,0.5-0.4,0.8-0.6,1.1
			c-0.3,0.3-0.6,0.5-1.1,0.6c-0.5,0.1-1,0.2-1.8,0.2c-1.3,0-2.3-0.2-2.8-0.7c-0.6-0.5-0.8-1-0.8-1.7
			C643.5,935.9,643.5,935.8,643.5,935.7z M645.3,931.1c0,0.8,0.2,1.4,0.5,1.8c0.3,0.4,0.7,0.6,1.2,0.6c0.5,0,0.9-0.2,1.3-0.6
			c0.4-0.4,0.5-1,0.5-1.8c0-0.8-0.2-1.4-0.5-1.8c-0.3-0.4-0.8-0.6-1.3-0.6c-0.5,0-0.9,0.2-1.2,0.6S645.3,930.3,645.3,931.1z"/>
		<path fill="#5B5B5F" d="M659.8,935.2h-2.1v-4c0-0.8,0-1.4-0.1-1.6c-0.1-0.2-0.2-0.4-0.4-0.6c-0.2-0.1-0.4-0.2-0.7-0.2
			c-0.4,0-0.7,0.1-1,0.3c-0.3,0.2-0.5,0.5-0.6,0.8s-0.2,0.9-0.2,1.8v3.6h-2.1v-7.9h1.9v1.2c0.7-0.9,1.6-1.3,2.6-1.3
			c0.5,0,0.9,0.1,1.3,0.2c0.4,0.2,0.7,0.4,0.9,0.6c0.2,0.3,0.3,0.5,0.4,0.9c0.1,0.3,0.1,0.8,0.1,1.4V935.2z"/>
		<path fill="#5B5B5F" d="M666.2,932.7l2.1,0.3c-0.3,0.8-0.7,1.3-1.3,1.7c-0.6,0.4-1.3,0.6-2.2,0.6c-1.4,0-2.4-0.4-3-1.3
			c-0.5-0.7-0.8-1.6-0.8-2.7c0-1.3,0.3-2.3,1-3.1s1.5-1.1,2.6-1.1c1.2,0,2.1,0.4,2.8,1.2c0.7,0.8,1,2,1,3.6h-5.2
			c0,0.6,0.2,1.1,0.5,1.4c0.3,0.3,0.7,0.5,1.2,0.5c0.3,0,0.6-0.1,0.8-0.3C665.9,933.4,666,933.1,666.2,932.7z M666.3,930.6
			c0-0.6-0.2-1.1-0.5-1.4c-0.3-0.3-0.7-0.5-1.1-0.5c-0.5,0-0.8,0.2-1.1,0.5c-0.3,0.3-0.4,0.8-0.4,1.3H666.3z"/>
		<path fill="#5B5B5F" d="M677,935.2H675V934c-0.3,0.4-0.7,0.8-1.1,1c-0.4,0.2-0.9,0.3-1.3,0.3c-0.9,0-1.7-0.4-2.3-1.1
			c-0.6-0.7-1-1.7-1-3c0-1.3,0.3-2.3,0.9-3c0.6-0.7,1.4-1,2.4-1c0.9,0,1.6,0.4,2.3,1.1v-3.9h2.1V935.2z M671.4,931.1
			c0,0.8,0.1,1.4,0.3,1.8c0.3,0.5,0.8,0.8,1.4,0.8c0.5,0,0.9-0.2,1.2-0.6c0.3-0.4,0.5-1,0.5-1.8c0-0.9-0.2-1.6-0.5-2
			c-0.3-0.4-0.7-0.6-1.3-0.6c-0.5,0-0.9,0.2-1.2,0.6C671.6,929.7,671.4,930.3,671.4,931.1z"/>
		<path fill="#5B5B5F" d="M682.5,935.2v-10.9h2.1v3.9c0.6-0.7,1.4-1.1,2.3-1.1c1,0,1.8,0.3,2.4,1c0.6,0.7,0.9,1.7,0.9,3
			c0,1.3-0.3,2.4-1,3.1c-0.6,0.7-1.4,1.1-2.3,1.1c-0.4,0-0.9-0.1-1.3-0.3c-0.4-0.2-0.8-0.6-1.1-1v1.2H682.5z M684.6,931.1
			c0,0.8,0.1,1.4,0.4,1.8c0.4,0.6,0.8,0.8,1.4,0.8c0.5,0,0.9-0.2,1.2-0.6c0.3-0.4,0.5-1,0.5-1.9c0-0.9-0.2-1.5-0.5-1.9
			s-0.7-0.6-1.3-0.6c-0.5,0-0.9,0.2-1.2,0.6S684.6,930.3,684.6,931.1z"/>
		<path fill="#5B5B5F" d="M690.6,927.3h2.2l1.9,5.6l1.8-5.6h2.2l-2.8,7.6l-0.5,1.4c-0.2,0.5-0.4,0.8-0.5,1.1s-0.4,0.4-0.6,0.6
			c-0.2,0.2-0.5,0.3-0.8,0.4c-0.3,0.1-0.7,0.1-1.1,0.1c-0.4,0-0.8,0-1.2-0.1l-0.2-1.6c0.3,0.1,0.6,0.1,0.9,0.1
			c0.5,0,0.8-0.1,1.1-0.4c0.2-0.3,0.4-0.6,0.5-1.1L690.6,927.3z"/>
	</g>
</g>
</svg>
