0
SECTION
2
HEADER
9
$ACADVER
1
AC1009
0
ENDSEC
0
SECTION
2
TABLES
0
TABLE
2
VPORT
70
1
0
VPORT
2
ACTIVE
70
0
10
0.0
20
0.0
11
0.0
21
0.0
12
0.0
22
0.0
13
0.0
23
0.0
14
0.0
24
0.0
15
0.0
25
0.0
16
0.0
26
0.0
36
0.0
17
0.0
27
0.0
37
0.0
40
0.0
41
0.0
42
0.0
43
0.0
44
0.0
50
0.0
51
0.0
71
0
72
1000
73
1
74
3
75
0
76
0
77
0
78
0
0
ENDTAB
0
ENDSEC
0
SECTION
2
ENTITIES
0
LINE
8
boundary
62
5
39
2
10
0.272500
20
0.272500
11
0.772500
21
0.272500
0
LINE
8
boundary
62
5
39
2
10
0.772500
20
0.272500
11
0.772500
21
0.262500
0
LINE
8
boundary
62
5
39
2
10
0.772500
20
0.262500
11
1.782500
21
0.262500
0
LINE
8
boundary
62
5
39
2
10
1.782500
20
0.262500
11
1.782500
21
0.372500
0
LINE
8
boundary
62
5
39
2
10
1.782500
20
0.372500
11
2.772500
21
0.372500
0
LINE
8
boundary
62
5
39
2
10
2.772500
20
0.372500
11
2.772500
21
0.262500
0
LINE
8
boundary
62
5
39
2
10
2.772500
20
0.262500
11
3.782500
21
0.262500
0
LINE
8
boundary
62
5
39
2
10
3.782500
20
0.262500
11
3.782500
21
0.372500
0
LINE
8
boundary
62
5
39
2
10
3.782500
20
0.372500
11
4.772500
21
0.372500
0
LINE
8
boundary
62
5
39
2
10
4.772500
20
0.372500
11
4.772500
21
0.262500
0
LINE
8
boundary
62
5
39
2
10
4.772500
20
0.262500
11
5.782500
21
0.262500
0
LINE
8
boundary
62
5
39
2
10
5.782500
20
0.262500
11
5.782500
21
0.372500
0
LINE
8
boundary
62
5
39
2
10
5.782500
20
0.372500
11
6.772500
21
0.372500
0
LINE
8
boundary
62
5
39
2
10
6.772500
20
0.372500
11
6.772500
21
0.272500
0
LINE
8
boundary
62
5
39
2
10
6.772500
20
0.272500
11
7.282500
21
0.272500
0
LINE
8
boundary
62
5
39
2
10
7.282500
20
0.272500
11
7.282500
21
0.772500
0
LINE
8
boundary
62
5
39
2
10
7.282500
20
0.772500
11
7.292500
21
0.772500
0
LINE
8
boundary
62
5
39
2
10
7.292500
20
0.772500
11
7.292500
21
1.782500
0
LINE
8
boundary
62
5
39
2
10
7.292500
20
1.782500
11
7.182500
21
1.782500
0
LINE
8
boundary
62
5
39
2
10
7.182500
20
1.782500
11
7.182500
21
2.772500
0
LINE
8
boundary
62
5
39
2
10
7.182500
20
2.772500
11
7.282500
21
2.772500
0
LINE
8
boundary
62
5
39
2
10
7.282500
20
2.772500
11
7.282500
21
3.282500
0
LINE
8
boundary
62
5
39
2
10
7.282500
20
3.282500
11
6.782500
21
3.282500
0
LINE
8
boundary
62
5
39
2
10
6.782500
20
3.282500
11
6.782500
21
3.292500
0
LINE
8
boundary
62
5
39
2
10
6.782500
20
3.292500
11
5.772500
21
3.292500
0
LINE
8
boundary
62
5
39
2
10
5.772500
20
3.292500
11
5.772500
21
3.182500
0
LINE
8
boundary
62
5
39
2
10
5.772500
20
3.182500
11
4.782500
21
3.182500
0
LINE
8
boundary
62
5
39
2
10
4.782500
20
3.182500
11
4.782500
21
3.292500
0
LINE
8
boundary
62
5
39
2
10
4.782500
20
3.292500
11
3.772500
21
3.292500
0
LINE
8
boundary
62
5
39
2
10
3.772500
20
3.292500
11
3.772500
21
3.182500
0
LINE
8
boundary
62
5
39
2
10
3.772500
20
3.182500
11
2.782500
21
3.182500
0
LINE
8
boundary
62
5
39
2
10
2.782500
20
3.182500
11
2.782500
21
3.292500
0
LINE
8
boundary
62
5
39
2
10
2.782500
20
3.292500
11
1.772500
21
3.292500
0
LINE
8
boundary
62
5
39
2
10
1.772500
20
3.292500
11
1.772500
21
3.182500
0
LINE
8
boundary
62
5
39
2
10
1.772500
20
3.182500
11
0.782500
21
3.182500
0
LINE
8
boundary
62
5
39
2
10
0.782500
20
3.182500
11
0.782500
21
3.282500
0
LINE
8
boundary
62
5
39
2
10
0.782500
20
3.282500
11
0.272500
21
3.282500
0
LINE
8
boundary
62
5
39
2
10
0.272500
20
3.282500
11
0.272500
21
2.782500
0
LINE
8
boundary
62
5
39
2
10
0.272500
20
2.782500
11
0.262500
21
2.782500
0
LINE
8
boundary
62
5
39
2
10
0.262500
20
2.782500
11
0.262500
21
1.772500
0
LINE
8
boundary
62
5
39
2
10
0.262500
20
1.772500
11
0.372500
21
1.772500
0
LINE
8
boundary
62
5
39
2
10
0.372500
20
1.772500
11
0.372500
21
0.782500
0
LINE
8
boundary
62
5
39
2
10
0.372500
20
0.782500
11
0.272500
21
0.782500
0
LINE
8
boundary
62
5
39
2
10
0.272500
20
0.782500
11
0.272500
21
0.272500
0
LINE
8
annotation
62
1
39
211
10
3.896642
20
1.241126
11
3.896642
21
2.313874
0
LINE
8
annotation
62
1
39
211
10
3.896642
20
2.313874
11
3.658156
21
2.075321
0
LINE
8
annotation
62
1
39
211
10
0.510850
20
0.394161
11
0.544165
21
0.394161
0
LINE
8
annotation
62
1
39
211
10
0.544165
20
0.394161
11
0.530860
21
0.347500
0
LINE
8
annotation
62
1
39
211
10
0.520836
20
0.407500
11
0.520836
21
0.380853
0
LINE
8
annotation
62
1
39
211
10
1.010850
20
0.394161
11
1.044165
21
0.394161
0
LINE
8
annotation
62
1
39
211
10
1.044165
20
0.394161
11
1.030860
21
0.347500
0
LINE
8
annotation
62
1
39
211
10
1.020836
20
0.407500
11
1.020836
21
0.380853
0
LINE
8
annotation
62
1
39
211
10
1.510850
20
0.394161
11
1.544165
21
0.394161
0
LINE
8
annotation
62
1
39
211
10
1.544165
20
0.394161
11
1.530860
21
0.347500
0
LINE
8
annotation
62
1
39
211
10
1.520836
20
0.407500
11
1.520836
21
0.380853
0
LINE
8
annotation
62
1
39
211
10
2.010850
20
0.394161
11
2.044165
21
0.394161
0
LINE
8
annotation
62
1
39
211
10
2.044165
20
0.394161
11
2.030860
21
0.347500
0
LINE
8
annotation
62
1
39
211
10
2.020836
20
0.407500
11
2.020836
21
0.380853
0
LINE
8
annotation
62
1
39
211
10
2.510850
20
0.394161
11
2.544165
21
0.394161
0
LINE
8
annotation
62
1
39
211
10
2.544165
20
0.394161
11
2.530860
21
0.347500
0
LINE
8
annotation
62
1
39
211
10
2.520836
20
0.407500
11
2.520836
21
0.380853
0
LINE
8
annotation
62
1
39
211
10
3.010850
20
0.394161
11
3.044165
21
0.394161
0
LINE
8
annotation
62
1
39
211
10
3.044165
20
0.394161
11
3.030860
21
0.347500
0
LINE
8
annotation
62
1
39
211
10
3.020836
20
0.407500
11
3.020836
21
0.380853
0
LINE
8
annotation
62
1
39
211
10
3.510850
20
0.394161
11
3.544165
21
0.394161
0
LINE
8
annotation
62
1
39
211
10
3.544165
20
0.394161
11
3.530860
21
0.347500
0
LINE
8
annotation
62
1
39
211
10
3.520836
20
0.407500
11
3.520836
21
0.380853
0
LINE
8
annotation
62
1
39
211
10
4.010850
20
0.394161
11
4.044165
21
0.394161
0
LINE
8
annotation
62
1
39
211
10
4.044165
20
0.394161
11
4.030860
21
0.347500
0
LINE
8
annotation
62
1
39
211
10
4.020836
20
0.407500
11
4.020836
21
0.380853
0
LINE
8
annotation
62
1
39
211
10
4.510850
20
0.394161
11
4.544165
21
0.394161
0
LINE
8
annotation
62
1
39
211
10
4.544165
20
0.394161
11
4.530860
21
0.347500
0
LINE
8
annotation
62
1
39
211
10
4.520836
20
0.407500
11
4.520836
21
0.380853
0
LINE
8
annotation
62
1
39
211
10
5.010850
20
0.394161
11
5.044165
21
0.394161
0
LINE
8
annotation
62
1
39
211
10
5.044165
20
0.394161
11
5.030860
21
0.347500
0
LINE
8
annotation
62
1
39
211
10
5.020836
20
0.407500
11
5.020836
21
0.380853
0
LINE
8
annotation
62
1
39
211
10
5.510850
20
0.394161
11
5.544165
21
0.394161
0
LINE
8
annotation
62
1
39
211
10
5.544165
20
0.394161
11
5.530860
21
0.347500
0
LINE
8
annotation
62
1
39
211
10
5.520836
20
0.407500
11
5.520836
21
0.380853
0
LINE
8
annotation
62
1
39
211
10
6.010850
20
0.394161
11
6.044165
21
0.394161
0
LINE
8
annotation
62
1
39
211
10
6.044165
20
0.394161
11
6.030860
21
0.347500
0
LINE
8
annotation
62
1
39
211
10
6.020836
20
0.407500
11
6.020836
21
0.380853
0
LINE
8
annotation
62
1
39
211
10
6.510850
20
0.394161
11
6.544165
21
0.394161
0
LINE
8
annotation
62
1
39
211
10
6.544165
20
0.394161
11
6.530860
21
0.347500
0
LINE
8
annotation
62
1
39
211
10
6.520836
20
0.407500
11
6.520836
21
0.380853
0
LINE
8
annotation
62
1
39
211
10
7.010850
20
0.394161
11
7.044165
21
0.394161
0
LINE
8
annotation
62
1
39
211
10
7.044165
20
0.394161
11
7.030860
21
0.347500
0
LINE
8
annotation
62
1
39
211
10
7.020836
20
0.407500
11
7.020836
21
0.380853
0
LINE
8
annotation
62
1
39
211
10
7.147500
20
0.520836
11
7.207500
21
0.520836
0
LINE
8
annotation
62
1
39
211
10
7.207500
20
0.520836
11
7.194157
21
0.534175
0
LINE
8
annotation
62
1
39
211
10
7.147500
20
1.020836
11
7.207500
21
1.020836
0
LINE
8
annotation
62
1
39
211
10
7.207500
20
1.020836
11
7.194157
21
1.034175
0
LINE
8
annotation
62
1
39
211
10
7.147500
20
1.520836
11
7.207500
21
1.520836
0
LINE
8
annotation
62
1
39
211
10
7.207500
20
1.520836
11
7.194157
21
1.534175
0
LINE
8
annotation
62
1
39
211
10
7.147500
20
2.020836
11
7.207500
21
2.020836
0
LINE
8
annotation
62
1
39
211
10
7.207500
20
2.020836
11
7.194157
21
2.034175
0
LINE
8
annotation
62
1
39
211
10
7.147500
20
2.520836
11
7.207500
21
2.520836
0
LINE
8
annotation
62
1
39
211
10
7.207500
20
2.520836
11
7.194157
21
2.534175
0
LINE
8
annotation
62
1
39
211
10
7.147500
20
3.020836
11
7.207500
21
3.020836
0
LINE
8
annotation
62
1
39
211
10
7.207500
20
3.020836
11
7.194157
21
3.034175
0
LINE
8
annotation
62
1
39
211
10
7.014169
20
3.147500
11
7.027492
21
3.147500
0
LINE
8
annotation
62
1
39
211
10
7.027492
20
3.147500
11
7.027492
21
3.147500
0
LINE
8
annotation
62
1
39
211
10
7.027492
20
3.147500
11
7.029884
21
3.147715
0
LINE
8
annotation
62
1
39
211
10
7.029884
20
3.147715
11
7.032136
21
3.148335
0
LINE
8
annotation
62
1
39
211
10
7.032136
20
3.148335
11
7.034211
21
3.149322
0
LINE
8
annotation
62
1
39
211
10
7.034211
20
3.149322
11
7.036071
21
3.150638
0
LINE
8
annotation
62
1
39
211
10
7.036071
20
3.150638
11
7.037678
21
3.152246
0
LINE
8
annotation
62
1
39
211
10
7.037678
20
3.152246
11
7.038994
21
3.154108
0
LINE
8
annotation
62
1
39
211
10
7.038994
20
3.154108
11
7.039981
21
3.156186
0
LINE
8
annotation
62
1
39
211
10
7.039981
20
3.156186
11
7.040601
21
3.158442
0
LINE
8
annotation
62
1
39
211
10
7.040601
20
3.158442
11
7.040816
21
3.160839
0
LINE
8
annotation
62
1
39
211
10
7.040816
20
3.160839
11
7.040816
21
3.167476
0
LINE
8
annotation
62
1
39
211
10
7.040816
20
3.167476
11
7.040816
21
3.167476
0
LINE
8
annotation
62
1
39
211
10
7.040816
20
3.167476
11
7.040601
21
3.169872
0
LINE
8
annotation
62
1
39
211
10
7.040601
20
3.169872
11
7.039981
21
3.172125
0
LINE
8
annotation
62
1
39
211
10
7.039981
20
3.172125
11
7.038995
21
3.174198
0
LINE
8
annotation
62
1
39
211
10
7.038995
20
3.174198
11
7.037679
21
3.176055
0
LINE
8
annotation
62
1
39
211
10
7.037679
20
3.176055
11
7.036073
21
3.177657
0
LINE
8
annotation
62
1
39
211
10
7.036073
20
3.177657
11
7.034213
21
3.178968
0
LINE
8
annotation
62
1
39
211
10
7.034213
20
3.178968
11
7.032138
21
3.179950
0
LINE
8
annotation
62
1
39
211
10
7.032138
20
3.179950
11
7.029885
21
3.180567
0
LINE
8
annotation
62
1
39
211
10
7.029885
20
3.180567
11
7.027492
21
3.180781
0
LINE
8
annotation
62
1
39
211
10
7.027492
20
3.180781
11
7.014169
21
3.180781
0
LINE
8
annotation
62
1
39
211
10
7.014169
20
3.180781
11
7.014169
21
3.207500
0
LINE
8
annotation
62
1
39
211
10
7.014169
20
3.207500
11
7.040816
21
3.207500
0
LINE
8
annotation
62
1
39
211
10
6.514169
20
3.147500
11
6.527492
21
3.147500
0
LINE
8
annotation
62
1
39
211
10
6.527492
20
3.147500
11
6.527492
21
3.147500
0
LINE
8
annotation
62
1
39
211
10
6.527492
20
3.147500
11
6.529884
21
3.147715
0
LINE
8
annotation
62
1
39
211
10
6.529884
20
3.147715
11
6.532136
21
3.148335
0
LINE
8
annotation
62
1
39
211
10
6.532136
20
3.148335
11
6.534211
21
3.149322
0
LINE
8
annotation
62
1
39
211
10
6.534211
20
3.149322
11
6.536071
21
3.150638
0
LINE
8
annotation
62
1
39
211
10
6.536071
20
3.150638
11
6.537678
21
3.152246
0
LINE
8
annotation
62
1
39
211
10
6.537678
20
3.152246
11
6.538994
21
3.154108
0
LINE
8
annotation
62
1
39
211
10
6.538994
20
3.154108
11
6.539981
21
3.156186
0
LINE
8
annotation
62
1
39
211
10
6.539981
20
3.156186
11
6.540601
21
3.158442
0
LINE
8
annotation
62
1
39
211
10
6.540601
20
3.158442
11
6.540816
21
3.160839
0
LINE
8
annotation
62
1
39
211
10
6.540816
20
3.160839
11
6.540816
21
3.167476
0
LINE
8
annotation
62
1
39
211
10
6.540816
20
3.167476
11
6.540816
21
3.167476
0
LINE
8
annotation
62
1
39
211
10
6.540816
20
3.167476
11
6.540601
21
3.169872
0
LINE
8
annotation
62
1
39
211
10
6.540601
20
3.169872
11
6.539981
21
3.172125
0
LINE
8
annotation
62
1
39
211
10
6.539981
20
3.172125
11
6.538995
21
3.174198
0
LINE
8
annotation
62
1
39
211
10
6.538995
20
3.174198
11
6.537679
21
3.176055
0
LINE
8
annotation
62
1
39
211
10
6.537679
20
3.176055
11
6.536073
21
3.177657
0
LINE
8
annotation
62
1
39
211
10
6.536073
20
3.177657
11
6.534213
21
3.178968
0
LINE
8
annotation
62
1
39
211
10
6.534213
20
3.178968
11
6.532138
21
3.179950
0
LINE
8
annotation
62
1
39
211
10
6.532138
20
3.179950
11
6.529885
21
3.180567
0
LINE
8
annotation
62
1
39
211
10
6.529885
20
3.180567
11
6.527492
21
3.180781
0
LINE
8
annotation
62
1
39
211
10
6.527492
20
3.180781
11
6.514169
21
3.180781
0
LINE
8
annotation
62
1
39
211
10
6.514169
20
3.180781
11
6.514169
21
3.207500
0
LINE
8
annotation
62
1
39
211
10
6.514169
20
3.207500
11
6.540816
21
3.207500
0
LINE
8
annotation
62
1
39
211
10
6.014169
20
3.147500
11
6.027492
21
3.147500
0
LINE
8
annotation
62
1
39
211
10
6.027492
20
3.147500
11
6.027492
21
3.147500
0
LINE
8
annotation
62
1
39
211
10
6.027492
20
3.147500
11
6.029884
21
3.147715
0
LINE
8
annotation
62
1
39
211
10
6.029884
20
3.147715
11
6.032136
21
3.148335
0
LINE
8
annotation
62
1
39
211
10
6.032136
20
3.148335
11
6.034211
21
3.149322
0
LINE
8
annotation
62
1
39
211
10
6.034211
20
3.149322
11
6.036071
21
3.150638
0
LINE
8
annotation
62
1
39
211
10
6.036071
20
3.150638
11
6.037678
21
3.152246
0
LINE
8
annotation
62
1
39
211
10
6.037678
20
3.152246
11
6.038994
21
3.154108
0
LINE
8
annotation
62
1
39
211
10
6.038994
20
3.154108
11
6.039981
21
3.156186
0
LINE
8
annotation
62
1
39
211
10
6.039981
20
3.156186
11
6.040601
21
3.158442
0
LINE
8
annotation
62
1
39
211
10
6.040601
20
3.158442
11
6.040816
21
3.160839
0
LINE
8
annotation
62
1
39
211
10
6.040816
20
3.160839
11
6.040816
21
3.167476
0
LINE
8
annotation
62
1
39
211
10
6.040816
20
3.167476
11
6.040816
21
3.167476
0
LINE
8
annotation
62
1
39
211
10
6.040816
20
3.167476
11
6.040601
21
3.169872
0
LINE
8
annotation
62
1
39
211
10
6.040601
20
3.169872
11
6.039981
21
3.172125
0
LINE
8
annotation
62
1
39
211
10
6.039981
20
3.172125
11
6.038995
21
3.174198
0
LINE
8
annotation
62
1
39
211
10
6.038995
20
3.174198
11
6.037679
21
3.176055
0
LINE
8
annotation
62
1
39
211
10
6.037679
20
3.176055
11
6.036073
21
3.177657
0
LINE
8
annotation
62
1
39
211
10
6.036073
20
3.177657
11
6.034213
21
3.178968
0
LINE
8
annotation
62
1
39
211
10
6.034213
20
3.178968
11
6.032138
21
3.179950
0
LINE
8
annotation
62
1
39
211
10
6.032138
20
3.179950
11
6.029885
21
3.180567
0
LINE
8
annotation
62
1
39
211
10
6.029885
20
3.180567
11
6.027492
21
3.180781
0
LINE
8
annotation
62
1
39
211
10
6.027492
20
3.180781
11
6.014169
21
3.180781
0
LINE
8
annotation
62
1
39
211
10
6.014169
20
3.180781
11
6.014169
21
3.207500
0
LINE
8
annotation
62
1
39
211
10
6.014169
20
3.207500
11
6.040816
21
3.207500
0
LINE
8
annotation
62
1
39
211
10
5.514169
20
3.147500
11
5.527492
21
3.147500
0
LINE
8
annotation
62
1
39
211
10
5.527492
20
3.147500
11
5.527492
21
3.147500
0
LINE
8
annotation
62
1
39
211
10
5.527492
20
3.147500
11
5.529884
21
3.147715
0
LINE
8
annotation
62
1
39
211
10
5.529884
20
3.147715
11
5.532136
21
3.148335
0
LINE
8
annotation
62
1
39
211
10
5.532136
20
3.148335
11
5.534211
21
3.149322
0
LINE
8
annotation
62
1
39
211
10
5.534211
20
3.149322
11
5.536071
21
3.150638
0
LINE
8
annotation
62
1
39
211
10
5.536071
20
3.150638
11
5.537678
21
3.152246
0
LINE
8
annotation
62
1
39
211
10
5.537678
20
3.152246
11
5.538994
21
3.154108
0
LINE
8
annotation
62
1
39
211
10
5.538994
20
3.154108
11
5.539981
21
3.156186
0
LINE
8
annotation
62
1
39
211
10
5.539981
20
3.156186
11
5.540601
21
3.158442
0
LINE
8
annotation
62
1
39
211
10
5.540601
20
3.158442
11
5.540816
21
3.160839
0
LINE
8
annotation
62
1
39
211
10
5.540816
20
3.160839
11
5.540816
21
3.167476
0
LINE
8
annotation
62
1
39
211
10
5.540816
20
3.167476
11
5.540816
21
3.167476
0
LINE
8
annotation
62
1
39
211
10
5.540816
20
3.167476
11
5.540601
21
3.169872
0
LINE
8
annotation
62
1
39
211
10
5.540601
20
3.169872
11
5.539981
21
3.172125
0
LINE
8
annotation
62
1
39
211
10
5.539981
20
3.172125
11
5.538995
21
3.174198
0
LINE
8
annotation
62
1
39
211
10
5.538995
20
3.174198
11
5.537679
21
3.176055
0
LINE
8
annotation
62
1
39
211
10
5.537679
20
3.176055
11
5.536073
21
3.177657
0
LINE
8
annotation
62
1
39
211
10
5.536073
20
3.177657
11
5.534213
21
3.178968
0
LINE
8
annotation
62
1
39
211
10
5.534213
20
3.178968
11
5.532138
21
3.179950
0
LINE
8
annotation
62
1
39
211
10
5.532138
20
3.179950
11
5.529885
21
3.180567
0
LINE
8
annotation
62
1
39
211
10
5.529885
20
3.180567
11
5.527492
21
3.180781
0
LINE
8
annotation
62
1
39
211
10
5.527492
20
3.180781
11
5.514169
21
3.180781
0
LINE
8
annotation
62
1
39
211
10
5.514169
20
3.180781
11
5.514169
21
3.207500
0
LINE
8
annotation
62
1
39
211
10
5.514169
20
3.207500
11
5.540816
21
3.207500
0
LINE
8
annotation
62
1
39
211
10
5.014169
20
3.147500
11
5.027492
21
3.147500
0
LINE
8
annotation
62
1
39
211
10
5.027492
20
3.147500
11
5.027492
21
3.147500
0
LINE
8
annotation
62
1
39
211
10
5.027492
20
3.147500
11
5.029884
21
3.147715
0
LINE
8
annotation
62
1
39
211
10
5.029884
20
3.147715
11
5.032136
21
3.148335
0
LINE
8
annotation
62
1
39
211
10
5.032136
20
3.148335
11
5.034211
21
3.149322
0
LINE
8
annotation
62
1
39
211
10
5.034211
20
3.149322
11
5.036071
21
3.150638
0
LINE
8
annotation
62
1
39
211
10
5.036071
20
3.150638
11
5.037678
21
3.152246
0
LINE
8
annotation
62
1
39
211
10
5.037678
20
3.152246
11
5.038994
21
3.154108
0
LINE
8
annotation
62
1
39
211
10
5.038994
20
3.154108
11
5.039981
21
3.156186
0
LINE
8
annotation
62
1
39
211
10
5.039981
20
3.156186
11
5.040601
21
3.158442
0
LINE
8
annotation
62
1
39
211
10
5.040601
20
3.158442
11
5.040816
21
3.160839
0
LINE
8
annotation
62
1
39
211
10
5.040816
20
3.160839
11
5.040816
21
3.167476
0
LINE
8
annotation
62
1
39
211
10
5.040816
20
3.167476
11
5.040816
21
3.167476
0
LINE
8
annotation
62
1
39
211
10
5.040816
20
3.167476
11
5.040601
21
3.169872
0
LINE
8
annotation
62
1
39
211
10
5.040601
20
3.169872
11
5.039981
21
3.172125
0
LINE
8
annotation
62
1
39
211
10
5.039981
20
3.172125
11
5.038995
21
3.174198
0
LINE
8
annotation
62
1
39
211
10
5.038995
20
3.174198
11
5.037679
21
3.176055
0
LINE
8
annotation
62
1
39
211
10
5.037679
20
3.176055
11
5.036073
21
3.177657
0
LINE
8
annotation
62
1
39
211
10
5.036073
20
3.177657
11
5.034213
21
3.178968
0
LINE
8
annotation
62
1
39
211
10
5.034213
20
3.178968
11
5.032138
21
3.179950
0
LINE
8
annotation
62
1
39
211
10
5.032138
20
3.179950
11
5.029885
21
3.180567
0
LINE
8
annotation
62
1
39
211
10
5.029885
20
3.180567
11
5.027492
21
3.180781
0
LINE
8
annotation
62
1
39
211
10
5.027492
20
3.180781
11
5.014169
21
3.180781
0
LINE
8
annotation
62
1
39
211
10
5.014169
20
3.180781
11
5.014169
21
3.207500
0
LINE
8
annotation
62
1
39
211
10
5.014169
20
3.207500
11
5.040816
21
3.207500
0
LINE
8
annotation
62
1
39
211
10
4.514169
20
3.147500
11
4.527492
21
3.147500
0
LINE
8
annotation
62
1
39
211
10
4.527492
20
3.147500
11
4.527492
21
3.147500
0
LINE
8
annotation
62
1
39
211
10
4.527492
20
3.147500
11
4.529884
21
3.147715
0
LINE
8
annotation
62
1
39
211
10
4.529884
20
3.147715
11
4.532136
21
3.148335
0
LINE
8
annotation
62
1
39
211
10
4.532136
20
3.148335
11
4.534211
21
3.149322
0
LINE
8
annotation
62
1
39
211
10
4.534211
20
3.149322
11
4.536071
21
3.150638
0
LINE
8
annotation
62
1
39
211
10
4.536071
20
3.150638
11
4.537678
21
3.152246
0
LINE
8
annotation
62
1
39
211
10
4.537678
20
3.152246
11
4.538994
21
3.154108
0
LINE
8
annotation
62
1
39
211
10
4.538994
20
3.154108
11
4.539981
21
3.156186
0
LINE
8
annotation
62
1
39
211
10
4.539981
20
3.156186
11
4.540601
21
3.158442
0
LINE
8
annotation
62
1
39
211
10
4.540601
20
3.158442
11
4.540816
21
3.160839
0
LINE
8
annotation
62
1
39
211
10
4.540816
20
3.160839
11
4.540816
21
3.167476
0
LINE
8
annotation
62
1
39
211
10
4.540816
20
3.167476
11
4.540816
21
3.167476
0
LINE
8
annotation
62
1
39
211
10
4.540816
20
3.167476
11
4.540601
21
3.169872
0
LINE
8
annotation
62
1
39
211
10
4.540601
20
3.169872
11
4.539981
21
3.172125
0
LINE
8
annotation
62
1
39
211
10
4.539981
20
3.172125
11
4.538995
21
3.174198
0
LINE
8
annotation
62
1
39
211
10
4.538995
20
3.174198
11
4.537679
21
3.176055
0
LINE
8
annotation
62
1
39
211
10
4.537679
20
3.176055
11
4.536073
21
3.177657
0
LINE
8
annotation
62
1
39
211
10
4.536073
20
3.177657
11
4.534213
21
3.178968
0
LINE
8
annotation
62
1
39
211
10
4.534213
20
3.178968
11
4.532138
21
3.179950
0
LINE
8
annotation
62
1
39
211
10
4.532138
20
3.179950
11
4.529885
21
3.180567
0
LINE
8
annotation
62
1
39
211
10
4.529885
20
3.180567
11
4.527492
21
3.180781
0
LINE
8
annotation
62
1
39
211
10
4.527492
20
3.180781
11
4.514169
21
3.180781
0
LINE
8
annotation
62
1
39
211
10
4.514169
20
3.180781
11
4.514169
21
3.207500
0
LINE
8
annotation
62
1
39
211
10
4.514169
20
3.207500
11
4.540816
21
3.207500
0
LINE
8
annotation
62
1
39
211
10
4.014169
20
3.147500
11
4.027492
21
3.147500
0
LINE
8
annotation
62
1
39
211
10
4.027492
20
3.147500
11
4.027492
21
3.147500
0
LINE
8
annotation
62
1
39
211
10
4.027492
20
3.147500
11
4.029884
21
3.147715
0
LINE
8
annotation
62
1
39
211
10
4.029884
20
3.147715
11
4.032136
21
3.148335
0
LINE
8
annotation
62
1
39
211
10
4.032136
20
3.148335
11
4.034211
21
3.149322
0
LINE
8
annotation
62
1
39
211
10
4.034211
20
3.149322
11
4.036071
21
3.150638
0
LINE
8
annotation
62
1
39
211
10
4.036071
20
3.150638
11
4.037678
21
3.152246
0
LINE
8
annotation
62
1
39
211
10
4.037678
20
3.152246
11
4.038994
21
3.154108
0
LINE
8
annotation
62
1
39
211
10
4.038994
20
3.154108
11
4.039981
21
3.156186
0
LINE
8
annotation
62
1
39
211
10
4.039981
20
3.156186
11
4.040601
21
3.158442
0
LINE
8
annotation
62
1
39
211
10
4.040601
20
3.158442
11
4.040816
21
3.160839
0
LINE
8
annotation
62
1
39
211
10
4.040816
20
3.160839
11
4.040816
21
3.167476
0
LINE
8
annotation
62
1
39
211
10
4.040816
20
3.167476
11
4.040816
21
3.167476
0
LINE
8
annotation
62
1
39
211
10
4.040816
20
3.167476
11
4.040601
21
3.169872
0
LINE
8
annotation
62
1
39
211
10
4.040601
20
3.169872
11
4.039981
21
3.172125
0
LINE
8
annotation
62
1
39
211
10
4.039981
20
3.172125
11
4.038995
21
3.174198
0
LINE
8
annotation
62
1
39
211
10
4.038995
20
3.174198
11
4.037679
21
3.176055
0
LINE
8
annotation
62
1
39
211
10
4.037679
20
3.176055
11
4.036073
21
3.177657
0
LINE
8
annotation
62
1
39
211
10
4.036073
20
3.177657
11
4.034213
21
3.178968
0
LINE
8
annotation
62
1
39
211
10
4.034213
20
3.178968
11
4.032138
21
3.179950
0
LINE
8
annotation
62
1
39
211
10
4.032138
20
3.179950
11
4.029885
21
3.180567
0
LINE
8
annotation
62
1
39
211
10
4.029885
20
3.180567
11
4.027492
21
3.180781
0
LINE
8
annotation
62
1
39
211
10
4.027492
20
3.180781
11
4.014169
21
3.180781
0
LINE
8
annotation
62
1
39
211
10
4.014169
20
3.180781
11
4.014169
21
3.207500
0
LINE
8
annotation
62
1
39
211
10
4.014169
20
3.207500
11
4.040816
21
3.207500
0
LINE
8
annotation
62
1
39
211
10
3.514169
20
3.147500
11
3.527492
21
3.147500
0
LINE
8
annotation
62
1
39
211
10
3.527492
20
3.147500
11
3.527492
21
3.147500
0
LINE
8
annotation
62
1
39
211
10
3.527492
20
3.147500
11
3.529884
21
3.147715
0
LINE
8
annotation
62
1
39
211
10
3.529884
20
3.147715
11
3.532136
21
3.148335
0
LINE
8
annotation
62
1
39
211
10
3.532136
20
3.148335
11
3.534211
21
3.149322
0
LINE
8
annotation
62
1
39
211
10
3.534211
20
3.149322
11
3.536071
21
3.150638
0
LINE
8
annotation
62
1
39
211
10
3.536071
20
3.150638
11
3.537678
21
3.152246
0
LINE
8
annotation
62
1
39
211
10
3.537678
20
3.152246
11
3.538994
21
3.154108
0
LINE
8
annotation
62
1
39
211
10
3.538994
20
3.154108
11
3.539981
21
3.156186
0
LINE
8
annotation
62
1
39
211
10
3.539981
20
3.156186
11
3.540601
21
3.158442
0
LINE
8
annotation
62
1
39
211
10
3.540601
20
3.158442
11
3.540816
21
3.160839
0
LINE
8
annotation
62
1
39
211
10
3.540816
20
3.160839
11
3.540816
21
3.167476
0
LINE
8
annotation
62
1
39
211
10
3.540816
20
3.167476
11
3.540816
21
3.167476
0
LINE
8
annotation
62
1
39
211
10
3.540816
20
3.167476
11
3.540601
21
3.169872
0
LINE
8
annotation
62
1
39
211
10
3.540601
20
3.169872
11
3.539981
21
3.172125
0
LINE
8
annotation
62
1
39
211
10
3.539981
20
3.172125
11
3.538995
21
3.174198
0
LINE
8
annotation
62
1
39
211
10
3.538995
20
3.174198
11
3.537679
21
3.176055
0
LINE
8
annotation
62
1
39
211
10
3.537679
20
3.176055
11
3.536073
21
3.177657
0
LINE
8
annotation
62
1
39
211
10
3.536073
20
3.177657
11
3.534213
21
3.178968
0
LINE
8
annotation
62
1
39
211
10
3.534213
20
3.178968
11
3.532138
21
3.179950
0
LINE
8
annotation
62
1
39
211
10
3.532138
20
3.179950
11
3.529885
21
3.180567
0
LINE
8
annotation
62
1
39
211
10
3.529885
20
3.180567
11
3.527492
21
3.180781
0
LINE
8
annotation
62
1
39
211
10
3.527492
20
3.180781
11
3.514169
21
3.180781
0
LINE
8
annotation
62
1
39
211
10
3.514169
20
3.180781
11
3.514169
21
3.207500
0
LINE
8
annotation
62
1
39
211
10
3.514169
20
3.207500
11
3.540816
21
3.207500
0
LINE
8
annotation
62
1
39
211
10
3.014169
20
3.147500
11
3.027492
21
3.147500
0
LINE
8
annotation
62
1
39
211
10
3.027492
20
3.147500
11
3.027492
21
3.147500
0
LINE
8
annotation
62
1
39
211
10
3.027492
20
3.147500
11
3.029884
21
3.147715
0
LINE
8
annotation
62
1
39
211
10
3.029884
20
3.147715
11
3.032136
21
3.148335
0
LINE
8
annotation
62
1
39
211
10
3.032136
20
3.148335
11
3.034211
21
3.149322
0
LINE
8
annotation
62
1
39
211
10
3.034211
20
3.149322
11
3.036071
21
3.150638
0
LINE
8
annotation
62
1
39
211
10
3.036071
20
3.150638
11
3.037678
21
3.152246
0
LINE
8
annotation
62
1
39
211
10
3.037678
20
3.152246
11
3.038994
21
3.154108
0
LINE
8
annotation
62
1
39
211
10
3.038994
20
3.154108
11
3.039981
21
3.156186
0
LINE
8
annotation
62
1
39
211
10
3.039981
20
3.156186
11
3.040601
21
3.158442
0
LINE
8
annotation
62
1
39
211
10
3.040601
20
3.158442
11
3.040816
21
3.160839
0
LINE
8
annotation
62
1
39
211
10
3.040816
20
3.160839
11
3.040816
21
3.167476
0
LINE
8
annotation
62
1
39
211
10
3.040816
20
3.167476
11
3.040816
21
3.167476
0
LINE
8
annotation
62
1
39
211
10
3.040816
20
3.167476
11
3.040601
21
3.169872
0
LINE
8
annotation
62
1
39
211
10
3.040601
20
3.169872
11
3.039981
21
3.172125
0
LINE
8
annotation
62
1
39
211
10
3.039981
20
3.172125
11
3.038995
21
3.174198
0
LINE
8
annotation
62
1
39
211
10
3.038995
20
3.174198
11
3.037679
21
3.176055
0
LINE
8
annotation
62
1
39
211
10
3.037679
20
3.176055
11
3.036073
21
3.177657
0
LINE
8
annotation
62
1
39
211
10
3.036073
20
3.177657
11
3.034213
21
3.178968
0
LINE
8
annotation
62
1
39
211
10
3.034213
20
3.178968
11
3.032138
21
3.179950
0
LINE
8
annotation
62
1
39
211
10
3.032138
20
3.179950
11
3.029885
21
3.180567
0
LINE
8
annotation
62
1
39
211
10
3.029885
20
3.180567
11
3.027492
21
3.180781
0
LINE
8
annotation
62
1
39
211
10
3.027492
20
3.180781
11
3.014169
21
3.180781
0
LINE
8
annotation
62
1
39
211
10
3.014169
20
3.180781
11
3.014169
21
3.207500
0
LINE
8
annotation
62
1
39
211
10
3.014169
20
3.207500
11
3.040816
21
3.207500
0
LINE
8
annotation
62
1
39
211
10
2.514169
20
3.147500
11
2.527492
21
3.147500
0
LINE
8
annotation
62
1
39
211
10
2.527492
20
3.147500
11
2.527492
21
3.147500
0
LINE
8
annotation
62
1
39
211
10
2.527492
20
3.147500
11
2.529884
21
3.147715
0
LINE
8
annotation
62
1
39
211
10
2.529884
20
3.147715
11
2.532136
21
3.148335
0
LINE
8
annotation
62
1
39
211
10
2.532136
20
3.148335
11
2.534211
21
3.149322
0
LINE
8
annotation
62
1
39
211
10
2.534211
20
3.149322
11
2.536071
21
3.150638
0
LINE
8
annotation
62
1
39
211
10
2.536071
20
3.150638
11
2.537678
21
3.152246
0
LINE
8
annotation
62
1
39
211
10
2.537678
20
3.152246
11
2.538994
21
3.154108
0
LINE
8
annotation
62
1
39
211
10
2.538994
20
3.154108
11
2.539981
21
3.156186
0
LINE
8
annotation
62
1
39
211
10
2.539981
20
3.156186
11
2.540601
21
3.158442
0
LINE
8
annotation
62
1
39
211
10
2.540601
20
3.158442
11
2.540816
21
3.160839
0
LINE
8
annotation
62
1
39
211
10
2.540816
20
3.160839
11
2.540816
21
3.167476
0
LINE
8
annotation
62
1
39
211
10
2.540816
20
3.167476
11
2.540816
21
3.167476
0
LINE
8
annotation
62
1
39
211
10
2.540816
20
3.167476
11
2.540601
21
3.169872
0
LINE
8
annotation
62
1
39
211
10
2.540601
20
3.169872
11
2.539981
21
3.172125
0
LINE
8
annotation
62
1
39
211
10
2.539981
20
3.172125
11
2.538995
21
3.174198
0
LINE
8
annotation
62
1
39
211
10
2.538995
20
3.174198
11
2.537679
21
3.176055
0
LINE
8
annotation
62
1
39
211
10
2.537679
20
3.176055
11
2.536073
21
3.177657
0
LINE
8
annotation
62
1
39
211
10
2.536073
20
3.177657
11
2.534213
21
3.178968
0
LINE
8
annotation
62
1
39
211
10
2.534213
20
3.178968
11
2.532138
21
3.179950
0
LINE
8
annotation
62
1
39
211
10
2.532138
20
3.179950
11
2.529885
21
3.180567
0
LINE
8
annotation
62
1
39
211
10
2.529885
20
3.180567
11
2.527492
21
3.180781
0
LINE
8
annotation
62
1
39
211
10
2.527492
20
3.180781
11
2.514169
21
3.180781
0
LINE
8
annotation
62
1
39
211
10
2.514169
20
3.180781
11
2.514169
21
3.207500
0
LINE
8
annotation
62
1
39
211
10
2.514169
20
3.207500
11
2.540816
21
3.207500
0
LINE
8
annotation
62
1
39
211
10
2.014169
20
3.147500
11
2.027492
21
3.147500
0
LINE
8
annotation
62
1
39
211
10
2.027492
20
3.147500
11
2.027492
21
3.147500
0
LINE
8
annotation
62
1
39
211
10
2.027492
20
3.147500
11
2.029884
21
3.147715
0
LINE
8
annotation
62
1
39
211
10
2.029884
20
3.147715
11
2.032136
21
3.148335
0
LINE
8
annotation
62
1
39
211
10
2.032136
20
3.148335
11
2.034211
21
3.149322
0
LINE
8
annotation
62
1
39
211
10
2.034211
20
3.149322
11
2.036071
21
3.150638
0
LINE
8
annotation
62
1
39
211
10
2.036071
20
3.150638
11
2.037678
21
3.152246
0
LINE
8
annotation
62
1
39
211
10
2.037678
20
3.152246
11
2.038994
21
3.154108
0
LINE
8
annotation
62
1
39
211
10
2.038994
20
3.154108
11
2.039981
21
3.156186
0
LINE
8
annotation
62
1
39
211
10
2.039981
20
3.156186
11
2.040601
21
3.158442
0
LINE
8
annotation
62
1
39
211
10
2.040601
20
3.158442
11
2.040816
21
3.160839
0
LINE
8
annotation
62
1
39
211
10
2.040816
20
3.160839
11
2.040816
21
3.167476
0
LINE
8
annotation
62
1
39
211
10
2.040816
20
3.167476
11
2.040816
21
3.167476
0
LINE
8
annotation
62
1
39
211
10
2.040816
20
3.167476
11
2.040601
21
3.169872
0
LINE
8
annotation
62
1
39
211
10
2.040601
20
3.169872
11
2.039981
21
3.172125
0
LINE
8
annotation
62
1
39
211
10
2.039981
20
3.172125
11
2.038995
21
3.174198
0
LINE
8
annotation
62
1
39
211
10
2.038995
20
3.174198
11
2.037679
21
3.176055
0
LINE
8
annotation
62
1
39
211
10
2.037679
20
3.176055
11
2.036073
21
3.177657
0
LINE
8
annotation
62
1
39
211
10
2.036073
20
3.177657
11
2.034213
21
3.178968
0
LINE
8
annotation
62
1
39
211
10
2.034213
20
3.178968
11
2.032138
21
3.179950
0
LINE
8
annotation
62
1
39
211
10
2.032138
20
3.179950
11
2.029885
21
3.180567
0
LINE
8
annotation
62
1
39
211
10
2.029885
20
3.180567
11
2.027492
21
3.180781
0
LINE
8
annotation
62
1
39
211
10
2.027492
20
3.180781
11
2.014169
21
3.180781
0
LINE
8
annotation
62
1
39
211
10
2.014169
20
3.180781
11
2.014169
21
3.207500
0
LINE
8
annotation
62
1
39
211
10
2.014169
20
3.207500
11
2.040816
21
3.207500
0
LINE
8
annotation
62
1
39
211
10
1.514169
20
3.147500
11
1.527492
21
3.147500
0
LINE
8
annotation
62
1
39
211
10
1.527492
20
3.147500
11
1.527492
21
3.147500
0
LINE
8
annotation
62
1
39
211
10
1.527492
20
3.147500
11
1.529884
21
3.147715
0
LINE
8
annotation
62
1
39
211
10
1.529884
20
3.147715
11
1.532136
21
3.148335
0
LINE
8
annotation
62
1
39
211
10
1.532136
20
3.148335
11
1.534211
21
3.149322
0
LINE
8
annotation
62
1
39
211
10
1.534211
20
3.149322
11
1.536071
21
3.150638
0
LINE
8
annotation
62
1
39
211
10
1.536071
20
3.150638
11
1.537678
21
3.152246
0
LINE
8
annotation
62
1
39
211
10
1.537678
20
3.152246
11
1.538994
21
3.154108
0
LINE
8
annotation
62
1
39
211
10
1.538994
20
3.154108
11
1.539981
21
3.156186
0
LINE
8
annotation
62
1
39
211
10
1.539981
20
3.156186
11
1.540601
21
3.158442
0
LINE
8
annotation
62
1
39
211
10
1.540601
20
3.158442
11
1.540816
21
3.160839
0
LINE
8
annotation
62
1
39
211
10
1.540816
20
3.160839
11
1.540816
21
3.167476
0
LINE
8
annotation
62
1
39
211
10
1.540816
20
3.167476
11
1.540816
21
3.167476
0
LINE
8
annotation
62
1
39
211
10
1.540816
20
3.167476
11
1.540601
21
3.169872
0
LINE
8
annotation
62
1
39
211
10
1.540601
20
3.169872
11
1.539981
21
3.172125
0
LINE
8
annotation
62
1
39
211
10
1.539981
20
3.172125
11
1.538995
21
3.174198
0
LINE
8
annotation
62
1
39
211
10
1.538995
20
3.174198
11
1.537679
21
3.176055
0
LINE
8
annotation
62
1
39
211
10
1.537679
20
3.176055
11
1.536073
21
3.177657
0
LINE
8
annotation
62
1
39
211
10
1.536073
20
3.177657
11
1.534213
21
3.178968
0
LINE
8
annotation
62
1
39
211
10
1.534213
20
3.178968
11
1.532138
21
3.179950
0
LINE
8
annotation
62
1
39
211
10
1.532138
20
3.179950
11
1.529885
21
3.180567
0
LINE
8
annotation
62
1
39
211
10
1.529885
20
3.180567
11
1.527492
21
3.180781
0
LINE
8
annotation
62
1
39
211
10
1.527492
20
3.180781
11
1.514169
21
3.180781
0
LINE
8
annotation
62
1
39
211
10
1.514169
20
3.180781
11
1.514169
21
3.207500
0
LINE
8
annotation
62
1
39
211
10
1.514169
20
3.207500
11
1.540816
21
3.207500
0
LINE
8
annotation
62
1
39
211
10
1.014169
20
3.147500
11
1.027492
21
3.147500
0
LINE
8
annotation
62
1
39
211
10
1.027492
20
3.147500
11
1.027492
21
3.147500
0
LINE
8
annotation
62
1
39
211
10
1.027492
20
3.147500
11
1.029884
21
3.147715
0
LINE
8
annotation
62
1
39
211
10
1.029884
20
3.147715
11
1.032136
21
3.148335
0
LINE
8
annotation
62
1
39
211
10
1.032136
20
3.148335
11
1.034211
21
3.149322
0
LINE
8
annotation
62
1
39
211
10
1.034211
20
3.149322
11
1.036071
21
3.150638
0
LINE
8
annotation
62
1
39
211
10
1.036071
20
3.150638
11
1.037678
21
3.152246
0
LINE
8
annotation
62
1
39
211
10
1.037678
20
3.152246
11
1.038994
21
3.154108
0
LINE
8
annotation
62
1
39
211
10
1.038994
20
3.154108
11
1.039981
21
3.156186
0
LINE
8
annotation
62
1
39
211
10
1.039981
20
3.156186
11
1.040601
21
3.158442
0
LINE
8
annotation
62
1
39
211
10
1.040601
20
3.158442
11
1.040816
21
3.160839
0
LINE
8
annotation
62
1
39
211
10
1.040816
20
3.160839
11
1.040816
21
3.167476
0
LINE
8
annotation
62
1
39
211
10
1.040816
20
3.167476
11
1.040816
21
3.167476
0
LINE
8
annotation
62
1
39
211
10
1.040816
20
3.167476
11
1.040601
21
3.169872
0
LINE
8
annotation
62
1
39
211
10
1.040601
20
3.169872
11
1.039981
21
3.172125
0
LINE
8
annotation
62
1
39
211
10
1.039981
20
3.172125
11
1.038995
21
3.174198
0
LINE
8
annotation
62
1
39
211
10
1.038995
20
3.174198
11
1.037679
21
3.176055
0
LINE
8
annotation
62
1
39
211
10
1.037679
20
3.176055
11
1.036073
21
3.177657
0
LINE
8
annotation
62
1
39
211
10
1.036073
20
3.177657
11
1.034213
21
3.178968
0
LINE
8
annotation
62
1
39
211
10
1.034213
20
3.178968
11
1.032138
21
3.179950
0
LINE
8
annotation
62
1
39
211
10
1.032138
20
3.179950
11
1.029885
21
3.180567
0
LINE
8
annotation
62
1
39
211
10
1.029885
20
3.180567
11
1.027492
21
3.180781
0
LINE
8
annotation
62
1
39
211
10
1.027492
20
3.180781
11
1.014169
21
3.180781
0
LINE
8
annotation
62
1
39
211
10
1.014169
20
3.180781
11
1.014169
21
3.207500
0
LINE
8
annotation
62
1
39
211
10
1.014169
20
3.207500
11
1.040816
21
3.207500
0
LINE
8
annotation
62
1
39
211
10
0.514169
20
3.147500
11
0.527492
21
3.147500
0
LINE
8
annotation
62
1
39
211
10
0.527492
20
3.147500
11
0.527492
21
3.147500
0
LINE
8
annotation
62
1
39
211
10
0.527492
20
3.147500
11
0.529884
21
3.147715
0
LINE
8
annotation
62
1
39
211
10
0.529884
20
3.147715
11
0.532136
21
3.148335
0
LINE
8
annotation
62
1
39
211
10
0.532136
20
3.148335
11
0.534211
21
3.149322
0
LINE
8
annotation
62
1
39
211
10
0.534211
20
3.149322
11
0.536071
21
3.150638
0
LINE
8
annotation
62
1
39
211
10
0.536071
20
3.150638
11
0.537678
21
3.152246
0
LINE
8
annotation
62
1
39
211
10
0.537678
20
3.152246
11
0.538994
21
3.154108
0
LINE
8
annotation
62
1
39
211
10
0.538994
20
3.154108
11
0.539981
21
3.156186
0
LINE
8
annotation
62
1
39
211
10
0.539981
20
3.156186
11
0.540601
21
3.158442
0
LINE
8
annotation
62
1
39
211
10
0.540601
20
3.158442
11
0.540816
21
3.160839
0
LINE
8
annotation
62
1
39
211
10
0.540816
20
3.160839
11
0.540816
21
3.167476
0
LINE
8
annotation
62
1
39
211
10
0.540816
20
3.167476
11
0.540816
21
3.167476
0
LINE
8
annotation
62
1
39
211
10
0.540816
20
3.167476
11
0.540601
21
3.169872
0
LINE
8
annotation
62
1
39
211
10
0.540601
20
3.169872
11
0.539981
21
3.172125
0
LINE
8
annotation
62
1
39
211
10
0.539981
20
3.172125
11
0.538995
21
3.174198
0
LINE
8
annotation
62
1
39
211
10
0.538995
20
3.174198
11
0.537679
21
3.176055
0
LINE
8
annotation
62
1
39
211
10
0.537679
20
3.176055
11
0.536073
21
3.177657
0
LINE
8
annotation
62
1
39
211
10
0.536073
20
3.177657
11
0.534213
21
3.178968
0
LINE
8
annotation
62
1
39
211
10
0.534213
20
3.178968
11
0.532138
21
3.179950
0
LINE
8
annotation
62
1
39
211
10
0.532138
20
3.179950
11
0.529885
21
3.180567
0
LINE
8
annotation
62
1
39
211
10
0.529885
20
3.180567
11
0.527492
21
3.180781
0
LINE
8
annotation
62
1
39
211
10
0.527492
20
3.180781
11
0.514169
21
3.180781
0
LINE
8
annotation
62
1
39
211
10
0.514169
20
3.180781
11
0.514169
21
3.207500
0
LINE
8
annotation
62
1
39
211
10
0.514169
20
3.207500
11
0.540816
21
3.207500
0
LINE
8
annotation
62
1
39
211
10
0.407498
20
3.014169
11
0.407498
21
3.027492
0
LINE
8
annotation
62
1
39
211
10
0.407498
20
3.027492
11
0.407498
21
3.027492
0
LINE
8
annotation
62
1
39
211
10
0.407498
20
3.027492
11
0.407283
21
3.029889
0
LINE
8
annotation
62
1
39
211
10
0.407283
20
3.029889
11
0.406664
21
3.032144
0
LINE
8
annotation
62
1
39
211
10
0.406664
20
3.032144
11
0.405678
21
3.034219
0
LINE
8
annotation
62
1
39
211
10
0.405678
20
3.034219
11
0.404363
21
3.036079
0
LINE
8
annotation
62
1
39
211
10
0.404363
20
3.036079
11
0.402758
21
3.037684
0
LINE
8
annotation
62
1
39
211
10
0.402758
20
3.037684
11
0.400900
21
3.038998
0
LINE
8
annotation
62
1
39
211
10
0.400900
20
3.038998
11
0.398828
21
3.039983
0
LINE
8
annotation
62
1
39
211
10
0.398828
20
3.039983
11
0.396580
21
3.040602
0
LINE
8
annotation
62
1
39
211
10
0.396580
20
3.040602
11
0.394193
21
3.040816
0
LINE
8
annotation
62
1
39
211
10
0.394193
20
3.040816
11
0.387522
21
3.040816
0
LINE
8
annotation
62
1
39
211
10
0.387522
20
3.040816
11
0.387522
21
3.040816
0
LINE
8
annotation
62
1
39
211
10
0.387522
20
3.040816
11
0.385136
21
3.040602
0
LINE
8
annotation
62
1
39
211
10
0.385136
20
3.040602
11
0.382888
21
3.039983
0
LINE
8
annotation
62
1
39
211
10
0.382888
20
3.039983
11
0.380817
21
3.038998
0
LINE
8
annotation
62
1
39
211
10
0.380817
20
3.038998
11
0.378959
21
3.037684
0
LINE
8
annotation
62
1
39
211
10
0.378959
20
3.037684
11
0.377353
21
3.036079
0
LINE
8
annotation
62
1
39
211
10
0.377353
20
3.036079
11
0.376038
21
3.034219
0
LINE
8
annotation
62
1
39
211
10
0.376038
20
3.034219
11
0.375052
21
3.032144
0
LINE
8
annotation
62
1
39
211
10
0.375052
20
3.032144
11
0.374432
21
3.029889
0
LINE
8
annotation
62
1
39
211
10
0.374432
20
3.029889
11
0.374217
21
3.027492
0
LINE
8
annotation
62
1
39
211
10
0.374217
20
3.027492
11
0.374217
21
3.020821
0
LINE
8
annotation
62
1
39
211
10
0.374217
20
3.020821
11
0.374217
21
3.027492
0
LINE
8
annotation
62
1
39
211
10
0.374217
20
3.027492
11
0.374217
21
3.027492
0
LINE
8
annotation
62
1
39
211
10
0.374217
20
3.027492
11
0.374002
21
3.029889
0
LINE
8
annotation
62
1
39
211
10
0.374002
20
3.029889
11
0.373382
21
3.032144
0
LINE
8
annotation
62
1
39
211
10
0.373382
20
3.032144
11
0.372394
21
3.034219
0
LINE
8
annotation
62
1
39
211
10
0.372394
20
3.034219
11
0.371077
21
3.036079
0
LINE
8
annotation
62
1
39
211
10
0.371077
20
3.036079
11
0.369469
21
3.037684
0
LINE
8
annotation
62
1
39
211
10
0.369469
20
3.037684
11
0.367606
21
3.038998
0
LINE
8
annotation
62
1
39
211
10
0.367606
20
3.038998
11
0.365528
21
3.039983
0
LINE
8
annotation
62
1
39
211
10
0.365528
20
3.039983
11
0.363271
21
3.040602
0
LINE
8
annotation
62
1
39
211
10
0.363271
20
3.040602
11
0.360875
21
3.040816
0
LINE
8
annotation
62
1
39
211
10
0.360875
20
3.040816
11
0.360875
21
3.040816
0
LINE
8
annotation
62
1
39
211
10
0.360875
20
3.040816
11
0.358489
21
3.040602
0
LINE
8
annotation
62
1
39
211
10
0.358489
20
3.040602
11
0.356241
21
3.039983
0
LINE
8
annotation
62
1
39
211
10
0.356241
20
3.039983
11
0.354169
21
3.038998
0
LINE
8
annotation
62
1
39
211
10
0.354169
20
3.038998
11
0.352311
21
3.037684
0
LINE
8
annotation
62
1
39
211
10
0.352311
20
3.037684
11
0.350706
21
3.036079
0
LINE
8
annotation
62
1
39
211
10
0.350706
20
3.036079
11
0.349391
21
3.034219
0
LINE
8
annotation
62
1
39
211
10
0.349391
20
3.034219
11
0.348405
21
3.032144
0
LINE
8
annotation
62
1
39
211
10
0.348405
20
3.032144
11
0.347785
21
3.029889
0
LINE
8
annotation
62
1
39
211
10
0.347785
20
3.029889
11
0.347570
21
3.027492
0
LINE
8
annotation
62
1
39
211
10
0.347570
20
3.027492
11
0.347570
21
3.014169
0
LINE
8
annotation
62
1
39
211
10
0.407498
20
2.514169
11
0.407498
21
2.527492
0
LINE
8
annotation
62
1
39
211
10
0.407498
20
2.527492
11
0.407498
21
2.527492
0
LINE
8
annotation
62
1
39
211
10
0.407498
20
2.527492
11
0.407283
21
2.529889
0
LINE
8
annotation
62
1
39
211
10
0.407283
20
2.529889
11
0.406664
21
2.532144
0
LINE
8
annotation
62
1
39
211
10
0.406664
20
2.532144
11
0.405678
21
2.534219
0
LINE
8
annotation
62
1
39
211
10
0.405678
20
2.534219
11
0.404363
21
2.536079
0
LINE
8
annotation
62
1
39
211
10
0.404363
20
2.536079
11
0.402758
21
2.537684
0
LINE
8
annotation
62
1
39
211
10
0.402758
20
2.537684
11
0.400900
21
2.538998
0
LINE
8
annotation
62
1
39
211
10
0.400900
20
2.538998
11
0.398828
21
2.539983
0
LINE
8
annotation
62
1
39
211
10
0.398828
20
2.539983
11
0.396580
21
2.540602
0
LINE
8
annotation
62
1
39
211
10
0.396580
20
2.540602
11
0.394193
21
2.540816
0
LINE
8
annotation
62
1
39
211
10
0.394193
20
2.540816
11
0.387522
21
2.540816
0
LINE
8
annotation
62
1
39
211
10
0.387522
20
2.540816
11
0.387522
21
2.540816
0
LINE
8
annotation
62
1
39
211
10
0.387522
20
2.540816
11
0.385136
21
2.540602
0
LINE
8
annotation
62
1
39
211
10
0.385136
20
2.540602
11
0.382888
21
2.539983
0
LINE
8
annotation
62
1
39
211
10
0.382888
20
2.539983
11
0.380817
21
2.538998
0
LINE
8
annotation
62
1
39
211
10
0.380817
20
2.538998
11
0.378959
21
2.537684
0
LINE
8
annotation
62
1
39
211
10
0.378959
20
2.537684
11
0.377353
21
2.536079
0
LINE
8
annotation
62
1
39
211
10
0.377353
20
2.536079
11
0.376038
21
2.534219
0
LINE
8
annotation
62
1
39
211
10
0.376038
20
2.534219
11
0.375052
21
2.532144
0
LINE
8
annotation
62
1
39
211
10
0.375052
20
2.532144
11
0.374432
21
2.529889
0
LINE
8
annotation
62
1
39
211
10
0.374432
20
2.529889
11
0.374217
21
2.527492
0
LINE
8
annotation
62
1
39
211
10
0.374217
20
2.527492
11
0.374217
21
2.520821
0
LINE
8
annotation
62
1
39
211
10
0.374217
20
2.520821
11
0.374217
21
2.527492
0
LINE
8
annotation
62
1
39
211
10
0.374217
20
2.527492
11
0.374217
21
2.527492
0
LINE
8
annotation
62
1
39
211
10
0.374217
20
2.527492
11
0.374002
21
2.529889
0
LINE
8
annotation
62
1
39
211
10
0.374002
20
2.529889
11
0.373382
21
2.532144
0
LINE
8
annotation
62
1
39
211
10
0.373382
20
2.532144
11
0.372394
21
2.534219
0
LINE
8
annotation
62
1
39
211
10
0.372394
20
2.534219
11
0.371077
21
2.536079
0
LINE
8
annotation
62
1
39
211
10
0.371077
20
2.536079
11
0.369469
21
2.537684
0
LINE
8
annotation
62
1
39
211
10
0.369469
20
2.537684
11
0.367606
21
2.538998
0
LINE
8
annotation
62
1
39
211
10
0.367606
20
2.538998
11
0.365528
21
2.539983
0
LINE
8
annotation
62
1
39
211
10
0.365528
20
2.539983
11
0.363271
21
2.540602
0
LINE
8
annotation
62
1
39
211
10
0.363271
20
2.540602
11
0.360875
21
2.540816
0
LINE
8
annotation
62
1
39
211
10
0.360875
20
2.540816
11
0.360875
21
2.540816
0
LINE
8
annotation
62
1
39
211
10
0.360875
20
2.540816
11
0.358489
21
2.540602
0
LINE
8
annotation
62
1
39
211
10
0.358489
20
2.540602
11
0.356241
21
2.539983
0
LINE
8
annotation
62
1
39
211
10
0.356241
20
2.539983
11
0.354169
21
2.538998
0
LINE
8
annotation
62
1
39
211
10
0.354169
20
2.538998
11
0.352311
21
2.537684
0
LINE
8
annotation
62
1
39
211
10
0.352311
20
2.537684
11
0.350706
21
2.536079
0
LINE
8
annotation
62
1
39
211
10
0.350706
20
2.536079
11
0.349391
21
2.534219
0
LINE
8
annotation
62
1
39
211
10
0.349391
20
2.534219
11
0.348405
21
2.532144
0
LINE
8
annotation
62
1
39
211
10
0.348405
20
2.532144
11
0.347785
21
2.529889
0
LINE
8
annotation
62
1
39
211
10
0.347785
20
2.529889
11
0.347570
21
2.527492
0
LINE
8
annotation
62
1
39
211
10
0.347570
20
2.527492
11
0.347570
21
2.514169
0
LINE
8
annotation
62
1
39
211
10
0.407498
20
2.014169
11
0.407498
21
2.027492
0
LINE
8
annotation
62
1
39
211
10
0.407498
20
2.027492
11
0.407498
21
2.027492
0
LINE
8
annotation
62
1
39
211
10
0.407498
20
2.027492
11
0.407283
21
2.029889
0
LINE
8
annotation
62
1
39
211
10
0.407283
20
2.029889
11
0.406664
21
2.032144
0
LINE
8
annotation
62
1
39
211
10
0.406664
20
2.032144
11
0.405678
21
2.034219
0
LINE
8
annotation
62
1
39
211
10
0.405678
20
2.034219
11
0.404363
21
2.036079
0
LINE
8
annotation
62
1
39
211
10
0.404363
20
2.036079
11
0.402758
21
2.037684
0
LINE
8
annotation
62
1
39
211
10
0.402758
20
2.037684
11
0.400900
21
2.038998
0
LINE
8
annotation
62
1
39
211
10
0.400900
20
2.038998
11
0.398828
21
2.039983
0
LINE
8
annotation
62
1
39
211
10
0.398828
20
2.039983
11
0.396580
21
2.040602
0
LINE
8
annotation
62
1
39
211
10
0.396580
20
2.040602
11
0.394193
21
2.040816
0
LINE
8
annotation
62
1
39
211
10
0.394193
20
2.040816
11
0.387522
21
2.040816
0
LINE
8
annotation
62
1
39
211
10
0.387522
20
2.040816
11
0.387522
21
2.040816
0
LINE
8
annotation
62
1
39
211
10
0.387522
20
2.040816
11
0.385136
21
2.040602
0
LINE
8
annotation
62
1
39
211
10
0.385136
20
2.040602
11
0.382888
21
2.039983
0
LINE
8
annotation
62
1
39
211
10
0.382888
20
2.039983
11
0.380817
21
2.038998
0
LINE
8
annotation
62
1
39
211
10
0.380817
20
2.038998
11
0.378959
21
2.037684
0
LINE
8
annotation
62
1
39
211
10
0.378959
20
2.037684
11
0.377353
21
2.036079
0
LINE
8
annotation
62
1
39
211
10
0.377353
20
2.036079
11
0.376038
21
2.034219
0
LINE
8
annotation
62
1
39
211
10
0.376038
20
2.034219
11
0.375052
21
2.032144
0
LINE
8
annotation
62
1
39
211
10
0.375052
20
2.032144
11
0.374432
21
2.029889
0
LINE
8
annotation
62
1
39
211
10
0.374432
20
2.029889
11
0.374217
21
2.027492
0
LINE
8
annotation
62
1
39
211
10
0.374217
20
2.027492
11
0.374217
21
2.020821
0
LINE
8
annotation
62
1
39
211
10
0.374217
20
2.020821
11
0.374217
21
2.027492
0
LINE
8
annotation
62
1
39
211
10
0.374217
20
2.027492
11
0.374217
21
2.027492
0
LINE
8
annotation
62
1
39
211
10
0.374217
20
2.027492
11
0.374002
21
2.029889
0
LINE
8
annotation
62
1
39
211
10
0.374002
20
2.029889
11
0.373382
21
2.032144
0
LINE
8
annotation
62
1
39
211
10
0.373382
20
2.032144
11
0.372394
21
2.034219
0
LINE
8
annotation
62
1
39
211
10
0.372394
20
2.034219
11
0.371077
21
2.036079
0
LINE
8
annotation
62
1
39
211
10
0.371077
20
2.036079
11
0.369469
21
2.037684
0
LINE
8
annotation
62
1
39
211
10
0.369469
20
2.037684
11
0.367606
21
2.038998
0
LINE
8
annotation
62
1
39
211
10
0.367606
20
2.038998
11
0.365528
21
2.039983
0
LINE
8
annotation
62
1
39
211
10
0.365528
20
2.039983
11
0.363271
21
2.040602
0
LINE
8
annotation
62
1
39
211
10
0.363271
20
2.040602
11
0.360875
21
2.040816
0
LINE
8
annotation
62
1
39
211
10
0.360875
20
2.040816
11
0.360875
21
2.040816
0
LINE
8
annotation
62
1
39
211
10
0.360875
20
2.040816
11
0.358489
21
2.040602
0
LINE
8
annotation
62
1
39
211
10
0.358489
20
2.040602
11
0.356241
21
2.039983
0
LINE
8
annotation
62
1
39
211
10
0.356241
20
2.039983
11
0.354169
21
2.038998
0
LINE
8
annotation
62
1
39
211
10
0.354169
20
2.038998
11
0.352311
21
2.037684
0
LINE
8
annotation
62
1
39
211
10
0.352311
20
2.037684
11
0.350706
21
2.036079
0
LINE
8
annotation
62
1
39
211
10
0.350706
20
2.036079
11
0.349391
21
2.034219
0
LINE
8
annotation
62
1
39
211
10
0.349391
20
2.034219
11
0.348405
21
2.032144
0
LINE
8
annotation
62
1
39
211
10
0.348405
20
2.032144
11
0.347785
21
2.029889
0
LINE
8
annotation
62
1
39
211
10
0.347785
20
2.029889
11
0.347570
21
2.027492
0
LINE
8
annotation
62
1
39
211
10
0.347570
20
2.027492
11
0.347570
21
2.014169
0
LINE
8
annotation
62
1
39
211
10
0.407498
20
1.514169
11
0.407498
21
1.527492
0
LINE
8
annotation
62
1
39
211
10
0.407498
20
1.527492
11
0.407498
21
1.527492
0
LINE
8
annotation
62
1
39
211
10
0.407498
20
1.527492
11
0.407283
21
1.529889
0
LINE
8
annotation
62
1
39
211
10
0.407283
20
1.529889
11
0.406664
21
1.532144
0
LINE
8
annotation
62
1
39
211
10
0.406664
20
1.532144
11
0.405678
21
1.534219
0
LINE
8
annotation
62
1
39
211
10
0.405678
20
1.534219
11
0.404363
21
1.536079
0
LINE
8
annotation
62
1
39
211
10
0.404363
20
1.536079
11
0.402758
21
1.537684
0
LINE
8
annotation
62
1
39
211
10
0.402758
20
1.537684
11
0.400900
21
1.538998
0
LINE
8
annotation
62
1
39
211
10
0.400900
20
1.538998
11
0.398828
21
1.539983
0
LINE
8
annotation
62
1
39
211
10
0.398828
20
1.539983
11
0.396580
21
1.540602
0
LINE
8
annotation
62
1
39
211
10
0.396580
20
1.540602
11
0.394193
21
1.540816
0
LINE
8
annotation
62
1
39
211
10
0.394193
20
1.540816
11
0.387522
21
1.540816
0
LINE
8
annotation
62
1
39
211
10
0.387522
20
1.540816
11
0.387522
21
1.540816
0
LINE
8
annotation
62
1
39
211
10
0.387522
20
1.540816
11
0.385136
21
1.540602
0
LINE
8
annotation
62
1
39
211
10
0.385136
20
1.540602
11
0.382888
21
1.539983
0
LINE
8
annotation
62
1
39
211
10
0.382888
20
1.539983
11
0.380817
21
1.538998
0
LINE
8
annotation
62
1
39
211
10
0.380817
20
1.538998
11
0.378959
21
1.537684
0
LINE
8
annotation
62
1
39
211
10
0.378959
20
1.537684
11
0.377353
21
1.536079
0
LINE
8
annotation
62
1
39
211
10
0.377353
20
1.536079
11
0.376038
21
1.534219
0
LINE
8
annotation
62
1
39
211
10
0.376038
20
1.534219
11
0.375052
21
1.532144
0
LINE
8
annotation
62
1
39
211
10
0.375052
20
1.532144
11
0.374432
21
1.529889
0
LINE
8
annotation
62
1
39
211
10
0.374432
20
1.529889
11
0.374217
21
1.527492
0
LINE
8
annotation
62
1
39
211
10
0.374217
20
1.527492
11
0.374217
21
1.520821
0
LINE
8
annotation
62
1
39
211
10
0.374217
20
1.520821
11
0.374217
21
1.527492
0
LINE
8
annotation
62
1
39
211
10
0.374217
20
1.527492
11
0.374217
21
1.527492
0
LINE
8
annotation
62
1
39
211
10
0.374217
20
1.527492
11
0.374002
21
1.529889
0
LINE
8
annotation
62
1
39
211
10
0.374002
20
1.529889
11
0.373382
21
1.532144
0
LINE
8
annotation
62
1
39
211
10
0.373382
20
1.532144
11
0.372394
21
1.534219
0
LINE
8
annotation
62
1
39
211
10
0.372394
20
1.534219
11
0.371077
21
1.536079
0
LINE
8
annotation
62
1
39
211
10
0.371077
20
1.536079
11
0.369469
21
1.537684
0
LINE
8
annotation
62
1
39
211
10
0.369469
20
1.537684
11
0.367606
21
1.538998
0
LINE
8
annotation
62
1
39
211
10
0.367606
20
1.538998
11
0.365528
21
1.539983
0
LINE
8
annotation
62
1
39
211
10
0.365528
20
1.539983
11
0.363271
21
1.540602
0
LINE
8
annotation
62
1
39
211
10
0.363271
20
1.540602
11
0.360875
21
1.540816
0
LINE
8
annotation
62
1
39
211
10
0.360875
20
1.540816
11
0.360875
21
1.540816
0
LINE
8
annotation
62
1
39
211
10
0.360875
20
1.540816
11
0.358489
21
1.540602
0
LINE
8
annotation
62
1
39
211
10
0.358489
20
1.540602
11
0.356241
21
1.539983
0
LINE
8
annotation
62
1
39
211
10
0.356241
20
1.539983
11
0.354169
21
1.538998
0
LINE
8
annotation
62
1
39
211
10
0.354169
20
1.538998
11
0.352311
21
1.537684
0
LINE
8
annotation
62
1
39
211
10
0.352311
20
1.537684
11
0.350706
21
1.536079
0
LINE
8
annotation
62
1
39
211
10
0.350706
20
1.536079
11
0.349391
21
1.534219
0
LINE
8
annotation
62
1
39
211
10
0.349391
20
1.534219
11
0.348405
21
1.532144
0
LINE
8
annotation
62
1
39
211
10
0.348405
20
1.532144
11
0.347785
21
1.529889
0
LINE
8
annotation
62
1
39
211
10
0.347785
20
1.529889
11
0.347570
21
1.527492
0
LINE
8
annotation
62
1
39
211
10
0.347570
20
1.527492
11
0.347570
21
1.514169
0
LINE
8
annotation
62
1
39
211
10
0.407498
20
1.014169
11
0.407498
21
1.027492
0
LINE
8
annotation
62
1
39
211
10
0.407498
20
1.027492
11
0.407498
21
1.027492
0
LINE
8
annotation
62
1
39
211
10
0.407498
20
1.027492
11
0.407283
21
1.029889
0
LINE
8
annotation
62
1
39
211
10
0.407283
20
1.029889
11
0.406664
21
1.032144
0
LINE
8
annotation
62
1
39
211
10
0.406664
20
1.032144
11
0.405678
21
1.034219
0
LINE
8
annotation
62
1
39
211
10
0.405678
20
1.034219
11
0.404363
21
1.036079
0
LINE
8
annotation
62
1
39
211
10
0.404363
20
1.036079
11
0.402758
21
1.037684
0
LINE
8
annotation
62
1
39
211
10
0.402758
20
1.037684
11
0.400900
21
1.038998
0
LINE
8
annotation
62
1
39
211
10
0.400900
20
1.038998
11
0.398828
21
1.039983
0
LINE
8
annotation
62
1
39
211
10
0.398828
20
1.039983
11
0.396580
21
1.040602
0
LINE
8
annotation
62
1
39
211
10
0.396580
20
1.040602
11
0.394193
21
1.040816
0
LINE
8
annotation
62
1
39
211
10
0.394193
20
1.040816
11
0.387522
21
1.040816
0
LINE
8
annotation
62
1
39
211
10
0.387522
20
1.040816
11
0.387522
21
1.040816
0
LINE
8
annotation
62
1
39
211
10
0.387522
20
1.040816
11
0.385136
21
1.040602
0
LINE
8
annotation
62
1
39
211
10
0.385136
20
1.040602
11
0.382888
21
1.039983
0
LINE
8
annotation
62
1
39
211
10
0.382888
20
1.039983
11
0.380817
21
1.038998
0
LINE
8
annotation
62
1
39
211
10
0.380817
20
1.038998
11
0.378959
21
1.037684
0
LINE
8
annotation
62
1
39
211
10
0.378959
20
1.037684
11
0.377353
21
1.036079
0
LINE
8
annotation
62
1
39
211
10
0.377353
20
1.036079
11
0.376038
21
1.034219
0
LINE
8
annotation
62
1
39
211
10
0.376038
20
1.034219
11
0.375052
21
1.032144
0
LINE
8
annotation
62
1
39
211
10
0.375052
20
1.032144
11
0.374432
21
1.029889
0
LINE
8
annotation
62
1
39
211
10
0.374432
20
1.029889
11
0.374217
21
1.027492
0
LINE
8
annotation
62
1
39
211
10
0.374217
20
1.027492
11
0.374217
21
1.020821
0
LINE
8
annotation
62
1
39
211
10
0.374217
20
1.020821
11
0.374217
21
1.027492
0
LINE
8
annotation
62
1
39
211
10
0.374217
20
1.027492
11
0.374217
21
1.027492
0
LINE
8
annotation
62
1
39
211
10
0.374217
20
1.027492
11
0.374002
21
1.029889
0
LINE
8
annotation
62
1
39
211
10
0.374002
20
1.029889
11
0.373382
21
1.032144
0
LINE
8
annotation
62
1
39
211
10
0.373382
20
1.032144
11
0.372394
21
1.034219
0
LINE
8
annotation
62
1
39
211
10
0.372394
20
1.034219
11
0.371077
21
1.036079
0
LINE
8
annotation
62
1
39
211
10
0.371077
20
1.036079
11
0.369469
21
1.037684
0
LINE
8
annotation
62
1
39
211
10
0.369469
20
1.037684
11
0.367606
21
1.038998
0
LINE
8
annotation
62
1
39
211
10
0.367606
20
1.038998
11
0.365528
21
1.039983
0
LINE
8
annotation
62
1
39
211
10
0.365528
20
1.039983
11
0.363271
21
1.040602
0
LINE
8
annotation
62
1
39
211
10
0.363271
20
1.040602
11
0.360875
21
1.040816
0
LINE
8
annotation
62
1
39
211
10
0.360875
20
1.040816
11
0.360875
21
1.040816
0
LINE
8
annotation
62
1
39
211
10
0.360875
20
1.040816
11
0.358489
21
1.040602
0
LINE
8
annotation
62
1
39
211
10
0.358489
20
1.040602
11
0.356241
21
1.039983
0
LINE
8
annotation
62
1
39
211
10
0.356241
20
1.039983
11
0.354169
21
1.038998
0
LINE
8
annotation
62
1
39
211
10
0.354169
20
1.038998
11
0.352311
21
1.037684
0
LINE
8
annotation
62
1
39
211
10
0.352311
20
1.037684
11
0.350706
21
1.036079
0
LINE
8
annotation
62
1
39
211
10
0.350706
20
1.036079
11
0.349391
21
1.034219
0
LINE
8
annotation
62
1
39
211
10
0.349391
20
1.034219
11
0.348405
21
1.032144
0
LINE
8
annotation
62
1
39
211
10
0.348405
20
1.032144
11
0.347785
21
1.029889
0
LINE
8
annotation
62
1
39
211
10
0.347785
20
1.029889
11
0.347570
21
1.027492
0
LINE
8
annotation
62
1
39
211
10
0.347570
20
1.027492
11
0.347570
21
1.014169
0
LINE
8
annotation
62
1
39
211
10
0.407498
20
0.514169
11
0.407498
21
0.527492
0
LINE
8
annotation
62
1
39
211
10
0.407498
20
0.527492
11
0.407498
21
0.527492
0
LINE
8
annotation
62
1
39
211
10
0.407498
20
0.527492
11
0.407283
21
0.529889
0
LINE
8
annotation
62
1
39
211
10
0.407283
20
0.529889
11
0.406664
21
0.532144
0
LINE
8
annotation
62
1
39
211
10
0.406664
20
0.532144
11
0.405678
21
0.534219
0
LINE
8
annotation
62
1
39
211
10
0.405678
20
0.534219
11
0.404363
21
0.536079
0
LINE
8
annotation
62
1
39
211
10
0.404363
20
0.536079
11
0.402758
21
0.537684
0
LINE
8
annotation
62
1
39
211
10
0.402758
20
0.537684
11
0.400900
21
0.538998
0
LINE
8
annotation
62
1
39
211
10
0.400900
20
0.538998
11
0.398828
21
0.539983
0
LINE
8
annotation
62
1
39
211
10
0.398828
20
0.539983
11
0.396580
21
0.540602
0
LINE
8
annotation
62
1
39
211
10
0.396580
20
0.540602
11
0.394193
21
0.540816
0
LINE
8
annotation
62
1
39
211
10
0.394193
20
0.540816
11
0.387522
21
0.540816
0
LINE
8
annotation
62
1
39
211
10
0.387522
20
0.540816
11
0.387522
21
0.540816
0
LINE
8
annotation
62
1
39
211
10
0.387522
20
0.540816
11
0.385136
21
0.540602
0
LINE
8
annotation
62
1
39
211
10
0.385136
20
0.540602
11
0.382888
21
0.539983
0
LINE
8
annotation
62
1
39
211
10
0.382888
20
0.539983
11
0.380817
21
0.538998
0
LINE
8
annotation
62
1
39
211
10
0.380817
20
0.538998
11
0.378959
21
0.537684
0
LINE
8
annotation
62
1
39
211
10
0.378959
20
0.537684
11
0.377353
21
0.536079
0
LINE
8
annotation
62
1
39
211
10
0.377353
20
0.536079
11
0.376038
21
0.534219
0
LINE
8
annotation
62
1
39
211
10
0.376038
20
0.534219
11
0.375052
21
0.532144
0
LINE
8
annotation
62
1
39
211
10
0.375052
20
0.532144
11
0.374432
21
0.529889
0
LINE
8
annotation
62
1
39
211
10
0.374432
20
0.529889
11
0.374217
21
0.527492
0
LINE
8
annotation
62
1
39
211
10
0.374217
20
0.527492
11
0.374217
21
0.520821
0
LINE
8
annotation
62
1
39
211
10
0.374217
20
0.520821
11
0.374217
21
0.527492
0
LINE
8
annotation
62
1
39
211
10
0.374217
20
0.527492
11
0.374217
21
0.527492
0
LINE
8
annotation
62
1
39
211
10
0.374217
20
0.527492
11
0.374002
21
0.529889
0
LINE
8
annotation
62
1
39
211
10
0.374002
20
0.529889
11
0.373382
21
0.532144
0
LINE
8
annotation
62
1
39
211
10
0.373382
20
0.532144
11
0.372394
21
0.534219
0
LINE
8
annotation
62
1
39
211
10
0.372394
20
0.534219
11
0.371077
21
0.536079
0
LINE
8
annotation
62
1
39
211
10
0.371077
20
0.536079
11
0.369469
21
0.537684
0
LINE
8
annotation
62
1
39
211
10
0.369469
20
0.537684
11
0.367606
21
0.538998
0
LINE
8
annotation
62
1
39
211
10
0.367606
20
0.538998
11
0.365528
21
0.539983
0
LINE
8
annotation
62
1
39
211
10
0.365528
20
0.539983
11
0.363271
21
0.540602
0
LINE
8
annotation
62
1
39
211
10
0.363271
20
0.540602
11
0.360875
21
0.540816
0
LINE
8
annotation
62
1
39
211
10
0.360875
20
0.540816
11
0.360875
21
0.540816
0
LINE
8
annotation
62
1
39
211
10
0.360875
20
0.540816
11
0.358489
21
0.540602
0
LINE
8
annotation
62
1
39
211
10
0.358489
20
0.540602
11
0.356241
21
0.539983
0
LINE
8
annotation
62
1
39
211
10
0.356241
20
0.539983
11
0.354169
21
0.538998
0
LINE
8
annotation
62
1
39
211
10
0.354169
20
0.538998
11
0.352311
21
0.537684
0
LINE
8
annotation
62
1
39
211
10
0.352311
20
0.537684
11
0.350706
21
0.536079
0
LINE
8
annotation
62
1
39
211
10
0.350706
20
0.536079
11
0.349391
21
0.534219
0
LINE
8
annotation
62
1
39
211
10
0.349391
20
0.534219
11
0.348405
21
0.532144
0
LINE
8
annotation
62
1
39
211
10
0.348405
20
0.532144
11
0.347785
21
0.529889
0
LINE
8
annotation
62
1
39
211
10
0.347785
20
0.529889
11
0.347570
21
0.527492
0
LINE
8
annotation
62
1
39
211
10
0.347570
20
0.527492
11
0.347570
21
0.514169
0
LINE
8
annotation
62
1
39
211
10
0.277500
20
0.277500
11
7.277500
21
0.277500
0
LINE
8
annotation
62
1
39
211
10
7.277500
20
0.277500
11
7.277500
21
3.277500
0
LINE
8
annotation
62
1
39
211
10
7.277500
20
3.277500
11
0.277500
21
3.277500
0
LINE
8
annotation
62
1
39
211
10
0.277500
20
3.277500
11
0.277500
21
0.277500
0
LINE
8
frame
62
5
39
2
10
0.000000
20
0.000000
11
14.000000
21
0.000000
0
LINE
8
frame
62
5
39
2
10
14.000000
20
0.000000
11
14.000000
21
16.000000
0
LINE
8
frame
62
5
39
2
10
14.000000
20
16.000000
11
0.000000
21
16.000000
0
LINE
8
frame
62
5
39
2
10
0.000000
20
16.000000
11
0.000000
21
0.000000
0
ENDSEC
0
EOF
